<svg width="800" height="800" xmlns="http://www.w3.org/2000/svg" xmlns:xlink="http://www.w3.org/1999/xlink">
 <metadata id="metadata7">image/svg+xml</metadata>
 <defs>
  <linearGradient id="linearGradient2780">
   <stop offset="0" id="stop2782" stop-color="#4b8247"/>
   <stop offset="1" id="stop2784" stop-opacity="0" stop-color="#0f170f"/>
  </linearGradient>
  <linearGradient id="linearGradient2044">
   <stop offset="0" id="stop2046" stop-color="#3f0b0b"/>
   <stop offset="1" id="stop2048" stop-opacity="0" stop-color="#3f0b0b"/>
  </linearGradient>
  <linearGradient xlink:href="#linearGradient2044" id="linearGradient2050" x1="-552.68896" y1="477.90662" x2="-552.68896" y2="615.7475" gradientUnits="userSpaceOnUse" gradientTransform="matrix(0.745827,0.000000,0.000000,1.000000,791.5946,155.6063)"/>
  <linearGradient xlink:href="#linearGradient2780" id="linearGradient2786" x1="632.578" y1="595.82269" x2="303.45538" y2="373.35645" gradientUnits="userSpaceOnUse"/>
 </defs>
 <g>
  <title>Layer 1</title>
  <path d="m326.566986,437.103577l169.322113,0c0,0 -83.540802,231.616516 31.809448,300.86969c-136.474457,-42.079895 15.904724,71.571228 -108.518127,13.253906c2.486664,-15.904724 -23.734009,-41.417175 -129.724426,-2.650818c127.211517,-117.220398 37.110992,-311.472778 37.110992,-311.472778z" id="rect1305" stroke-dashoffset="0" stroke-miterlimit="4" stroke-linejoin="round" stroke-linecap="round" stroke-width="18.803326" stroke="#230c0c" fill-rule="nonzero" fill="#5b0d0d"/>
  <path d="m447.507996,22.1721c-73.281006,0 -137.996002,26.468399 -177.455994,66.898899c-115.240997,4.037399 -207.141403,73.201004 -207.141403,158.065002c0,49.472 31.243103,93.643997 80.101395,122.705002c5.754013,84.391998 120.979004,151.820007 262.178009,151.820007c144.872009,0 262.434021,-70.977997 262.434021,-158.436005c0,-0.431 -0.080017,-0.85202 -0.085022,-1.28302c41.549988,-18.813995 67.810974,-45.894989 67.810974,-76.108978c0,-31.546005 -28.508972,-59.757004 -73.28595,-78.62001c2.03595,-8.649994 3.135986,-17.524002 3.135986,-26.604996c0,-87.457405 -97.522034,-158.435902 -217.692017,-158.435902z" id="path2035" stroke-dashoffset="0" stroke-miterlimit="4" stroke-linejoin="round" stroke-linecap="round" stroke-width="18.803326" stroke="#165822" fill-rule="nonzero" fill="#14920d"/>
  <g id="layer1">
   <path id="svg_2" fill="#000000" fill-rule="nonzero" d="m199.507401,212.837402c-24.960495,44.948273 -10.147827,102.423401 33.085007,128.374268c43.232849,25.950928 98.514465,10.550507 123.474976,-34.397766l-26.093323,-15.66275c-16.64032,29.965515 -53.494751,40.232452 -82.31665,22.931854c-28.821899,-17.300568 -38.697021,-55.61734 -22.056686,-85.582855l-26.093323,-15.66275l0,0zm52.186661,31.3255c-8.32016,14.982788 -3.382614,34.141113 11.028351,42.791443c14.410919,8.650269 32.838135,3.516815 41.158325,-11.465942l-26.093353,-15.66275l-26.093323,-15.66275z"/>
   <path id="svg_3" fill="#000000" fill-rule="nonzero" d="m604.492676,212.837402c24.960449,44.948273 10.147827,102.423401 -33.085022,128.374268c-43.232849,25.950928 -98.514465,10.550507 -123.474976,-34.397766l26.093353,-15.66275c16.64032,29.965515 53.49472,40.232452 82.31662,22.931854c28.821899,-17.300568 38.697021,-55.61734 22.056641,-85.582855l26.093384,-15.66275zm-52.186707,31.3255c8.32019,14.982788 3.382629,34.141113 -11.02832,42.791443c-14.410889,8.650269 -32.838135,3.516815 -41.158325,-11.465942l26.093323,-15.66275l26.093323,-15.66275z"/>
  </g>
 </g>
</svg>