<?xml version="1.0" encoding="UTF-8" standalone="no"?>
<!-- Created with Inkscape (http://www.inkscape.org/) -->
<svg
   xmlns:dc="http://purl.org/dc/elements/1.1/"
   xmlns:cc="http://creativecommons.org/ns#"
   xmlns:rdf="http://www.w3.org/1999/02/22-rdf-syntax-ns#"
   xmlns:svg="http://www.w3.org/2000/svg"
   xmlns="http://www.w3.org/2000/svg"
   xmlns:sodipodi="http://sodipodi.sourceforge.net/DTD/sodipodi-0.dtd"
   xmlns:inkscape="http://www.inkscape.org/namespaces/inkscape"
   width="744.09448819"
   height="1052.3622047"
   id="svg2"
   sodipodi:version="0.32"
   inkscape:version="0.46"
   sodipodi:docname="Mummy.svg"
   inkscape:output_extension="org.inkscape.output.svg.inkscape">
  <defs
     id="defs4">
    <inkscape:perspective
       sodipodi:type="inkscape:persp3d"
       inkscape:vp_x="0 : 526.18109 : 1"
       inkscape:vp_y="0 : 1000 : 0"
       inkscape:vp_z="744.09448 : 526.18109 : 1"
       inkscape:persp3d-origin="372.04724 : 350.78739 : 1"
       id="perspective10" />
  </defs>
  <sodipodi:namedview
     id="base"
     pagecolor="#ffffff"
     bordercolor="#666666"
     borderopacity="1.0"
     gridtolerance="10000"
     guidetolerance="10"
     objecttolerance="10"
     inkscape:pageopacity="0.0"
     inkscape:pageshadow="2"
     inkscape:zoom="0.35355339"
     inkscape:cx="222.5335"
     inkscape:cy="545.70788"
     inkscape:document-units="px"
     inkscape:current-layer="layer1"
     showgrid="false"
     inkscape:window-width="1280"
     inkscape:window-height="723"
     inkscape:window-x="0"
     inkscape:window-y="25" />
  <metadata
     id="metadata7">
    <rdf:RDF>
      <cc:Work
         rdf:about="">
        <dc:format>image/svg+xml</dc:format>
        <dc:type
           rdf:resource="http://purl.org/dc/dcmitype/StillImage" />
      </cc:Work>
    </rdf:RDF>
  </metadata>
  <g
     inkscape:label="Layer 1"
     inkscape:groupmode="layer"
     id="layer1">
    <g
       id="g3343"
       transform="matrix(0.94552,0,0,0.94552,-19.585771,-9.18449)">
      <path
         sodipodi:nodetypes="ccc"
         id="path3297"
         d="M 365.71429,752.36219 C 371.42857,775.21933 391.42857,960.93361 391.42857,960.93361 L 448.57143,983.79076"
         style="fill:none;fill-rule:evenodd;stroke:#000000;stroke-width:10;stroke-linecap:butt;stroke-linejoin:miter;stroke-miterlimit:4;stroke-dasharray:none;stroke-opacity:1" />
      <path
         sodipodi:nodetypes="ccc"
         id="path3299"
         d="M 268.57143,752.36218 C 262.85714,766.6479 234.28571,989.50504 234.28571,989.50504 L 300,1015.2193"
         style="fill:none;fill-rule:evenodd;stroke:#000000;stroke-width:10;stroke-linecap:butt;stroke-linejoin:miter;stroke-miterlimit:4;stroke-dasharray:none;stroke-opacity:1" />
      <path
         sodipodi:nodetypes="ccssc"
         id="path3301"
         d="M 286.88332,785.68192 L 244.45692,777.60069 C 232.99527,806.42635 219.27273,832.50171 225.37434,852.27085 C 246.42673,920.48035 236.80492,916.77037 277.84268,860.69065 C 289.46709,844.80543 285.7819,816.74816 286.88332,785.68192 z"
         style="fill:#ffe680;fill-opacity:1;fill-rule:evenodd;stroke:#000000;stroke-width:5;stroke-linecap:butt;stroke-linejoin:miter;stroke-miterlimit:4;stroke-dasharray:none;stroke-opacity:1" />
      <path
         style="fill:#ffe680;fill-opacity:1;fill-rule:evenodd;stroke:#000000;stroke-width:5;stroke-linecap:butt;stroke-linejoin:miter;stroke-miterlimit:4;stroke-dasharray:none;stroke-opacity:1"
         d="M 395.9054,747.6122 L 352.78624,750.0708 C 348.66422,780.81648 341.68132,809.4429 352.39901,827.13978 C 389.37828,888.19937 379.14369,886.93584 405.34197,822.57216 C 412.76293,804.34041 402.37761,778.01673 395.9054,747.6122 z"
         id="path3307"
         sodipodi:nodetypes="ccssc" />
      <path
         id="path3338"
         style="fill:none;fill-rule:evenodd;stroke:#000000;stroke-width:10;stroke-linecap:round;stroke-linejoin:round;stroke-miterlimit:4;stroke-dasharray:none;stroke-opacity:1"
         d="M 400,374.36218 L 582,430.36218 C 643.90419,400.14082 667.57793,388.266 728.9385,366.36218 C 754.08361,363.9284 759.49548,280.72263 798.79636,334.52156 M 800.25221,386.42105 C 799.05071,362.94947 785.39014,329.04046 728.35271,369.43325 C 712.9837,393.23019 718.06078,403.3964 724.9385,412.36218"
         sodipodi:nodetypes="ccccccc" />
      <g
         transform="matrix(-0.7940108,0.6079036,0.6079036,0.7940108,401.17034,-59.240455)"
         id="g3330">
        <path
           sodipodi:nodetypes="ccssc"
           id="path3332"
           d="M 286.96507,340.98043 L 250.28508,318.17943 C 229.22208,340.95306 195.79434,375.24103 189.62109,394.98791 C 148.45955,526.65478 178.16957,456.75612 255.5491,425.71688 C 285.3221,413.77404 287.28372,369.5712 286.96507,340.98043 z"
           style="fill:#ffe680;fill-opacity:1;fill-rule:evenodd;stroke:#000000;stroke-width:5;stroke-linecap:butt;stroke-linejoin:miter;stroke-miterlimit:4;stroke-dasharray:none;stroke-opacity:1" />
        <path
           sodipodi:nodetypes="ccccc"
           id="path3334"
           d="M 274,424.36218 C 262.24158,387.90225 247.01985,354.21297 222,328.36218 C 212,336.36218 192,368.36218 192,368.36218 C 214.17642,386.57139 222.73743,405.60116 237,434.36218 L 274,424.36218 z"
           style="fill:#ffe680;fill-opacity:1;fill-rule:evenodd;stroke:#000000;stroke-width:5;stroke-linecap:butt;stroke-linejoin:miter;stroke-miterlimit:4;stroke-dasharray:none;stroke-opacity:1" />
        <path
           style="fill:#ffe680;fill-opacity:1;fill-rule:evenodd;stroke:#000000;stroke-width:5;stroke-linecap:butt;stroke-linejoin:miter;stroke-miterlimit:4;stroke-dasharray:none;stroke-opacity:1"
           d="M 266.86777,430.5364 C 241.95964,401.43018 231.06653,368.45844 198.01346,354.25455 C 189.38509,355.54572 170.43346,393.75848 171.61549,398.48659 C 199.09842,406.7363 209.87877,424.67535 234.12867,445.71245 L 266.86777,430.5364 z"
           id="path3336"
           sodipodi:nodetypes="ccccc" />
      </g>
      <path
         sodipodi:nodetypes="ccccc"
         id="path3264"
         d="M 250.51783,765.47886 L 252.53813,302.829 L 438.4062,294.74778 L 402.04071,783.66161 L 250.51783,765.47886 z"
         style="fill:#ffe680;fill-opacity:1;fill-rule:evenodd;stroke:#000000;stroke-width:10;stroke-linecap:butt;stroke-linejoin:miter;stroke-miterlimit:4;stroke-dasharray:none;stroke-opacity:1" />
      <path
         id="path3283"
         style="fill:#ffe680;fill-opacity:1;fill-rule:evenodd;stroke:#000000;stroke-width:5;stroke-linecap:butt;stroke-linejoin:miter;stroke-miterlimit:4;stroke-dasharray:none;stroke-opacity:1"
         d="M 440.596,357.94595 C 436.90341,345.46703 442.35608,346.39848 440.51828,336.86986 C 391.95119,335.91678 311.84887,342.25739 246.39545,315.95271 C 239.40194,324.89987 253.92349,354.52225 236.78551,365.43216 C 294.22925,408.34542 392.02891,356.99286 440.596,357.94595 z"
         sodipodi:nodetypes="ccccc" />
      <path
         sodipodi:nodetypes="czz"
         id="path3161"
         d="M 512.32889,233.41786 C 435.33869,445.59481 169.35018,371.95737 245.54765,143.35813 C 321.21228,-83.642526 588.16978,24.408312 512.32889,233.41786 z"
         style="fill:#ffe680;fill-opacity:1;fill-rule:evenodd;stroke:#000000;stroke-width:10;stroke-linecap:butt;stroke-linejoin:miter;stroke-miterlimit:4;stroke-dasharray:none;stroke-opacity:1" />
      <path
         id="path3289"
         style="fill:#ffe680;fill-opacity:1;fill-rule:evenodd;stroke:#000000;stroke-width:5;stroke-linecap:butt;stroke-linejoin:miter;stroke-miterlimit:4;stroke-dasharray:none;stroke-opacity:1"
         d="M 524.00525,98.522719 C 516.71086,76.708924 499.75282,68.130007 495.91495,51.412215 C 410.17637,52.760833 376.5037,119.27061 259.39034,76.889303 C 251.57829,97.815256 250.21435,115.26351 228.86369,120.23995 C 332.88526,192.46084 438.26664,99.871329 524.00525,98.522719 z"
         sodipodi:nodetypes="ccccc" />
      <path
         id="path3295"
         style="fill:#ffe680;fill-opacity:1;fill-rule:evenodd;stroke:#000000;stroke-width:5;stroke-linecap:butt;stroke-linejoin:miter;stroke-miterlimit:4;stroke-dasharray:none;stroke-opacity:1"
         d="M 410.42002,689.83246 C 413.31849,659.16023 428.38112,651.37032 421.48569,635.66469 C 337.51067,653.0175 369.70049,606.79865 246.72892,587.05764 C 237.20503,589.60586 245.32221,634.30166 240.43051,651.76796 C 356.11929,703.2699 326.44498,707.18527 410.42002,689.83246 z"
         sodipodi:nodetypes="ccccc" />
      <path
         id="path3271"
         style="fill:#ffe680;fill-opacity:1;fill-rule:evenodd;stroke:#000000;stroke-width:5;stroke-linecap:butt;stroke-linejoin:miter;stroke-miterlimit:4;stroke-dasharray:none;stroke-opacity:1"
         d="M 432.789,626.09328 C 431.98486,621.26812 433.90768,615.11471 430.64747,613.85614 C 421.97114,610.50673 425.59526,606.87283 428.70451,603.52221 C 433.19378,598.68444 426.56263,591.61615 425.56737,582.45385 C 376.34705,580.73882 310.29255,599.64837 243.95877,552.31469 C 238.30273,552.69613 240.2331,591.1701 227.88201,595.46419 C 286.09839,672.68402 383.56867,624.37826 432.789,626.09328 z"
         sodipodi:nodetypes="csscccc" />
      <path
         id="path3293"
         style="fill:#ffe680;fill-opacity:1;fill-rule:evenodd;stroke:#000000;stroke-width:5;stroke-linecap:butt;stroke-linejoin:miter;stroke-miterlimit:4;stroke-dasharray:none;stroke-opacity:1"
         d="M 232.8253,371.23221 C 242.933,350.81979 225.1324,344.65276 238.27418,333.55997 C 294.84101,379.7835 324.76859,459.78337 430.00011,488.23004 C 436.12775,493.97664 410.2131,511.9768 421.36488,527.12779 C 306.03184,528.9857 289.39213,417.45574 232.8253,371.23221 z"
         sodipodi:nodetypes="ccccc" />
      <path
         sodipodi:nodetypes="ccccc"
         d="M 433.72736,454.71397 C 429.98511,432.2589 435.51111,433.93499 433.64859,416.78883 C 384.42827,415.0738 307.30234,426.48335 240.96856,379.14967 C 233.87082,395.23871 220.82951,418.97064 231.22936,468.18497 C 294.06818,496.86921 387.41935,422.41959 433.72736,454.71397 z"
         style="fill:#ffe680;fill-opacity:1;fill-rule:evenodd;stroke:#000000;stroke-width:5;stroke-linecap:butt;stroke-linejoin:miter;stroke-miterlimit:4;stroke-dasharray:none;stroke-opacity:1"
         id="path3273" />
      <path
         id="path3291"
         style="fill:#ffe680;fill-opacity:1;fill-rule:evenodd;stroke:#000000;stroke-width:5.09534645;stroke-linecap:butt;stroke-linejoin:miter;stroke-miterlimit:4;stroke-dasharray:none;stroke-opacity:1"
         d="M 498.40126,279.53489 C 510.09262,262.1984 529.78229,202.08843 515.98742,188.97344 C 451.72561,262.24815 367.1072,298.13229 230.34827,272.17498 C 231.9694,297.93091 237.81508,315.02243 275.06833,343.53948 C 401.09585,326.80968 434.13942,352.80959 498.40126,279.53489 z"
         sodipodi:nodetypes="ccccc" />
      <path
         id="path3277"
         style="fill:#ffe680;fill-opacity:1;fill-rule:evenodd;stroke:#000000;stroke-width:5;stroke-linecap:butt;stroke-linejoin:miter;stroke-miterlimit:4;stroke-dasharray:none;stroke-opacity:1"
         d="M 239.01702,709.39781 C 242.70961,696.91889 237.25694,697.85034 239.09474,688.32172 C 287.66183,687.36864 351.76415,693.70925 417.21757,667.40457 C 424.21108,676.35173 409.68953,705.97411 426.82751,716.88402 C 369.38377,759.79728 287.58411,708.44472 239.01702,709.39781 z"
         sodipodi:nodetypes="ccccc" />
      <path
         id="path3309"
         style="fill:#ffe680;fill-opacity:1;fill-rule:evenodd;stroke:#000000;stroke-width:5;stroke-linecap:butt;stroke-linejoin:miter;stroke-miterlimit:4;stroke-dasharray:none;stroke-opacity:1"
         d="M 326.44209,765.70066 C 330.31282,757.83185 327.81665,757.80881 330.35367,751.68461 C 351.23578,756.77648 377.39918,768.55361 410.14605,758.76601 C 411.48129,765.54451 399.83884,783.5448 405.13801,792.82546 C 372.74975,814.6097 347.3242,770.79253 326.44209,765.70066 z"
         sodipodi:nodetypes="ccccc" />
      <path
         sodipodi:nodetypes="ccccc"
         d="M 422.47417,763.94605 C 418.78158,751.46713 424.23425,752.39858 422.39645,742.86996 C 373.82936,741.91688 309.72704,748.25749 244.27362,721.95281 C 237.28011,730.89997 251.80166,760.52235 234.66368,771.43226 C 292.10742,814.34552 373.90708,762.99296 422.47417,763.94605 z"
         style="fill:#ffe680;fill-opacity:1;fill-rule:evenodd;stroke:#000000;stroke-width:5;stroke-linecap:butt;stroke-linejoin:miter;stroke-miterlimit:4;stroke-dasharray:none;stroke-opacity:1"
         id="path3279" />
      <path
         sodipodi:nodetypes="ccccc"
         d="M 426.34228,547.28108 C 422.60003,524.82601 439.16592,514.72689 437.3034,497.58073 C 388.08308,495.8657 294.02858,514.77525 227.6948,467.44157 C 222.03876,467.82301 223.96913,506.29698 211.61804,510.59107 C 269.83442,587.8109 377.12195,545.56606 426.34228,547.28108 z"
         style="fill:#ffe680;fill-opacity:1;fill-rule:evenodd;stroke:#000000;stroke-width:5;stroke-linecap:butt;stroke-linejoin:miter;stroke-miterlimit:4;stroke-dasharray:none;stroke-opacity:1"
         id="path3281" />
      <path
         sodipodi:nodetypes="ccccc"
         d="M 541.23478,158.9973 C 529.99111,138.93167 532.42684,123.56562 525.53141,107.85999 C 441.55639,125.2128 347.47714,210.81886 224.50557,191.07785 C 214.98168,193.62607 226.63439,229.73557 206.59041,238.61558 C 322.27919,290.11752 457.25974,176.35011 541.23478,158.9973 z"
         style="fill:#ffe680;fill-opacity:1;fill-rule:evenodd;stroke:#000000;stroke-width:5;stroke-linecap:butt;stroke-linejoin:miter;stroke-miterlimit:4;stroke-dasharray:none;stroke-opacity:1"
         id="path3287" />
      <path
         sodipodi:nodetypes="ccccc"
         d="M 276.7818,54.331468 C 295.46093,41.061907 299.88368,39.586695 313.02546,28.493909 C 369.59229,74.717441 431.84476,152.697 537.07628,181.14367 C 543.20392,186.89027 516.24938,213.95207 527.40116,229.10306 C 412.06812,230.96097 333.34863,100.555 276.7818,54.331468 z"
         style="fill:#ffe680;fill-opacity:1;fill-rule:evenodd;stroke:#000000;stroke-width:5;stroke-linecap:butt;stroke-linejoin:miter;stroke-miterlimit:4;stroke-dasharray:none;stroke-opacity:1"
         id="path3266" />
      <path
         id="path3285"
         style="fill:#ffe680;fill-opacity:1;fill-rule:evenodd;stroke:#000000;stroke-width:5;stroke-linecap:butt;stroke-linejoin:miter;stroke-miterlimit:4;stroke-dasharray:none;stroke-opacity:1"
         d="M 219.03852,180.72385 C 230.60268,161.11506 224.84355,160.69264 232.74521,145.36216 C 279.29187,161.45532 427.16079,285.82713 506.07578,265.50294 C 506.91543,283.06796 476.20873,338.18582 436.69085,348.047 C 328.34333,350.69028 265.58518,196.81702 219.03852,180.72385 z"
         sodipodi:nodetypes="ccccc" />
      <path
         sodipodi:nodetypes="cc"
         id="path3311"
         d="M 286.60715,805.93361 C 270.92759,836.63427 248.22811,838.94571 225,833.79075"
         style="fill:none;fill-rule:evenodd;stroke:#000000;stroke-width:5;stroke-linecap:butt;stroke-linejoin:miter;stroke-miterlimit:4;stroke-dasharray:none;stroke-opacity:1" />
      <path
         sodipodi:nodetypes="ccccccc"
         d="M 245.71429,335.21933 L 153.374,513.54306 C 134.84079,561.4 121.00867,623.36019 108.57143,689.50504 C 87.49524,708.02885 58.768982,713.80255 25.714286,712.36218 M 40.086148,673.86254 C 41.547111,692.37475 100.41335,698.72274 107.42857,686.29075 C 88.50677,683.31466 61.52912,663.86267 77.028,638.04776"
         style="fill:none;fill-rule:evenodd;stroke:#000000;stroke-width:10;stroke-linecap:round;stroke-linejoin:miter;stroke-miterlimit:4;stroke-dasharray:none;stroke-opacity:1"
         id="path3313" />
      <g
         id="g3325">
        <path
           style="fill:#ffe680;fill-opacity:1;fill-rule:evenodd;stroke:#000000;stroke-width:5;stroke-linecap:butt;stroke-linejoin:miter;stroke-miterlimit:4;stroke-dasharray:none;stroke-opacity:1"
           d="M 286.96507,340.98043 L 250.28508,318.17943 C 229.22208,340.95306 195.79434,375.24103 189.62109,394.98791 C 148.45955,526.65478 178.16957,456.75612 255.5491,425.71688 C 285.3221,413.77404 287.28372,369.5712 286.96507,340.98043 z"
           id="path3319"
           sodipodi:nodetypes="ccssc" />
        <path
           style="fill:#ffe680;fill-opacity:1;fill-rule:evenodd;stroke:#000000;stroke-width:5;stroke-linecap:butt;stroke-linejoin:miter;stroke-miterlimit:4;stroke-dasharray:none;stroke-opacity:1"
           d="M 274,424.36218 C 262.24158,387.90225 247.01985,354.21297 222,328.36218 C 212,336.36218 192,368.36218 192,368.36218 C 214.17642,386.57139 222.73743,405.60116 237,434.36218 L 274,424.36218 z"
           id="path3321"
           sodipodi:nodetypes="ccccc" />
        <path
           sodipodi:nodetypes="ccccc"
           id="path3323"
           d="M 266.86777,430.5364 C 241.95964,401.43018 231.06653,368.45844 198.01346,354.25455 C 189.38509,355.54572 170.43346,393.75848 171.61549,398.48659 C 199.09842,406.7363 209.87877,424.67535 234.12867,445.71245 L 266.86777,430.5364 z"
           style="fill:#ffe680;fill-opacity:1;fill-rule:evenodd;stroke:#000000;stroke-width:5;stroke-linecap:butt;stroke-linejoin:miter;stroke-miterlimit:4;stroke-dasharray:none;stroke-opacity:1" />
      </g>
    </g>
    <path
       style="fill:#bea74c;fill-opacity:1;fill-rule:evenodd;stroke:none;stroke-width:1px;stroke-linecap:butt;stroke-linejoin:miter;stroke-opacity:1"
       d="M 437.34909,152.18308 C 443.12141,146.56302 468.40643,172.22006 480.91415,165.89192 C 476.48784,176.5915 471.51715,188.97847 469.93555,202.54693 C 459.93832,192.62727 461.14681,174.85819 437.34909,152.18308 z"
       id="path3400"
       sodipodi:nodetypes="cccc" />
    <path
       style="fill:#bea74c;fill-rule:evenodd;stroke:none;stroke-width:1px;stroke-linecap:butt;stroke-linejoin:miter;stroke-opacity:1;fill-opacity:1"
       d="M 329.51176,786.49003 C 339.88266,779.22576 350.25356,774.41203 360.62446,749.01337 C 366.53945,754.67022 343.43449,806.28902 342.23968,806.28902 C 337.99704,801.95532 333.7544,798.13233 329.51176,786.49003 z"
       id="path3378"
       sodipodi:nodetypes="cccc" />
    <path
       sodipodi:nodetypes="cccc"
       id="path3380"
       d="M 205.01176,810.99003 C 215.38266,803.72576 232.25356,788.41203 245.62446,770.51337 C 249.03945,792.67022 221.43449,820.78902 215.23968,834.28902 C 210.99704,829.95532 209.2544,822.63233 205.01176,810.99003 z"
       style="fill:#bea74c;fill-opacity:1;fill-rule:evenodd;stroke:none;stroke-width:1px;stroke-linecap:butt;stroke-linejoin:miter;stroke-opacity:1" />
    <path
       sodipodi:nodetypes="cccc"
       id="path3382"
       d="M 376.34146,697.49003 C 363.451,697.4695 289.51418,728.72029 245.47876,727.01337 C 259.75866,740.51846 339.52169,712.41255 374.36354,708.78902 C 378.60618,704.45532 372.09882,709.13233 376.34146,697.49003 z"
       style="fill:#bea74c;fill-opacity:1;fill-rule:evenodd;stroke:none;stroke-width:1px;stroke-linecap:butt;stroke-linejoin:miter;stroke-opacity:1" />
    <path
       style="fill:#bea74c;fill-opacity:1;fill-rule:evenodd;stroke:none;stroke-width:1px;stroke-linecap:butt;stroke-linejoin:miter;stroke-opacity:1"
       d="M 221.27522,762.19966 C 231.64612,754.93539 230.83935,760.12776 244.21025,742.2291 C 247.62524,764.38595 231.33399,767.04891 216.65389,777.72048 C 212.41125,773.38678 225.51786,773.84196 221.27522,762.19966 z"
       id="path3384"
       sodipodi:nodetypes="cccc" />
    <path
       sodipodi:nodetypes="cccc"
       id="path3386"
       d="M 333.38499,731.75505 C 345.04373,725.58027 355.81168,721.96614 358.69258,720.30879 C 355.32719,731.87039 363.0642,743.45142 336.09778,740.95092 C 342.85632,734.67437 344.50239,738.97552 333.38499,731.75505 z"
       style="fill:#bea74c;fill-opacity:1;fill-rule:evenodd;stroke:none;stroke-width:1px;stroke-linecap:butt;stroke-linejoin:miter;stroke-opacity:1" />
    <path
       style="fill:#bea74c;fill-opacity:1;fill-rule:evenodd;stroke:none;stroke-width:1px;stroke-linecap:butt;stroke-linejoin:miter;stroke-opacity:1"
       d="M 367.75567,639.51947 C 358.29895,666.96885 287.67431,673.00136 241.47876,654.01337 C 256.21812,668.43737 343.78711,687.92258 370.7275,668.49613 C 368.8434,669.06382 360.43455,653.62456 367.75567,639.51947 z"
       id="path3388"
       sodipodi:nodetypes="cccc" />
    <path
       sodipodi:nodetypes="cccc"
       id="path3390"
       d="M 379.15516,562.76716 C 366.01962,568.71972 266.09072,589.10001 206.73611,554.17527 C 266.27631,611.67103 349.45929,566.83642 383.62699,574.74382 C 373.22366,569.92796 368.55028,571.13502 379.15516,562.76716 z"
       style="fill:#bea74c;fill-opacity:1;fill-rule:evenodd;stroke:none;stroke-width:1px;stroke-linecap:butt;stroke-linejoin:miter;stroke-opacity:1" />
    <path
       sodipodi:nodetypes="cccc"
       id="path3392"
       d="M 388.41252,469.65699 C 378.9558,497.10637 262.83116,509.63888 216.63561,490.65089 C 231.37497,505.07489 349.44396,512.5601 376.38435,493.13365 C 374.50025,493.70134 381.0914,483.76208 388.41252,469.65699 z"
       style="fill:#bea74c;fill-opacity:1;fill-rule:evenodd;stroke:none;stroke-width:1px;stroke-linecap:butt;stroke-linejoin:miter;stroke-opacity:1" />
    <path
       sodipodi:nodetypes="cccc"
       id="path3394"
       d="M 395.07294,243.52264 C 405.44384,236.25837 433.06474,264.19464 451.43564,249.79598 C 454.59714,267.25351 391.11819,321.86798 391.80086,313.82163 C 415.11926,300.71851 430.37772,245.28153 395.07294,243.52264 z"
       style="fill:#bea74c;fill-opacity:1;fill-rule:evenodd;stroke:none;stroke-width:1px;stroke-linecap:butt;stroke-linejoin:miter;stroke-opacity:1" />
    <path
       style="fill:#bea74c;fill-opacity:1;fill-rule:evenodd;stroke:none;stroke-width:1px;stroke-linecap:butt;stroke-linejoin:miter;stroke-opacity:1"
       d="M 196.88561,157.85388 C 205.3552,132.04971 302.11695,310.70536 367.41252,297.85998 C 310.27643,307.46079 219.06263,135.99931 201.91378,149.87722 C 203.79788,149.30953 204.20673,143.74879 196.88561,157.85388 z"
       id="path3396"
       sodipodi:nodetypes="cccc" />
    <path
       style="fill:#bea74c;fill-opacity:1;fill-rule:evenodd;stroke:none;stroke-width:1px;stroke-linecap:butt;stroke-linejoin:miter;stroke-opacity:1"
       d="M 385.53752,413.22888 C 350.49084,375.37269 239.62418,452.43863 217.13561,428.35998 C 226.50334,436.18989 350.78126,377.91052 384.63435,398.62722 C 383.96816,401.7124 383.29557,403.92879 385.53752,413.22888 z"
       id="path3398"
       sodipodi:nodetypes="cccc" />
    <path
       sodipodi:nodetypes="cccc"
       id="path3402"
       d="M 414.80521,123.1766 C 415.19842,115.12985 467.68792,112.66987 472.52701,99.5142 C 477.94416,101.48001 472.95275,122.50436 482.97738,137.31878 C 468.90092,126.29124 447.67395,111.4849 414.80521,123.1766 z"
       style="fill:#bea74c;fill-opacity:1;fill-rule:evenodd;stroke:none;stroke-width:1px;stroke-linecap:butt;stroke-linejoin:miter;stroke-opacity:1" />
    <path
       style="fill:#bea74c;fill-opacity:1;fill-rule:evenodd;stroke:none;stroke-width:1px;stroke-linecap:butt;stroke-linejoin:miter;stroke-opacity:1"
       d="M 366.80521,70.6766 C 367.19842,62.62985 436.68792,58.66987 441.52701,45.5142 C 446.94416,47.48001 447.45275,59.50436 465.97738,75.81878 C 445.90092,68.79124 396.67395,70.9849 366.80521,70.6766 z"
       id="path3404"
       sodipodi:nodetypes="cccc" />
  </g>
</svg>
