<svg width="90" height="90" xmlns="http://www.w3.org/2000/svg">

 <metadata id="metadata3325">image/svg+xml</metadata>
 <g>
  <title>Layer 1</title>
  <g id="layer1">
   <g id="g2685">
    <path fill="#ffffff" fill-rule="evenodd" stroke="#000000" stroke-width="1px" d="m6.65403,57.837769c4.136841,-4.653931 16.547363,-37.748657 16.547363,-37.748657l-0.517105,-10.342102l12.410515,4.136841l6.205261,-5.688141l4.653942,9.824982l18.61578,6.722382l12.92762,22.235504l3.102631,26.372345l-1.03421,6.722366l-49.124966,0l10.342098,-17.581558l3.619736,-14.996033l-8.790787,3.61972l-12.410515,13.961823l-3.619736,-1.03421l-1.03421,-3.102631l-5.171051,2.06842l-6.722366,-5.171051z" id="path2683"/>
    <path fill="#000000" stroke-width="1pt" d="m14.295189,51.830475c1.204933,0 1.807404,0.817627 1.807404,2.452881c0,2.151703 -1.075836,3.227539 -3.227516,3.227539c-0.860649,0 -1.290985,-0.688538 -1.290985,-2.065613c0,-2.409882 0.903687,-3.614807 2.711098,-3.614807m9.295197,-15.750183c-1.204926,0 -1.807404,-0.731567 -1.807404,-2.194702c0,-2.323792 1.377068,-4.217255 4.131207,-5.680389c1.204922,-0.602478 2.323792,-0.903687 3.356594,-0.903687c1.807388,0 2.797146,0.602448 2.969296,1.807404c0,1.979523 -1.54921,3.872986 -4.647598,5.680359c-1.54921,0.860687 -2.883221,1.291016 -4.002094,1.291016m1.032806,-24.270782c0.344261,1.204926 0.516388,2.022583 0.516388,2.452881c0,0.258209 -0.129089,0.946747 -0.387299,2.065613c1.37706,0 3.270546,-0.688538 5.680389,-2.065613c-2.323792,-1.204926 -4.260292,-2.022552 -5.809479,-2.452881m-15.3629,44.41037c0.516411,2.065582 1.893456,3.571777 4.131195,4.518494c0.860672,0.344269 1.678299,0.516388 2.452888,0.516388l0.258217,0c0.172127,0 1.118858,-0.516388 2.840195,-1.549194c0.516388,-0.344269 0.946732,-0.516388 1.291,-0.516388l0.516388,0c0.430336,0 0.645523,0.258179 0.645523,0.774597l-0.774605,2.452881c0,0.774597 0.602455,1.161896 1.807388,1.161896c0.172134,0 1.247978,-1.506165 3.227509,-4.518494c3.786919,-5.852509 9.16608,-10.284943 16.137489,-13.297272c0.688519,-4.647614 2.409859,-8.735748 5.163979,-12.264496c0.688541,-0.946747 1.377071,-1.420105 2.065601,-1.420105c0.774609,0 1.161911,0.559448 1.161911,1.678284c0,0.25824 -0.774601,2.711121 -2.323803,7.358704c-0.602467,1.979523 -0.903709,3.442688 -0.903709,4.389404c0,0.258209 0.086071,0.817627 0.258221,1.678314c0,6.110718 -2.58202,12.522675 -7.745998,19.23587c-3.44268,4.647614 -5.336132,8.34848 -5.680412,11.10257l42.602959,0c0.344284,-3.959045 0.516411,-6.885315 0.516411,-8.778748c0,-17.729736 -5.551277,-31.887695 -16.653889,-42.473877c-3.356598,-3.098419 -6.067699,-4.647614 -8.133278,-4.647614l-7.746002,0c-0.688541,-0.344269 -1.377079,-2.065613 -2.065601,-5.163971c-0.516388,-2.495941 -1.161888,-4.045166 -1.936497,-4.647614c-1.03281,3.098389 -4.217262,5.50827 -9.553391,7.229584c-2.840191,0.860657 -4.819733,1.721344 -5.938602,2.582001c-0.946732,3.012329 -3.743896,9.123077 -8.391495,18.332184c-4.561523,9.123047 -6.971405,14.545258 -7.229591,16.266602m72.295952,26.078171l-54.092865,0c0.344261,-5.938583 2.581989,-11.618973 6.713192,-17.041183c3.184467,-4.303345 5.077938,-6.928375 5.680408,-7.875092c1.204922,-1.893463 1.936501,-4.174225 2.194691,-6.842285c-5.59433,2.409851 -9.940701,5.852509 -13.039082,10.328003l-1.807407,2.969299c-1.290993,2.065582 -2.108639,3.227478 -2.4529,3.485687c-0.516396,0.430328 -1.075821,0.645477 -1.678299,0.645477c-2.668053,0 -4.475464,-0.903687 -5.42218,-2.71109c-0.17215,-0.258209 -0.258217,-0.559418 -0.258217,-0.903687c-0.860664,0.430328 -1.721329,0.645477 -2.582001,0.645477c-4.131195,0 -7.401726,-2.582001 -9.811584,-7.746002c0.68853,-3.786926 4.303329,-12.522675 10.844376,-26.207245c0.688545,-1.291016 1.204956,-2.323822 1.54921,-3.098419c2.582001,-5.766479 3.873001,-10.112823 3.873001,-13.039093c0,-0.430328 -0.258186,-2.840179 -0.774605,-7.229584l1.032806,0c4.647591,0 9.080032,1.463135 13.297283,4.389404c2.323799,-4.045135 4.260288,-6.067719 5.809498,-6.067719c2.754131,1.463135 4.647591,3.528748 5.680389,6.196808l1.420113,4.260315c0.860649,-0.17215 1.592228,-0.258209 2.194691,-0.258209c6.885338,0 13.684597,4.389374 20.397785,13.168182c7.832062,10.241913 11.748085,24.270782 11.748085,42.086578c0,4.045105 -0.172119,7.659912 -0.516388,10.844376" id="path1693"/>
   </g>
  </g>
 </g>
</svg>