<?xml version="1.0" encoding="UTF-8" standalone="no"?>
<!-- Created with Inkscape (http://www.inkscape.org/) -->
<svg xmlns:dc="http://purl.org/dc/elements/1.1/" xmlns:cc="http://creativecommons.org/ns#" xmlns:rdf="http://www.w3.org/1999/02/22-rdf-syntax-ns#" xmlns:svg="http://www.w3.org/2000/svg" xmlns="http://www.w3.org/2000/svg" xmlns:xlink="http://www.w3.org/1999/xlink" xmlns:sodipodi="http://sodipodi.sourceforge.net/DTD/sodipodi-0.dtd" xmlns:inkscape="http://www.inkscape.org/namespaces/inkscape" inkscape:export-ydpi="72.000000" inkscape:export-xdpi="72.000000" inkscape:export-filename="P:\tmp\Cliparts Stocker\grape.png" sodipodi:docbase="/datas/Projs/Cliparts Stocker" sodipodi:docname="grape.svg" height="382" width="378" inkscape:version="0.46" sodipodi:version="0.32" id="svg1" inkscape:output_extension="org.inkscape.output.svg.inkscape" version="1.0">
  <defs id="defs3">
    <linearGradient id="linearGradient5521">
      <stop id="stop5522" offset="0.00000000" style="stop-color: rgb(55, 54, 32); stop-opacity: 0.783505;"/>
      <stop id="stop5523" offset="1.0000000" style="stop-color: rgb(108, 54, 32); stop-opacity: 0;"/>
    </linearGradient>
    <linearGradient id="linearGradient3606">
      <stop id="stop3607" offset="0.00000000" style="stop-color: rgb(153, 60, 13); stop-opacity: 0.546392;"/>
      <stop id="stop3608" offset="1.0000000" style="stop-color: rgb(145, 113, 60); stop-opacity: 0.268041;"/>
    </linearGradient>
    <linearGradient id="linearGradient3592">
      <stop id="stop3593" offset="0.00000000" style="stop-color: rgb(166, 126, 13); stop-opacity: 0.886598;"/>
      <stop id="stop3594" offset="1.0000000" style="stop-color: rgb(75, 150, 54); stop-opacity: 0.350515;"/>
    </linearGradient>
    <linearGradient id="linearGradient6743">
      <stop id="stop6744" offset="0.00000000" style="stop-color: rgb(0, 0, 0); stop-opacity: 0.350515;"/>
      <stop id="stop6745" offset="1.0000000" style="stop-color: rgb(255, 255, 255); stop-opacity: 0.0103093;"/>
    </linearGradient>
    <radialGradient fy="42.363293" fx="428.58792" r="162.68639" cy="42.363293" cx="428.58792" id="radialGradient6779" xlink:href="#linearGradient3606" inkscape:collect="always" gradientTransform="scale(1.08989, 0.917521)" gradientUnits="userSpaceOnUse"/>
    <linearGradient inkscape:collect="always" xlink:href="#linearGradient5521" id="linearGradient2497" gradientUnits="userSpaceOnUse" gradientTransform="matrix(1.44534, 0, 0, 0.691878, -205.979, 12.8022)" x1="191.51221" y1="137.63773" x2="263.30365" y2="85.967514"/>
    <linearGradient inkscape:collect="always" xlink:href="#linearGradient6743" id="linearGradient2537" gradientUnits="userSpaceOnUse" gradientTransform="matrix(1.14249, 0, 0, 0.875284, -205.979, 12.8022)" x1="476.08044" y1="120.73062" x2="215.71841" y2="0.12174316"/>
    <radialGradient inkscape:collect="always" xlink:href="#linearGradient3592" id="radialGradient2540" gradientUnits="userSpaceOnUse" gradientTransform="matrix(1.14249, 0, 0, 0.875284, -205.979, 12.8022)" cx="368.87253" cy="67.735809" fx="368.87253" fy="67.735809" r="173.74844"/>
    <radialGradient inkscape:collect="always" xlink:href="#linearGradient3606" id="radialGradient2547" gradientUnits="userSpaceOnUse" gradientTransform="matrix(1.45058, -1.25148, 1.28913, 0.783073, 228.882, 92.1037)" cx="93.08194" cy="85.563026" fx="93.08194" fy="85.563026" r="43.404472"/>
    <radialGradient inkscape:collect="always" xlink:href="#linearGradient3606" id="radialGradient2553" gradientUnits="userSpaceOnUse" gradientTransform="matrix(3.21838, -2.77663, 0.581034, 0.352946, 228.882, 92.1037)" cx="42.075481" cy="147.22832" fx="42.075481" fy="147.22832" r="19.707121"/>
    <radialGradient inkscape:collect="always" xlink:href="#linearGradient3606" id="radialGradient2559" gradientUnits="userSpaceOnUse" gradientTransform="matrix(0.388564, -0.335231, 4.81256, 2.92336, 228.882, 92.1037)" cx="253.93118" cy="26.283463" fx="253.93118" fy="26.283463" r="24.036863"/>
    <radialGradient inkscape:collect="always" xlink:href="#linearGradient3606" id="radialGradient2565" gradientUnits="userSpaceOnUse" gradientTransform="matrix(1.091, -0.941256, 1.714, 1.04116, 228.882, 92.1037)" cx="62.222832" cy="67.766708" fx="62.222832" fy="67.766708" r="45.731022"/>
    <radialGradient inkscape:collect="always" xlink:href="#linearGradient3606" id="radialGradient2571" gradientUnits="userSpaceOnUse" gradientTransform="matrix(3.58175, -3.09013, 0.522087, 0.317139, 228.882, 92.1037)" cx="17.183601" cy="175.21744" fx="17.183601" fy="175.21744" r="17.116695"/>
    <radialGradient inkscape:collect="always" xlink:href="#linearGradient3592" id="radialGradient3770" gradientUnits="userSpaceOnUse" gradientTransform="matrix(1.14249, 0, 0, 0.875284, -205.979, 12.8022)" cx="368.87253" cy="67.735809" fx="368.87253" fy="67.735809" r="173.74844"/>
    <linearGradient inkscape:collect="always" xlink:href="#linearGradient6743" id="linearGradient3772" gradientUnits="userSpaceOnUse" gradientTransform="matrix(1.14249, 0, 0, 0.875284, -205.979, 12.8022)" x1="476.08044" y1="120.73062" x2="215.71841" y2="0.12174316"/>
    <radialGradient inkscape:collect="always" xlink:href="#linearGradient3606" id="radialGradient3774" gradientUnits="userSpaceOnUse" gradientTransform="matrix(0.388564, -0.335231, 4.81256, 2.92336, 228.882, 92.1037)" cx="253.93118" cy="26.283463" fx="253.93118" fy="26.283463" r="24.036863"/>
    <radialGradient inkscape:collect="always" xlink:href="#linearGradient3606" id="radialGradient3776" gradientUnits="userSpaceOnUse" gradientTransform="matrix(1.45058, -1.25148, 1.28913, 0.783073, 228.882, 92.1037)" cx="93.08194" cy="85.563026" fx="93.08194" fy="85.563026" r="43.404472"/>
    <radialGradient inkscape:collect="always" xlink:href="#linearGradient3606" id="radialGradient3778" gradientUnits="userSpaceOnUse" gradientTransform="matrix(3.21838, -2.77663, 0.581034, 0.352946, 228.882, 92.1037)" cx="42.075481" cy="147.22832" fx="42.075481" fy="147.22832" r="19.707121"/>
    <radialGradient inkscape:collect="always" xlink:href="#linearGradient3606" id="radialGradient3780" gradientUnits="userSpaceOnUse" gradientTransform="matrix(3.58175, -3.09013, 0.522087, 0.317139, 228.882, 92.1037)" cx="17.183601" cy="175.21744" fx="17.183601" fy="175.21744" r="17.116695"/>
    <radialGradient inkscape:collect="always" xlink:href="#linearGradient3606" id="radialGradient3782" gradientUnits="userSpaceOnUse" gradientTransform="matrix(1.091, -0.941256, 1.714, 1.04116, 228.882, 92.1037)" cx="62.222832" cy="67.766708" fx="62.222832" fy="67.766708" r="45.731022"/>
    <radialGradient inkscape:collect="always" xlink:href="#linearGradient3606" id="radialGradient3784" gradientUnits="userSpaceOnUse" gradientTransform="scale(1.08989, 0.917521)" cx="428.58792" cy="42.363293" fx="428.58792" fy="42.363293" r="162.68639"/>
    <linearGradient inkscape:collect="always" xlink:href="#linearGradient5521" id="linearGradient3786" gradientUnits="userSpaceOnUse" gradientTransform="matrix(1.44534, 0, 0, 0.691878, -205.979, 12.8022)" x1="191.51221" y1="137.63773" x2="263.30365" y2="85.967514"/>
  </defs>
  <sodipodi:namedview inkscape:current-layer="svg1" inkscape:window-y="-4" inkscape:window-x="-4" inkscape:window-height="1003" inkscape:window-width="1680" inkscape:cy="191" inkscape:cx="189" inkscape:zoom="2.1125654" inkscape:pageshadow="2" inkscape:pageopacity="0.0" borderopacity="1.0" bordercolor="#666666" pagecolor="#ffffff" id="base" showgrid="false"/>
  <metadata id="metadata4">
    <rdf:RDF>
      <cc:Work rdf:about="">
        <dc:format>image/svg+xml</dc:format>
        <dc:type rdf:resource="http://purl.org/dc/dcmitype/StillImage"/>
        <dc:title>Grape</dc:title>
        <dc:date>2004-08-04</dc:date>
        <dc:creator>
          <cc:Agent>
            <dc:title>Jean-Victor Balin</dc:title>
          </cc:Agent>
        </dc:creator>
        <dc:description>jean.victor.balin@gmail.com</dc:description>
        <cc:license rdf:resource="http://creativecommons.org/licenses/publicdomain/"/>
        <dc:language>fr-FR</dc:language>
        <dc:subject>
          <rdf:Bag>
            <rdf:li>food</rdf:li>
            <rdf:li>wine</rdf:li>
            <rdf:li>grape</rdf:li>
            <rdf:li>alcool</rdf:li>
            <rdf:li>fruit</rdf:li>
          </rdf:Bag>
        </dc:subject>
      </cc:Work>
      <cc:License rdf:about="http://creativecommons.org/licenses/publicdomain/">
        <cc:permits rdf:resource="http://creativecommons.org/ns#Reproduction"/>
        <cc:permits rdf:resource="http://creativecommons.org/ns#Distribution"/>
        <cc:permits rdf:resource="http://creativecommons.org/ns#DerivativeWorks"/>
      </cc:License>
    </rdf:RDF>
  </metadata>
  <g id="g3682" transform="translate(-3.20091e-06, 0.0341624)">
    <path sodipodi:nodetypes="ccccccccccccccccccccccccccccccccccccccccccccccccccccc" id="path5" d="M 201.29571,85.420022 C 183.29674,91.414558 168.24447,81.036979 150.85987,76.820639 C 142.86355,76.9264 134.88763,79.973443 134.29803,84.464066 C 128.05766,88.198767 113.28358,91.862863 112.54732,95.643113 C 123.51315,98.154711 127.03113,105.03353 118.20375,111.14231 C 112.14932,116.73583 104.17476,122.74371 118.55904,123.92649 C 122.8557,127.50533 116.30398,141.27482 121.20028,141.22669 C 131.24081,138.52507 124.71452,148.84652 131.83988,151.21013 C 133.94798,155.26421 130.31814,166.26903 140.28285,158.89973 C 148.66657,152.6002 165.23318,144.51292 174.27953,145.71587 C 169.41246,151.52269 160.901,156.53689 162.07385,163.96858 C 160.00529,169.19945 162.57915,169.30778 167.59729,171.24951 C 166.51138,177.46402 175.20189,193.72795 185.14156,184.72119 C 194.40705,181.67901 192.9936,197.50091 204.61535,195.50177 C 215.01446,190.83545 221.42304,201.22605 228.67016,201.87715 C 232.92871,194.39714 239.95254,197.92857 245.63034,202.49649 C 253.90883,196.95906 270.41263,209.18112 273.10377,203.11039 C 273.00867,196.77806 266.52845,188.275 275.36535,185.82675 C 268.18402,180.29261 261.73484,174.15179 259.84328,166.3652 C 259.21028,158.91966 263.77392,175.06729 268.95163,167.63329 C 276.60218,168.54377 284.96235,178.69017 291.19702,176.07832 C 296.3899,172.59206 300.48605,160.40774 307.15413,168.62136 C 313.19114,172.60432 319.70527,180.84424 323.17705,171.12975 C 327.42439,176.30539 340.61453,179.25721 343.4671,171.47152 C 350.45984,171.71037 364.92164,181.02128 365.08354,172.96325 C 366.15921,165.20387 370.76803,156.94026 364.97025,150.34485 C 372.92124,146.70688 359.70686,139.24034 361.55902,133.06921 C 357.1911,127.14894 362.35536,124.10392 367.98523,120.32525 C 361.41534,116.0627 348.82247,111.7453 346.02176,107.51705 C 351.71003,103.20541 369.66133,100.33919 358.04629,93.988025 C 354.39125,89.210363 343.61893,82.484361 344.43819,78.931512 C 355.60626,78.626484 360.34508,71.618716 364.51491,66.494247 C 369.23348,62.818108 385.74794,59.321824 372.92341,55.485558 C 353.80311,44.197478 337.81478,28.300056 312.58834,24.017712 C 317.43247,14.467147 291.93525,11.219393 287.59531,18.203529 C 281.41989,25.045374 283.62034,6.747072 281.24438,3.010866 C 282.10427,-5.1710371 272.91795,6.8099321 265.5663,4.5212749 C 257.89961,2.8692932 254.10097,6.838936 249.3598,9.2971659 C 243.2348,-0.16608158 235.11159,15.702629 230.03636,15.874885 C 227.30512,9.0499528 221.92097,9.8719285 217.05794,15.386085 C 212.81495,18.509309 209.13848,22.34554 206.06909,19.900964 C 204.38275,28.515776 197.38945,27.972739 189.60049,23.374596 C 184.49284,28.964555 184.11517,36.782937 183.70808,42.005654 C 171.96442,44.331874 181.64304,58.222391 191.72285,58.760024 C 201.50152,61.077876 212.14843,67.213234 210.87612,75.066091 C 208.40153,80.225133 206.82121,82.311048 201.29571,85.420022 z M 290.84668,84.475422 C 293.87621,77.479439 323.30341,80.977612 308.43274,85.979812 C 302.72779,87.754223 295.72981,87.382263 290.84668,84.475422 z M 238.4244,142.87086 C 243.76423,140.67794 251.86692,135.12749 248.52687,143.48271 C 247.88653,147.11029 249.38227,155.98622 244.32278,148.75582 C 242.35665,146.79416 240.39053,144.83252 238.4244,142.87086 z" style="fill: rgb(88, 127, 74); fill-opacity: 1; stroke: none;"/>
    <path sodipodi:nodetypes="ccccccccccccccccccccccccccccccccccccccccccccccccccccc" id="path2960" d="M 201.2957,85.420026 C 183.29673,91.414561 168.24446,81.036983 150.85987,76.820643 C 142.86355,76.926404 134.88763,79.973447 134.29802,84.46407 C 128.05766,88.19877 113.28358,91.862867 112.54731,95.643116 C 123.51314,98.154714 127.03112,105.03354 118.20374,111.14232 C 112.14931,116.73583 104.17475,122.74371 118.55904,123.92649 C 122.8557,127.50533 116.30397,141.27482 121.20027,141.22669 C 131.2408,138.52507 124.71452,148.84652 131.83988,151.21013 C 133.94797,155.26422 130.31813,166.26903 140.28285,158.89973 C 148.66657,152.6002 165.23317,144.51292 174.27952,145.71587 C 169.41246,151.5227 160.90099,156.53689 162.07385,163.96858 C 160.00528,169.19945 162.57915,169.30779 167.59728,171.24951 C 166.51137,177.46402 175.20188,193.72795 185.14156,184.72119 C 194.40704,181.67901 192.9936,197.50092 204.61534,195.50177 C 215.01446,190.83545 221.42304,201.22605 228.67016,201.87715 C 232.92871,194.39714 239.95253,197.92857 245.63033,202.49649 C 253.90882,196.95906 270.41262,209.18112 273.10377,203.11039 C 273.00866,196.77807 266.52844,188.275 275.36535,185.82675 C 268.18402,180.29261 261.73484,174.1518 259.84328,166.3652 C 259.21028,158.91966 263.77392,175.06729 268.95162,167.63329 C 276.60218,168.54377 284.96235,178.69017 291.19702,176.07833 C 296.38989,172.59206 300.48605,160.40774 307.15413,168.62136 C 313.19114,172.60432 319.70526,180.84424 323.17705,171.12975 C 327.42439,176.30539 340.61453,179.25721 343.4671,171.47152 C 350.45984,171.71037 364.92163,181.02128 365.08354,172.96325 C 366.15921,165.20387 370.76803,156.94026 364.97024,150.34485 C 372.92124,146.70688 359.70686,139.24034 361.55902,133.06921 C 357.19109,127.14894 362.35536,124.10392 367.98522,120.32525 C 361.41534,116.0627 348.82247,111.7453 346.02176,107.51705 C 351.71003,103.20541 369.66132,100.3392 358.04628,93.988028 C 354.39125,89.210366 343.61893,82.484364 344.43818,78.931516 C 355.60626,78.626487 360.34507,71.618719 364.51491,66.494251 C 369.23347,62.818112 385.74793,59.321827 372.92341,55.485562 C 353.80311,44.197481 337.81477,28.30006 312.58833,24.017715 C 317.43246,14.467151 291.93524,11.219397 287.59531,18.203532 C 281.41988,25.045378 283.62034,6.7470754 281.24437,3.0108694 C 282.10427,-5.171034 272.91794,6.8099354 265.56629,4.5212784 C 257.8996,2.8692974 254.10097,6.8389394 249.35979,9.2971694 C 243.2348,-0.166078 235.11159,15.702632 230.03635,15.874888 C 227.30511,9.0499564 221.92097,9.8719324 217.05793,15.386089 C 212.81494,18.509312 209.13848,22.345544 206.06909,19.900967 C 204.38274,28.51578 197.38945,27.972743 189.60048,23.374599 C 184.49284,28.964558 184.11516,36.782941 183.70808,42.005657 C 171.96442,44.331877 181.64304,58.222395 191.72285,58.760027 C 201.50152,61.077879 212.14843,67.213238 210.87612,75.066095 C 208.40153,80.225137 206.8212,82.311051 201.2957,85.420026 z M 290.84667,84.475426 C 293.87621,77.479442 323.3034,80.977616 308.43274,85.979816 C 302.72779,87.754227 295.72981,87.382267 290.84667,84.475426 z M 238.42439,142.87086 C 243.76422,140.67794 251.86691,135.1275 248.52686,143.48271 C 247.88653,147.11029 249.38226,155.98622 244.32278,148.75582 C 242.35664,146.79416 240.39053,144.83252 238.42439,142.87086 z" style="fill: url(#radialGradient3770) rgb(0, 0, 0); fill-opacity: 1; stroke: none;"/>
    <path sodipodi:nodetypes="ccccccccccccccccccccccccccccccccccccccccccccccccccccc" id="path4264" d="M 201.2957,85.420025 C 183.29673,91.414565 168.24446,81.036985 150.85987,76.820645 C 142.86355,76.926405 134.88763,79.973445 134.29802,84.464075 C 128.05766,88.198775 113.28358,91.862865 112.54731,95.643125 C 123.51314,98.154725 127.03112,105.03355 118.20374,111.14232 C 112.14931,116.73583 104.17475,122.74371 118.55904,123.92649 C 122.8557,127.50533 116.30397,141.27482 121.20027,141.22669 C 131.2408,138.52507 124.71452,148.84652 131.83988,151.21013 C 133.94797,155.26422 130.31813,166.26903 140.28285,158.89973 C 148.66657,152.6002 165.23317,144.51292 174.27952,145.71587 C 169.41246,151.5227 160.90099,156.53689 162.07385,163.96858 C 160.00528,169.19945 162.57915,169.30779 167.59728,171.24951 C 166.51137,177.46402 175.20188,193.72795 185.14156,184.72119 C 194.40704,181.67901 192.9936,197.50092 204.61534,195.50177 C 215.01446,190.83545 221.42304,201.22605 228.67016,201.87715 C 232.92871,194.39714 239.95253,197.92857 245.63033,202.49649 C 253.90882,196.95906 270.41262,209.18112 273.10377,203.11039 C 273.00866,196.77807 266.52844,188.275 275.36535,185.82675 C 268.18402,180.29261 261.73484,174.1518 259.84328,166.3652 C 259.21028,158.91966 263.77392,175.06729 268.95162,167.63329 C 276.60218,168.54377 284.96235,178.69017 291.19702,176.07833 C 296.38989,172.59206 300.48605,160.40774 307.15413,168.62136 C 313.19114,172.60432 319.70526,180.84424 323.17705,171.12975 C 327.42439,176.30539 340.61453,179.25721 343.4671,171.47152 C 350.45984,171.71037 364.92163,181.02128 365.08354,172.96325 C 366.15921,165.20387 370.76803,156.94026 364.97024,150.34485 C 372.92124,146.70688 359.70686,139.24034 361.55902,133.06921 C 357.19109,127.14894 362.35536,124.10392 367.98522,120.32525 C 361.41534,116.0627 348.82247,111.74532 346.02176,107.51705 C 351.71003,103.20542 369.66132,100.3392 358.04628,93.988035 C 354.39125,89.210365 343.61893,82.484365 344.43818,78.931515 C 355.60626,78.626485 360.34507,71.618715 364.51491,66.494255 C 369.23347,62.818115 385.74793,59.321825 372.92341,55.485565 C 353.80311,44.197485 337.81477,28.300065 312.58833,24.017715 C 317.43246,14.467155 291.93524,11.219395 287.59531,18.203535 C 281.41988,25.045375 283.62034,6.7470752 281.24437,3.0108652 C 282.10427,-5.171035 272.91794,6.8099352 265.56629,4.5212752 C 257.8996,2.8692952 254.10097,6.8389352 249.35979,9.2971752 C 243.2348,-0.166075 235.11159,15.702635 230.03635,15.874885 C 227.30511,9.0499552 221.92097,9.8719352 217.05793,15.386095 C 212.81494,18.509315 209.13848,22.345545 206.06909,19.900965 C 204.38274,28.515785 197.38945,27.972745 189.60048,23.374595 C 184.49284,28.964555 184.11516,36.782945 183.70808,42.005655 C 171.96442,44.331875 181.64304,58.222395 191.72285,58.760025 C 201.50152,61.077875 212.14843,67.213235 210.87612,75.066095 C 208.40153,80.225135 206.8212,82.311055 201.2957,85.420025 z M 290.84667,84.475425 C 293.87621,77.479445 323.3034,80.977615 308.43274,85.979815 C 302.72779,87.754225 295.72981,87.382265 290.84667,84.475425 z M 238.42439,142.87086 C 243.76422,140.67794 251.86691,135.1275 248.52686,143.48271 C 247.88653,147.11029 249.38226,155.98622 244.32278,148.75582 C 242.35664,146.79416 240.39053,144.83252 238.42439,142.87086 z" style="fill: url(#linearGradient3772) rgb(0, 0, 0); fill-opacity: 1; stroke: none;"/>
    <path id="path4322" d="M 143.10776,134.23268 L 283.45149,201.38253 L 283.45149,201.38253 L 311.93453,353.09145 L 136.37541,291.41307 L 148.2865,275.99348 L 123.94645,265.05054 L 63.87312,232.22172 L 143.10776,134.23268 z" style="fill: rgb(0, 0, 0); fill-opacity: 1; fill-rule: evenodd; stroke: none; stroke-width: 1pt; stroke-linecap: butt; stroke-linejoin: miter; stroke-opacity: 1;"/>
    <g transform="translate(-205.979, 12.8022)" style="fill: none; stroke: url(#radialGradient3784) rgb(0, 0, 0); stroke-width: 1.25; marker-end: none; stroke-miterlimit: 4; stroke-opacity: 1;" id="g3595">
      <path id="path1321" d="M 416.10346,68.917774 C 415.86909,69.127677 415.7804,69.403724 415.86278,69.666956 C 415.94516,69.930188 416.18953,70.151612 416.52599,70.267892 C 461.52073,86.498668 530.25054,118.52341 559.21645,148.59965 C 559.59996,149.00743 560.36748,149.11293 560.93076,148.8353 C 561.49404,148.55766 561.63978,148.00203 561.25627,147.59426 C 531.7248,116.93079 462.88327,85.018773 417.63278,68.695741 C 417.11581,68.492793 416.47236,68.586212 416.10346,68.917774 L 416.10346,68.917774 z" style="fill: url(#radialGradient3774) rgb(0, 0, 0); fill-opacity: 1; fill-rule: evenodd; stroke: none; stroke-linecap: round; stroke-linejoin: round; stroke-opacity: 1;"/>
      <path id="path1322" d="M 416.74157,69.190286 C 416.45261,69.54674 416.54441,70.000653 416.96239,70.282182 C 417.38036,70.563711 418.01236,70.597313 418.48267,70.363012 C 459.4494,53.892069 510.59279,43.497178 557.56004,46.189603 C 558.23378,46.233343 558.82893,45.873413 558.88935,45.385676 C 558.94978,44.897939 558.45258,44.467092 557.77885,44.423352 C 510.18263,41.694868 458.59683,52.192794 417.25796,68.813359 C 417.03643,68.89762 416.85613,69.029227 416.74157,69.190286 L 416.74157,69.190286 z" style="fill: url(#radialGradient3776) rgb(0, 0, 0); fill-opacity: 1; fill-rule: evenodd; stroke: none; stroke-linecap: round; stroke-linejoin: round; stroke-opacity: 1;"/>
      <path id="path1323" d="M 460.55955,13.279961 C 441.40716,29.718938 425.60388,48.208175 416.37586,69.025692 C 416.18203,69.495955 416.5515,69.990932 417.2011,70.131255 C 417.8507,70.271578 418.53444,70.004108 418.72828,69.533845 C 430.8742,42.133809 454.54738,18.822381 482.45224,-1.2182983 C 482.93615,-1.5600326 482.94577,-2.1210505 482.47371,-2.471367 C 482.00165,-2.8216835 481.22669,-2.8286407 480.74277,-2.4869064 C 473.72089,2.5560667 466.94367,7.8003018 460.55955,13.279961 z" style="fill: url(#radialGradient3778) rgb(0, 0, 0); fill-opacity: 1; fill-rule: evenodd; stroke: none; stroke-linecap: round; stroke-linejoin: round; stroke-opacity: 1;"/>
      <path id="path1324" d="M 374.8169,97.130171 C 362.93138,108.16647 353.49272,120.5743 347.59646,133.71431 C 347.43,134.01968 347.51165,134.36671 347.80836,134.61497 C 348.10508,134.86323 348.56773,134.97162 349.00911,134.89627 C 349.45048,134.82092 349.7975,134.57431 349.90973,134.25624 C 361.5067,108.412 387.21367,85.432915 418.01616,70.079632 C 418.56656,69.794175 418.69309,69.239762 418.29877,68.841316 C 417.90445,68.442869 417.13861,68.351273 416.58821,68.636729 C 400.9809,76.416084 386.70242,86.093874 374.8169,97.130171 z" style="fill: url(#radialGradient3780) rgb(0, 0, 0); fill-opacity: 1; fill-rule: evenodd; stroke: none; stroke-linecap: round; stroke-linejoin: round; stroke-opacity: 1;"/>
      <path id="path1325" d="M 416.55658,68.732611 C 407.75901,80.733286 407.22294,96.511387 411.19955,112.03682 C 415.16679,127.52568 423.68505,142.79315 433.37396,153.87891 C 433.39682,153.90508 433.40523,153.94323 433.42811,153.96936 C 441.24258,164.40287 446.20203,168.91234 450.55587,176.22892 C 450.82507,176.67849 451.54673,176.88497 452.16776,176.69009 C 452.78879,176.49522 453.07401,175.97279 452.80481,175.52321 C 448.31517,167.97843 443.31687,163.47612 435.52209,153.05441 C 435.50687,153.04469 435.49131,153.03524 435.47544,153.02608 C 425.95566,142.15944 417.49402,126.98206 413.57932,111.69833 C 409.66462,96.414611 410.28827,81.027152 418.68913,69.567617 C 418.94861,69.28937 418.96732,68.928601 418.73741,68.637048 C 418.5075,68.345494 418.06885,68.17374 417.60596,68.194024 C 417.14306,68.214308 416.73623,68.423111 416.55658,68.732611 z" style="fill: url(#radialGradient3782) rgb(0, 0, 0); fill-opacity: 1; fill-rule: evenodd; stroke: none; stroke-linecap: round; stroke-linejoin: round; stroke-opacity: 1;"/>
    </g>
    <path id="path2621" d="M 333.49295,353.52804 C 333.49295,368.38532 319.54357,380.44339 302.35595,380.44339 C 285.16832,380.44339 271.21895,368.38532 271.21895,353.52804 C 271.21895,338.67077 285.16832,326.61269 302.35595,326.61269 C 319.54357,326.61269 333.49295,338.67077 333.49295,353.52804 z" style="fill: rgb(139, 0, 101); fill-opacity: 1; fill-rule: evenodd; stroke: none; stroke-width: 2.32435; stroke-linecap: round; stroke-linejoin: round; stroke-miterlimit: 4; stroke-opacity: 1;"/>
    <path id="path4228" d="M 302.40237,325.55526 C 284.53841,325.55526 270.02737,338.12587 270.02737,353.56777 C 270.02737,369.00968 284.53841,381.55327 302.40237,381.55327 C 320.26632,381.55327 334.77736,369.00968 334.77737,353.56777 C 334.77737,338.12587 320.26632,325.55526 302.40237,325.55526 z M 302.40237,327.7163 C 318.91366,327.7163 332.27737,339.29513 332.27737,353.56777 C 332.27736,367.84042 318.91366,379.39223 302.40237,379.39223 C 285.89107,379.39223 272.52737,367.84042 272.52737,353.56777 C 272.52737,339.29513 285.89107,327.7163 302.40237,327.7163 z" style="fill: rgb(75, 1, 54); fill-opacity: 1; fill-rule: evenodd; stroke: none; stroke-width: 2.5; stroke-linecap: round; stroke-linejoin: round; stroke-miterlimit: 4; stroke-opacity: 1;"/>
    <path id="path2623" d="M 333.31329,312.02906 C 333.31329,327.09758 320.05352,339.32709 303.71561,339.32709 C 287.37768,339.32709 274.11793,327.09758 274.11793,312.02906 C 274.11793,296.96055 287.37768,284.73104 303.71561,284.73104 C 320.05352,284.73104 333.31329,296.96055 333.31329,312.02906 z" style="fill: rgb(139, 0, 101); fill-opacity: 1; fill-rule: evenodd; stroke: none; stroke-width: 2.28222; stroke-linecap: round; stroke-linejoin: round; stroke-miterlimit: 4; stroke-opacity: 1;"/>
    <path id="path4245" d="M 303.7621,283.65813 C 286.78128,283.65813 272.98763,296.40746 272.98763,312.06892 C 272.98763,327.73037 286.78128,340.4523 303.7621,340.4523 C 320.74291,340.4523 334.53657,327.73037 334.53658,312.06892 C 334.53658,296.40746 320.74291,283.65813 303.7621,283.65813 z M 303.7621,285.8499 C 319.45713,285.8499 332.16017,297.59335 332.16017,312.06892 C 332.16016,326.54449 319.45713,338.26054 303.7621,338.26054 C 288.06707,338.26054 275.36403,326.54449 275.36403,312.06892 C 275.36403,297.59335 288.06707,285.8499 303.7621,285.8499 z" style="fill: rgb(75, 1, 54); fill-opacity: 1; fill-rule: evenodd; stroke: none; stroke-width: 2.5; stroke-linecap: round; stroke-linejoin: round; stroke-miterlimit: 4; stroke-opacity: 1;"/>
    <path id="path2625" d="M 293.3595,356.5797 C 293.3595,369.95834 280.96175,380.81637 265.68596,380.81637 C 250.41017,380.81637 238.01243,369.95834 238.01243,356.5797 C 238.01243,343.20106 250.41017,332.34303 265.68596,332.34303 C 280.96175,332.34303 293.3595,343.20106 293.3595,356.5797 z" style="fill: rgb(139, 0, 101); fill-opacity: 1; fill-rule: evenodd; stroke: none; stroke-width: 2.07937; stroke-linecap: round; stroke-linejoin: round; stroke-miterlimit: 4; stroke-opacity: 1;"/>
    <path id="path4248" d="M 265.73256,331.39394 C 249.85566,331.39394 236.95873,342.71349 236.95873,356.61858 C 236.95873,370.52367 249.85566,381.81889 265.73256,381.81889 C 281.60945,381.81889 294.50638,370.52367 294.50639,356.61858 C 294.50639,342.71349 281.60945,331.39394 265.73256,331.39394 z M 265.73256,333.33991 C 280.40725,333.33991 292.28447,343.76638 292.28447,356.61858 C 292.28446,369.47078 280.40725,379.87292 265.73256,379.87292 C 251.05786,379.87292 239.18064,369.47078 239.18064,356.61858 C 239.18064,343.76638 251.05786,333.33991 265.73256,333.33991 z" style="fill: rgb(75, 1, 54); fill-opacity: 1; fill-rule: evenodd; stroke: none; stroke-width: 2.5; stroke-linecap: round; stroke-linejoin: round; stroke-miterlimit: 4; stroke-opacity: 1;"/>
    <path id="path2627" d="M 325.06042,267.81444 C 325.06042,282.67172 312.31786,294.72979 296.61721,294.72979 C 280.91655,294.72979 268.17399,282.67172 268.17399,267.81444 C 268.17399,252.95717 280.91655,240.89909 296.61721,240.89909 C 312.31786,240.89909 325.06042,252.95717 325.06042,267.81444 z" style="fill: rgb(139, 0, 101); fill-opacity: 1; fill-rule: evenodd; stroke: none; stroke-width: 2.22153; stroke-linecap: round; stroke-linejoin: round; stroke-miterlimit: 4; stroke-opacity: 1;"/>
    <path id="path4254" d="M 296.66376,239.84166 C 280.34528,239.84166 267.08965,252.41227 267.08965,267.85417 C 267.08965,283.29608 280.34528,295.83967 296.66376,295.83967 C 312.98223,295.83967 326.23786,283.29608 326.23787,267.85417 C 326.23787,252.41227 312.98223,239.84166 296.66376,239.84166 z M 296.66376,242.0027 C 311.74659,242.0027 323.95415,253.58153 323.95415,267.85417 C 323.95415,282.12682 311.74659,293.67863 296.66376,293.67863 C 281.58092,293.67863 269.37337,282.12682 269.37337,267.85417 C 269.37337,253.58153 281.58092,242.0027 296.66376,242.0027 z" style="fill: rgb(75, 1, 54); fill-opacity: 1; fill-rule: evenodd; stroke: none; stroke-width: 2.5; stroke-linecap: round; stroke-linejoin: round; stroke-miterlimit: 4; stroke-opacity: 1;"/>
    <path id="path2629" d="M 296.4544,316.77117 C 296.4544,330.57261 283.36751,341.77377 267.2426,341.77377 C 251.11769,341.77377 238.03081,330.57261 238.03081,316.77117 C 238.03081,302.96973 251.11769,291.76856 267.2426,291.76856 C 283.36751,291.76856 296.4544,302.96973 296.4544,316.77117 z" style="fill: rgb(139, 0, 101); fill-opacity: 1; fill-rule: evenodd; stroke: none; stroke-width: 2.16988; stroke-linecap: round; stroke-linejoin: round; stroke-miterlimit: 4; stroke-opacity: 1;"/>
    <path id="path4251" d="M 267.28912,290.78849 C 250.52969,290.78849 236.91586,302.46577 236.91586,316.81029 C 236.91586,331.15482 250.52969,342.80699 267.28912,342.80699 C 284.04854,342.80699 297.66236,331.15482 297.66237,316.81029 C 297.66237,302.46577 284.04854,290.78849 267.28912,290.78849 z M 267.28912,292.79596 C 282.77952,292.79596 295.31695,303.55194 295.31695,316.81029 C 295.31694,330.06865 282.77952,340.79953 267.28912,340.79953 C 251.79871,340.79953 239.26129,330.06865 239.26129,316.81029 C 239.26129,303.55193 251.79871,292.79596 267.28912,292.79596 z" style="fill: rgb(75, 1, 54); fill-opacity: 1; fill-rule: evenodd; stroke: none; stroke-width: 2.5; stroke-linecap: round; stroke-linejoin: round; stroke-miterlimit: 4; stroke-opacity: 1;"/>
    <path id="path2631" d="M 246.70173,337.28827 C 246.70173,351.51185 232.92475,363.05561 215.94955,363.05561 C 198.97435,363.05561 185.19738,351.51185 185.19738,337.28827 C 185.19738,323.06471 198.97435,311.52094 215.94955,311.52094 C 232.92475,311.52094 246.70173,323.06471 246.70173,337.28827 z" style="fill: rgb(139, 0, 101); fill-opacity: 1; fill-rule: evenodd; stroke: none; stroke-width: 2.26014; stroke-linecap: round; stroke-linejoin: round; stroke-miterlimit: 4; stroke-opacity: 1;"/>
    <path id="path4260" d="M 215.99599,310.50995 C 198.35281,310.50995 184.02111,322.54438 184.02111,337.32764 C 184.02111,352.11091 198.35281,364.11947 215.99599,364.11947 C 233.63916,364.11947 247.97086,352.11091 247.97087,337.32764 C 247.97087,322.54438 233.63916,310.50995 215.99599,310.50995 z M 215.99599,312.57881 C 232.30322,312.57881 245.50176,323.66377 245.50176,337.32764 C 245.50175,350.99152 232.30322,362.05061 215.99599,362.05061 C 199.68875,362.05061 186.49021,350.99152 186.49021,337.32764 C 186.49021,323.66377 199.68875,312.57881 215.99599,312.57881 z" style="fill: rgb(75, 1, 54); fill-opacity: 1; fill-rule: evenodd; stroke: none; stroke-width: 2.5; stroke-linecap: round; stroke-linejoin: round; stroke-miterlimit: 4; stroke-opacity: 1;"/>
    <path id="path2633" d="M 252.97745,300.66154 C 252.97745,315.51882 239.02808,327.57689 221.84045,327.57689 C 204.65283,327.57689 190.70346,315.51882 190.70346,300.66154 C 190.70346,285.80427 204.65283,273.74619 221.84045,273.74619 C 239.02808,273.74619 252.97745,285.80427 252.97745,300.66154 z" style="fill: rgb(139, 0, 101); fill-opacity: 1; fill-rule: evenodd; stroke: none; stroke-width: 2.32435; stroke-linecap: round; stroke-linejoin: round; stroke-miterlimit: 4; stroke-opacity: 1;"/>
    <path id="path4263" d="M 221.88687,272.68876 C 204.02291,272.68876 189.51187,285.25937 189.51187,300.70127 C 189.51187,316.14318 204.02291,328.68677 221.88687,328.68677 C 239.75082,328.68677 254.26186,316.14318 254.26187,300.70127 C 254.26187,285.25937 239.75082,272.68876 221.88687,272.68876 z M 221.88687,274.8498 C 238.39816,274.8498 251.76187,286.42863 251.76187,300.70127 C 251.76186,314.97392 238.39816,326.52573 221.88687,326.52573 C 205.37557,326.52573 192.01187,314.97392 192.01187,300.70127 C 192.01187,286.42863 205.37557,274.8498 221.88687,274.8498 z" style="fill: rgb(75, 1, 54); fill-opacity: 1; fill-rule: evenodd; stroke: none; stroke-width: 2.5; stroke-linecap: round; stroke-linejoin: round; stroke-miterlimit: 4; stroke-opacity: 1;"/>
    <path id="path2639" d="M 195.27444,314.25044 C 195.27444,327.84036 182.01464,338.86985 165.6767,338.86985 C 149.33874,338.86985 136.07895,327.84036 136.07895,314.25044 C 136.07895,300.66053 149.33874,289.63104 165.6767,289.63104 C 182.01464,289.63104 195.27444,300.66053 195.27444,314.25044 z" style="fill: rgb(139, 0, 101); fill-opacity: 1; fill-rule: evenodd; stroke: none; stroke-width: 2.16736; stroke-linecap: round; stroke-linejoin: round; stroke-miterlimit: 4; stroke-opacity: 1;"/>
    <path id="path2635" d="M 298.89905,271.40214 C 298.89905,286.25942 284.94967,298.31749 267.76205,298.31749 C 250.57442,298.31749 236.62505,286.25942 236.62505,271.40214 C 236.62505,256.54487 250.57442,244.48679 267.76205,244.48679 C 284.94967,244.48679 298.89905,256.54487 298.89905,271.40214 z" style="fill: rgb(139, 0, 101); fill-opacity: 1; fill-rule: evenodd; stroke: none; stroke-width: 2.32435; stroke-linecap: round; stroke-linejoin: round; stroke-miterlimit: 4; stroke-opacity: 1;"/>
    <path id="path4257" d="M 267.80847,243.42936 C 249.94451,243.42936 235.43347,255.99997 235.43347,271.44187 C 235.43347,286.88378 249.94451,299.42737 267.80847,299.42737 C 285.67242,299.42737 300.18346,286.88378 300.18347,271.44187 C 300.18347,255.99997 285.67242,243.42936 267.80847,243.42936 z M 267.80847,245.5904 C 284.31976,245.5904 297.68347,257.16923 297.68347,271.44187 C 297.68346,285.71452 284.31976,297.26633 267.80847,297.26633 C 251.29717,297.26633 237.93347,285.71452 237.93347,271.44187 C 237.93347,257.16923 251.29717,245.5904 267.80847,245.5904 z" style="fill: rgb(75, 1, 54); fill-opacity: 1; fill-rule: evenodd; stroke: none; stroke-width: 2.5; stroke-linecap: round; stroke-linejoin: round; stroke-miterlimit: 4; stroke-opacity: 1;"/>
    <path id="path2637" d="M 313.94125,222.81134 C 313.94125,237.66862 299.99187,249.72669 282.80425,249.72669 C 265.61662,249.72669 251.66726,237.66862 251.66726,222.81134 C 251.66726,207.95407 265.61662,195.89599 282.80425,195.89599 C 299.99187,195.89599 313.94125,207.95407 313.94125,222.81134 z" style="fill: rgb(139, 0, 101); fill-opacity: 1; fill-rule: evenodd; stroke: none; stroke-width: 2.32435; stroke-linecap: round; stroke-linejoin: round; stroke-miterlimit: 4; stroke-opacity: 1;"/>
    <path id="path4269" d="M 282.85067,194.83856 C 264.98671,194.83856 250.47567,207.40917 250.47567,222.85107 C 250.47567,238.29298 264.98671,250.83657 282.85067,250.83657 C 300.71462,250.83657 315.22566,238.29298 315.22567,222.85107 C 315.22567,207.40917 300.71462,194.83856 282.85067,194.83856 z M 282.85067,196.9996 C 299.36196,196.9996 312.72567,208.57843 312.72567,222.85107 C 312.72566,237.12372 299.36196,248.67553 282.85067,248.67553 C 266.33937,248.67553 252.97567,237.12372 252.97567,222.85107 C 252.97567,208.57843 266.33937,196.9996 282.85067,196.9996 z" style="fill: rgb(75, 1, 54); fill-opacity: 1; fill-rule: evenodd; stroke: none; stroke-width: 2.5; stroke-linecap: round; stroke-linejoin: round; stroke-miterlimit: 4; stroke-opacity: 1;"/>
    <path id="path4290" d="M 165.72319,288.66647 C 148.74233,288.66647 134.94864,300.16477 134.94864,314.28945 C 134.94864,328.41412 148.74233,339.88771 165.72319,339.88771 C 182.70403,339.88771 196.49772,328.41412 196.49773,314.28945 C 196.49773,300.16478 182.70403,288.66647 165.72319,288.66647 z M 165.72319,290.64317 C 181.41824,290.64317 194.12132,301.2343 194.12132,314.28945 C 194.12131,327.3446 181.41824,337.91101 165.72319,337.91101 C 150.02812,337.91101 137.32506,327.3446 137.32506,314.28945 C 137.32506,301.23429 150.02812,290.64317 165.72319,290.64317 z" style="fill: rgb(75, 1, 54); fill-opacity: 1; fill-rule: evenodd; stroke: none; stroke-width: 2.5; stroke-linecap: round; stroke-linejoin: round; stroke-miterlimit: 4; stroke-opacity: 1;"/>
    <path id="path2641" d="M 204.05595,284.70074 C 204.05595,299.55802 190.10658,311.61609 172.91896,311.61609 C 155.73133,311.61609 141.78196,299.55802 141.78196,284.70074 C 141.78196,269.84347 155.73133,257.78539 172.91896,257.78539 C 190.10658,257.78539 204.05595,269.84347 204.05595,284.70074 z" style="fill: rgb(139, 0, 101); fill-opacity: 1; fill-rule: evenodd; stroke: none; stroke-width: 2.32435; stroke-linecap: round; stroke-linejoin: round; stroke-miterlimit: 4; stroke-opacity: 1;"/>
    <path id="path4293" d="M 172.96537,256.72796 C 155.10141,256.72796 140.59037,269.29857 140.59037,284.74047 C 140.59037,300.18238 155.10141,312.72597 172.96537,312.72597 C 190.82932,312.72597 205.34036,300.18238 205.34037,284.74047 C 205.34037,269.29857 190.82932,256.72796 172.96537,256.72796 z M 172.96537,258.889 C 189.47666,258.889 202.84037,270.46783 202.84037,284.74047 C 202.84036,299.01312 189.47666,310.56493 172.96537,310.56493 C 156.45407,310.56493 143.09037,299.01312 143.09037,284.74047 C 143.09037,270.46783 156.45407,258.889 172.96537,258.889 z" style="fill: rgb(75, 1, 54); fill-opacity: 1; fill-rule: evenodd; stroke: none; stroke-width: 2.5; stroke-linecap: round; stroke-linejoin: round; stroke-miterlimit: 4; stroke-opacity: 1;"/>
    <path id="path2643" d="M 151.91023,281.38183 C 151.91023,296.87459 138.30682,309.44841 121.54549,309.44841 C 104.78414,309.44841 91.180747,296.87459 91.180747,281.38183 C 91.180747,265.88908 104.78414,253.31525 121.54549,253.31525 C 138.30682,253.31525 151.91023,265.88908 151.91023,281.38183 z" style="fill: rgb(139, 0, 101); fill-opacity: 1; fill-rule: evenodd; stroke: none; stroke-width: 2.34392; stroke-linecap: round; stroke-linejoin: round; stroke-miterlimit: 4; stroke-opacity: 1;"/>
    <path id="path4287" d="M 121.59194,252.21126 C 104.17104,252.21126 90.019902,265.31954 90.019902,281.42193 C 90.019902,297.52432 104.17104,310.60443 121.59194,310.60443 C 139.01283,310.60443 153.16396,297.52432 153.16397,281.42193 C 153.16397,265.31954 139.01283,252.21126 121.59194,252.21126 z M 121.59194,254.46473 C 137.69371,254.46473 150.72598,266.53881 150.72598,281.42193 C 150.72597,296.30505 137.69371,308.35095 121.59194,308.35095 C 105.49015,308.35095 92.457897,296.30505 92.457897,281.42193 C 92.457897,266.53881 105.49015,254.46473 121.59194,254.46473 z" style="fill: rgb(75, 1, 54); fill-opacity: 1; fill-rule: evenodd; stroke: none; stroke-width: 2.5; stroke-linecap: round; stroke-linejoin: round; stroke-miterlimit: 4; stroke-opacity: 1;"/>
    <path id="path2645" d="M 240.90311,257.20346 C 240.90311,271.84942 227.64451,283.73598 211.30804,283.73598 C 194.97156,283.73598 181.71298,271.84942 181.71298,257.20346 C 181.71298,242.55751 194.97156,230.67094 211.30804,230.67094 C 227.64451,230.67094 240.90311,242.55751 240.90311,257.20346 z" style="fill: rgb(139, 0, 101); fill-opacity: 1; fill-rule: evenodd; stroke: none; stroke-width: 2.24989; stroke-linecap: round; stroke-linejoin: round; stroke-miterlimit: 4; stroke-opacity: 1;"/>
    <path id="path4296" d="M 211.35453,229.62899 C 194.37521,229.62899 180.58278,242.0208 180.58278,257.24307 C 180.58278,272.46534 194.37521,284.83052 211.35453,284.83052 C 228.33384,284.83052 242.12628,272.46534 242.12629,257.24307 C 242.12629,242.0208 228.33384,229.62899 211.35453,229.62899 z M 211.35453,231.7593 C 227.04817,231.7593 239.75009,243.17343 239.75009,257.24307 C 239.75008,271.31271 227.04817,282.70021 211.35453,282.70021 C 195.66089,282.70021 182.95897,271.31271 182.95897,257.24307 C 182.95897,243.17343 195.66089,231.7593 211.35453,231.7593 z" style="fill: rgb(75, 1, 54); fill-opacity: 1; fill-rule: evenodd; stroke: none; stroke-width: 2.5; stroke-linecap: round; stroke-linejoin: round; stroke-miterlimit: 4; stroke-opacity: 1;"/>
    <path id="path2649" d="M 275.84137,226.2788 C 275.84137,240.7136 262.754,252.4288 246.62851,252.4288 C 230.50301,252.4288 217.41565,240.7136 217.41565,226.2788 C 217.41565,211.84399 230.50301,200.12879 246.62851,200.12879 C 262.754,200.12879 275.84137,211.84399 275.84137,226.2788 z" style="fill: rgb(139, 0, 101); fill-opacity: 1; fill-rule: evenodd; stroke: none; stroke-width: 2.21915; stroke-linecap: round; stroke-linejoin: round; stroke-miterlimit: 4; stroke-opacity: 1;"/>
    <path id="path4299" d="M 246.67502,199.10232 C 229.91498,199.10232 216.30067,211.31548 216.30067,226.31828 C 216.30067,241.3211 229.91498,253.50801 246.67502,253.50801 C 263.43505,253.50801 277.04937,241.3211 277.04938,226.31828 C 277.04938,211.31548 263.43505,199.10232 246.67502,199.10232 z M 246.67502,201.20191 C 262.16598,201.20191 274.70387,212.45149 274.70387,226.31828 C 274.70386,240.18509 262.16598,251.40841 246.67502,251.40841 C 231.18406,251.40841 218.64618,240.18509 218.64618,226.31828 C 218.64618,212.45149 231.18406,201.20191 246.67502,201.20191 z" style="fill: rgb(75, 1, 54); fill-opacity: 1; fill-rule: evenodd; stroke: none; stroke-width: 2.5; stroke-linecap: round; stroke-linejoin: round; stroke-miterlimit: 4; stroke-opacity: 1;"/>
    <path id="path2651" d="M 304.37891,177.01643 C 304.37891,190.81753 290.94675,202.01842 274.39641,202.01842 C 257.84606,202.01842 244.41391,190.81753 244.41391,177.01643 C 244.41391,163.21534 257.84606,152.01445 274.39641,152.01445 C 290.94675,152.01445 304.37891,163.21534 304.37891,177.01643 z" style="fill: rgb(139, 0, 101); fill-opacity: 1; fill-rule: evenodd; stroke: none; stroke-width: 2.19829; stroke-linecap: round; stroke-linejoin: round; stroke-miterlimit: 4; stroke-opacity: 1;"/>
    <path id="path4266" d="M 274.44289,151.03441 C 257.24129,151.03441 243.26829,162.71139 243.26829,177.05556 C 243.26829,191.39973 257.24129,203.05161 274.44289,203.05161 C 291.64448,203.05161 305.61748,191.39973 305.61748,177.05556 C 305.61748,162.71139 291.64448,151.03441 274.44289,151.03441 z M 274.44289,153.04182 C 290.34197,153.04182 303.21018,163.79753 303.21018,177.05556 C 303.21017,190.31359 290.34197,201.0442 274.44289,201.0442 C 258.54379,201.0442 245.67559,190.31359 245.67559,177.05556 C 245.67559,163.79753 258.54379,153.04182 274.44289,153.04182 z" style="fill: rgb(75, 1, 54); fill-opacity: 1; fill-rule: evenodd; stroke: none; stroke-width: 2.5; stroke-linecap: round; stroke-linejoin: round; stroke-miterlimit: 4; stroke-opacity: 1;"/>
    <path id="path2655" d="M 269.12953,183.56561 C 269.12953,198.42427 256.21532,210.48345 240.30318,210.48345 C 224.39102,210.48345 211.47682,198.42427 211.47682,183.56561 C 211.47682,168.70696 224.39102,156.64777 240.30318,156.64777 C 256.21532,156.64777 269.12953,168.70696 269.12953,183.56561 z" style="fill: rgb(139, 0, 101); fill-opacity: 1; fill-rule: evenodd; stroke: none; stroke-width: 2.23655; stroke-linecap: round; stroke-linejoin: round; stroke-miterlimit: 4; stroke-opacity: 1;"/>
    <path id="path4302" d="M 240.34971,155.59024 C 223.81142,155.59024 210.37723,168.16201 210.37723,183.60534 C 210.37723,199.04868 223.81142,211.59344 240.34971,211.59344 C 256.88799,211.59344 270.32219,199.04868 270.32219,183.60534 C 270.32219,168.16201 256.88799,155.59024 240.34971,155.59024 z M 240.34971,157.75148 C 255.63571,157.75148 268.00772,169.33138 268.00772,183.60534 C 268.00771,197.87931 255.63571,209.43219 240.34971,209.43219 C 225.0637,209.43219 212.6917,197.87931 212.6917,183.60534 C 212.6917,169.33138 225.0637,157.75148 240.34971,157.75148 z" style="fill: rgb(75, 1, 54); fill-opacity: 1; fill-rule: evenodd; stroke: none; stroke-width: 2.5; stroke-linecap: round; stroke-linejoin: round; stroke-miterlimit: 4; stroke-opacity: 1;"/>
    <path id="path2657" d="M 223.01655,212.01164 C 223.01655,226.86892 209.06718,238.92699 191.87956,238.92699 C 174.69193,238.92699 160.74256,226.86892 160.74256,212.01164 C 160.74256,197.15437 174.69193,185.09629 191.87956,185.09629 C 209.06718,185.09629 223.01655,197.15437 223.01655,212.01164 z" style="fill: rgb(139, 0, 101); fill-opacity: 1; fill-rule: evenodd; stroke: none; stroke-width: 2.32435; stroke-linecap: round; stroke-linejoin: round; stroke-miterlimit: 4; stroke-opacity: 1;"/>
    <path id="path4305" d="M 191.92597,184.03886 C 174.06201,184.03886 159.55097,196.60947 159.55097,212.05137 C 159.55097,227.49328 174.06201,240.03687 191.92597,240.03687 C 209.78992,240.03687 224.30096,227.49328 224.30097,212.05137 C 224.30097,196.60947 209.78992,184.03886 191.92597,184.03886 z M 191.92597,186.1999 C 208.43726,186.1999 221.80097,197.77873 221.80097,212.05137 C 221.80096,226.32402 208.43726,237.87583 191.92597,237.87583 C 175.41467,237.87583 162.05097,226.32402 162.05097,212.05137 C 162.05097,197.77873 175.41467,186.1999 191.92597,186.1999 z" style="fill: rgb(75, 1, 54); fill-opacity: 1; fill-rule: evenodd; stroke: none; stroke-width: 2.5; stroke-linecap: round; stroke-linejoin: round; stroke-miterlimit: 4; stroke-opacity: 1;"/>
    <path id="path2659" d="M 186.12811,239.6458 C 186.12811,255.12953 173.72657,267.69603 158.44611,267.69603 C 143.16563,267.69603 130.7641,255.12953 130.7641,239.6458 C 130.7641,224.16207 143.16563,211.59557 158.44611,211.59557 C 173.72657,211.59557 186.12811,224.16207 186.12811,239.6458 z" style="fill: rgb(139, 0, 101); fill-opacity: 1; fill-rule: evenodd; stroke: none; stroke-width: 2.23733; stroke-linecap: round; stroke-linejoin: round; stroke-miterlimit: 4; stroke-opacity: 1;"/>
    <path id="path4308" d="M 158.49269,210.49224 C 142.61094,210.49224 129.71006,223.59288 129.71006,239.68589 C 129.71006,255.77891 142.61094,268.8514 158.49269,268.8514 C 174.37444,268.8514 187.27532,255.77891 187.27533,239.68589 C 187.27533,223.59288 174.37444,210.49224 158.49269,210.49224 z M 158.49269,212.7444 C 173.17187,212.7444 185.05273,224.81145 185.05273,239.68589 C 185.05272,254.56034 173.17187,266.59923 158.49269,266.59923 C 143.8135,266.59923 131.93265,254.56034 131.93265,239.68589 C 131.93265,224.81144 143.8135,212.7444 158.49269,212.7444 z" style="fill: rgb(75, 1, 54); fill-opacity: 1; fill-rule: evenodd; stroke: none; stroke-width: 2.5; stroke-linecap: round; stroke-linejoin: round; stroke-miterlimit: 4; stroke-opacity: 1;"/>
    <path id="path2661" d="M 104.66003,252.65876 C 104.66003,266.67112 91.917457,278.04345 76.216807,278.04345 C 60.516147,278.04345 47.773597,266.67112 47.773597,252.65876 C 47.773597,238.64642 60.516147,227.27408 76.216807,227.27408 C 91.917457,227.27408 104.66003,238.64642 104.66003,252.65876 z" style="fill: rgb(139, 0, 101); fill-opacity: 1; fill-rule: evenodd; stroke: none; stroke-width: 2.15744; stroke-linecap: round; stroke-linejoin: round; stroke-miterlimit: 4; stroke-opacity: 1;"/>
    <path id="path4284" d="M 76.26336,226.27855 C 59.944883,226.27855 46.689251,238.13428 46.689251,252.69801 C 46.689251,267.26175 59.944883,279.09199 76.26336,279.09199 C 92.581829,279.09199 105.83746,267.26175 105.83747,252.69801 C 105.83747,238.13428 92.581829,226.27855 76.26336,226.27855 z M 76.26336,228.3167 C 91.346193,228.3167 103.55375,239.23704 103.55375,252.69801 C 103.55375,266.15898 91.346193,277.05384 76.26336,277.05384 C 61.180519,277.05384 48.972966,266.15898 48.972966,252.69801 C 48.972966,239.23704 61.180519,228.3167 76.26336,228.3167 z" style="fill: rgb(75, 1, 54); fill-opacity: 1; fill-rule: evenodd; stroke: none; stroke-width: 2.5; stroke-linecap: round; stroke-linejoin: round; stroke-miterlimit: 4; stroke-opacity: 1;"/>
    <path id="path2663" d="M 144.12032,231.5769 C 144.12032,246.0117 130.68815,257.7269 114.13781,257.7269 C 97.587467,257.7269 84.155307,246.0117 84.155307,231.5769 C 84.155307,217.14209 97.587467,205.42689 114.13781,205.42689 C 130.68815,205.42689 144.12032,217.14209 144.12032,231.5769 z" style="fill: rgb(139, 0, 101); fill-opacity: 1; fill-rule: evenodd; stroke: none; stroke-width: 2.24819; stroke-linecap: round; stroke-linejoin: round; stroke-miterlimit: 4; stroke-opacity: 1;"/>
    <path id="path4317" d="M 114.18429,204.40042 C 96.982685,204.40042 83.009685,216.61358 83.009685,231.61638 C 83.009685,246.6192 96.982685,258.80611 114.18429,258.80611 C 131.38588,258.80611 145.35888,246.6192 145.35888,231.61638 C 145.35888,216.61358 131.38588,204.40042 114.18429,204.40042 z M 114.18429,206.50001 C 130.08337,206.50001 142.95158,217.74959 142.95158,231.61638 C 142.95157,245.48319 130.08337,256.70651 114.18429,256.70651 C 98.285191,256.70651 85.41699,245.48319 85.41699,231.61638 C 85.41699,217.74959 98.285191,206.50001 114.18429,206.50001 z" style="fill: rgb(75, 1, 54); fill-opacity: 1; fill-rule: evenodd; stroke: none; stroke-width: 2.5; stroke-linecap: round; stroke-linejoin: round; stroke-miterlimit: 4; stroke-opacity: 1;"/>
    <path id="path2665" d="M 108.41426,204.05128 C 108.41426,218.90856 94.464877,230.96663 77.277257,230.96663 C 60.089627,230.96663 46.140257,218.90856 46.140257,204.05128 C 46.140257,189.19401 60.089627,177.13593 77.277257,177.13593 C 94.464877,177.13593 108.41426,189.19401 108.41426,204.05128 z" style="fill: rgb(139, 0, 101); fill-opacity: 1; fill-rule: evenodd; stroke: none; stroke-width: 2.32435; stroke-linecap: round; stroke-linejoin: round; stroke-miterlimit: 4; stroke-opacity: 1;"/>
    <path id="path4311" d="M 77.32367,176.0785 C 59.45971,176.0785 44.94867,188.64911 44.94867,204.09101 C 44.94867,219.53292 59.45971,232.07651 77.32367,232.07651 C 95.18762,232.07651 109.69866,219.53292 109.69867,204.09101 C 109.69867,188.64911 95.18762,176.0785 77.32367,176.0785 z M 77.32367,178.23954 C 93.83496,178.23954 107.19867,189.81837 107.19867,204.09101 C 107.19866,218.36366 93.83496,229.91547 77.32367,229.91547 C 60.81237,229.91547 47.44867,218.36366 47.44867,204.09101 C 47.44867,189.81837 60.81237,178.23954 77.32367,178.23954 z" style="fill: rgb(75, 1, 54); fill-opacity: 1; fill-rule: evenodd; stroke: none; stroke-width: 2.5; stroke-linecap: round; stroke-linejoin: round; stroke-miterlimit: 4; stroke-opacity: 1;"/>
    <path id="path2667" d="M 171.2259,188.93398 C 171.2259,204.42581 156.76083,216.99888 138.9378,216.99888 C 121.11476,216.99888 106.6497,204.42581 106.6497,188.93398 C 106.6497,173.44216 121.11476,160.86908 138.9378,160.86908 C 156.76083,160.86908 171.2259,173.44216 171.2259,188.93398 z" style="fill: rgb(139, 0, 101); fill-opacity: 1; fill-rule: evenodd; stroke: none; stroke-width: 2.41694; stroke-linecap: round; stroke-linejoin: round; stroke-miterlimit: 4; stroke-opacity: 1;"/>
    <path id="path4314" d="M 138.98415,159.76516 C 120.45978,159.76516 105.41228,172.87265 105.41228,188.97408 C 105.41228,205.07551 120.45978,218.15483 138.98415,218.15483 C 157.50851,218.15483 172.55601,205.07551 172.55602,188.97408 C 172.55602,172.87265 157.50851,159.76516 138.98415,159.76516 z M 138.98415,162.0185 C 156.10585,162.0185 169.9636,174.09185 169.9636,188.97408 C 169.96359,203.85631 156.10585,215.90149 138.98415,215.90149 C 121.86245,215.90149 108.0047,203.85631 108.0047,188.97408 C 108.0047,174.09185 121.86245,162.0185 138.98415,162.0185 z" style="fill: rgb(75, 1, 54); fill-opacity: 1; fill-rule: evenodd; stroke: none; stroke-width: 2.5; stroke-linecap: round; stroke-linejoin: round; stroke-miterlimit: 4; stroke-opacity: 1;"/>
    <path id="path2671" d="M 273.46455,140.86074 C 273.46455,155.71802 259.51518,167.77609 242.32755,167.77609 C 225.13993,167.77609 211.19056,155.71802 211.19056,140.86074 C 211.19056,126.00347 225.13993,113.94539 242.32755,113.94539 C 259.51518,113.94539 273.46455,126.00347 273.46455,140.86074 z" style="fill: rgb(139, 0, 101); fill-opacity: 1; fill-rule: evenodd; stroke: none; stroke-width: 2.32435; stroke-linecap: round; stroke-linejoin: round; stroke-miterlimit: 4; stroke-opacity: 1;"/>
    <path id="path4272" d="M 242.37397,112.88796 C 224.51001,112.88796 209.99897,125.45857 209.99897,140.90047 C 209.99897,156.34239 224.51001,168.88598 242.37397,168.88598 C 260.23792,168.88598 274.74896,156.34239 274.74897,140.90047 C 274.74897,125.45857 260.23792,112.88796 242.37397,112.88796 z M 242.37397,115.049 C 258.88526,115.049 272.24897,126.62783 272.24897,140.90047 C 272.24896,155.17312 258.88526,166.72493 242.37397,166.72493 C 225.86267,166.72493 212.49897,155.17312 212.49897,140.90047 C 212.49897,126.62783 225.86267,115.049 242.37397,115.049 z" style="fill: rgb(75, 1, 54); fill-opacity: 1; fill-rule: evenodd; stroke: none; stroke-width: 2.5; stroke-linecap: round; stroke-linejoin: round; stroke-miterlimit: 4; stroke-opacity: 1;"/>
    <path id="path2673" d="M 221.71046,164.96082 C 221.71046,179.8181 207.76108,191.87617 190.57346,191.87617 C 173.38583,191.87617 159.43646,179.8181 159.43646,164.96082 C 159.43646,150.10355 173.38583,138.04547 190.57346,138.04547 C 207.76108,138.04547 221.71046,150.10355 221.71046,164.96082 z" style="fill: rgb(139, 0, 101); fill-opacity: 1; fill-rule: evenodd; stroke: none; stroke-width: 2.32435; stroke-linecap: round; stroke-linejoin: round; stroke-miterlimit: 4; stroke-opacity: 1;"/>
    <path id="path4275" d="M 190.61987,136.98804 C 172.75591,136.98804 158.24487,149.55865 158.24487,165.00055 C 158.24487,180.44247 172.75591,192.98606 190.61987,192.98606 C 208.48382,192.98606 222.99486,180.44247 222.99487,165.00055 C 222.99487,149.55865 208.48382,136.98804 190.61987,136.98804 z M 190.61987,139.14908 C 207.13116,139.14908 220.49487,150.72791 220.49487,165.00055 C 220.49486,179.2732 207.13116,190.82501 190.61987,190.82501 C 174.10857,190.82501 160.74487,179.2732 160.74487,165.00055 C 160.74487,150.72791 174.10857,139.14908 190.61987,139.14908 z" style="fill: rgb(75, 1, 54); fill-opacity: 1; fill-rule: evenodd; stroke: none; stroke-width: 2.5; stroke-linecap: round; stroke-linejoin: round; stroke-miterlimit: 4; stroke-opacity: 1;"/>
    <path id="path2677" d="M 235.64656,120.52629 C 235.64656,135.38357 221.69717,147.44164 204.50956,147.44164 C 187.32193,147.44164 173.37256,135.38357 173.37256,120.52629 C 173.37256,105.66902 187.32193,93.610943 204.50956,93.610943 C 221.69717,93.610943 235.64656,105.66902 235.64656,120.52629 z" style="fill: rgb(139, 0, 101); fill-opacity: 1; fill-rule: evenodd; stroke: none; stroke-width: 2.32435; stroke-linecap: round; stroke-linejoin: round; stroke-miterlimit: 4; stroke-opacity: 1;"/>
    <path id="path7375" d="M 204.55597,92.553511 C 186.69201,92.553511 172.18097,105.12412 172.18097,120.56602 C 172.18097,136.00794 186.69201,148.55153 204.55597,148.55153 C 222.41992,148.55153 236.93096,136.00794 236.93097,120.56602 C 236.93097,105.12412 222.41992,92.553511 204.55597,92.553511 z M 204.55597,94.714554 C 221.06726,94.714554 234.43097,106.29338 234.43097,120.56602 C 234.43096,134.83867 221.06726,146.39048 204.55597,146.39048 C 188.04467,146.39048 174.68097,134.83867 174.68097,120.56602 C 174.68097,106.29338 188.04467,94.714554 204.55597,94.714554 z" style="fill: rgb(75, 1, 54); fill-opacity: 1; fill-rule: evenodd; stroke: none; stroke-width: 2.5; stroke-linecap: round; stroke-linejoin: round; stroke-miterlimit: 4; stroke-opacity: 1;"/>
    <path sodipodi:nodetypes="cccccccccccccccccccc" id="path14" d="M 95.72028,143.59271 L 95.72028,144.59271 L 139.72028,144.59271 L 139.72028,143.59271 C 136.26728,141.64671 131.78028,140.55071 129.15428,137.44871 C 124.81728,132.32771 123.8389,120.66352 121.5769,114.19352 C 118.8409,106.36632 115.35528,99.420515 110.69128,92.592715 C 108.69128,89.663815 99.11013,79.399221 100.20423,75.604145 C 100.97802,69.301942 110.39424,64.484589 115.38324,62.665589 C 139.97724,53.698889 159.98382,64.163306 181.31345,73.322484 C 184.56368,74.392195 213.81928,90.901815 217.27728,82.314215 C 218.64828,78.908615 214.69484,78.548558 208.71158,79.633774 C 198.91041,81.925735 183.91377,71.934885 175.60936,68.360993 C 150.70011,56.69572 115.66428,45.456116 94.72028,72.592716 C 77.98578,56.576716 51.58358,41.193516 27.72028,40.607416 C 21.77058,40.461216 -3.92012,41.331616 0.89238,53.487816 C 4.18748,61.811316 23.27258,63.102116 30.72028,64.345816 C 57.71268,68.853216 81.26958,71.361716 98.28028,95.592715 C 104.40228,104.31292 115.27728,126.60671 108.54128,137.31371 C 106.30228,140.87271 99.45128,142.07071 95.72028,143.59271 z" style="fill: rgb(108, 54, 32); fill-opacity: 1; stroke: none;"/>
    <path sodipodi:nodetypes="cccccccccccccccccccc" id="path5525" d="M 95.72028,143.59271 L 95.72028,144.59271 L 139.72028,144.59271 L 139.72028,143.59271 C 136.26728,141.64671 131.78028,140.55071 129.15428,137.44872 C 124.81728,132.32771 123.8389,120.66352 121.5769,114.19352 C 118.8409,106.36633 115.35528,99.420518 110.69128,92.592718 C 108.69128,89.663818 99.11013,79.399224 100.20423,75.604148 C 100.97802,69.301945 110.39424,64.484592 115.38324,62.665592 C 139.97724,53.698892 159.98382,64.163309 181.31345,73.322487 C 184.56368,74.392198 213.81928,90.901818 217.27728,82.314218 C 218.64828,78.908618 214.69484,78.548561 208.71158,79.633777 C 198.91041,81.925738 183.91377,71.934888 175.60936,68.360996 C 150.70011,56.695723 115.66428,45.456119 94.72028,72.592719 C 77.98578,56.576719 51.58358,41.193519 27.72028,40.607419 C 21.77058,40.461219 -3.92012,41.331619 0.89238,53.487819 C 4.18748,61.811319 23.27258,63.102119 30.72028,64.345819 C 57.71268,68.853219 81.26958,71.361719 98.28028,95.592718 C 104.40228,104.31292 115.27728,126.60671 108.54128,137.31372 C 106.30228,140.87271 99.45128,142.07071 95.72028,143.59271 z" style="fill: url(#linearGradient3786) rgb(0, 0, 0); fill-opacity: 1; stroke: none;"/>
    <path id="path2679" d="M 132.22196,163.55778 C 132.22196,178.41506 118.27258,190.47313 101.08496,190.47313 C 83.897327,190.47313 69.947957,178.41506 69.947957,163.55778 C 69.947957,148.70051 83.897327,136.64243 101.08496,136.64243 C 118.27258,136.64243 132.22196,148.70051 132.22196,163.55778 z" style="fill: rgb(139, 0, 101); fill-opacity: 1; fill-rule: evenodd; stroke: none; stroke-width: 2.32435; stroke-linecap: round; stroke-linejoin: round; stroke-miterlimit: 4; stroke-opacity: 1;"/>
    <path id="path4281" d="M 101.13137,135.585 C 83.26741,135.585 68.75637,148.15561 68.75637,163.59751 C 68.75637,179.03943 83.26741,191.58302 101.13137,191.58302 C 118.99532,191.58302 133.50636,179.03943 133.50637,163.59751 C 133.50637,148.15561 118.99532,135.585 101.13137,135.585 z M 101.13137,137.74604 C 117.64266,137.74604 131.00637,149.32487 131.00637,163.59751 C 131.00636,177.87016 117.64266,189.42197 101.13137,189.42197 C 84.62007,189.42197 71.25637,177.87016 71.25637,163.59751 C 71.25637,149.32487 84.62007,137.74604 101.13137,137.74604 z" style="fill: rgb(75, 1, 54); fill-opacity: 1; fill-rule: evenodd; stroke: none; stroke-width: 2.5; stroke-linecap: round; stroke-linejoin: round; stroke-miterlimit: 4; stroke-opacity: 1;"/>
    <path id="path2681" d="M 181.66796,136.41958 C 181.66796,151.27686 167.71858,163.33493 150.53096,163.33493 C 133.34333,163.33493 119.39396,151.27686 119.39396,136.41958 C 119.39396,121.56231 133.34333,109.50423 150.53096,109.50423 C 167.71858,109.50423 181.66796,121.56231 181.66796,136.41958 z" style="fill: rgb(139, 0, 101); fill-opacity: 1; fill-rule: evenodd; stroke: none; stroke-width: 2.32435; stroke-linecap: round; stroke-linejoin: round; stroke-miterlimit: 4; stroke-opacity: 1;"/>
    <path id="path4278" d="M 150.57737,108.4468 C 132.71341,108.4468 118.20237,121.01741 118.20237,136.45931 C 118.20237,151.90123 132.71341,164.44482 150.57737,164.44482 C 168.44132,164.44482 182.95236,151.90123 182.95237,136.45931 C 182.95237,121.01741 168.44132,108.4468 150.57737,108.4468 z M 150.57737,110.60784 C 167.08866,110.60784 180.45237,122.18667 180.45237,136.45931 C 180.45236,150.73196 167.08866,162.28377 150.57737,162.28377 C 134.06607,162.28377 120.70237,150.73196 120.70237,136.45931 C 120.70237,122.18667 134.06607,110.60784 150.57737,110.60784 z" style="fill: rgb(75, 1, 54); fill-opacity: 1; fill-rule: evenodd; stroke: none; stroke-width: 2.5; stroke-linecap: round; stroke-linejoin: round; stroke-miterlimit: 4; stroke-opacity: 1;"/>
    <g id="g3591">
      <path transform="matrix(0.220662, -0.146375, 0.263461, 0.268034, 153.653, 238.355)" style="fill: rgb(179, 50, 131); fill-opacity: 1; fill-rule: evenodd; stroke: none; stroke-width: 2.5; stroke-linecap: round; stroke-linejoin: round; stroke-miterlimit: 4; stroke-opacity: 1;" d="M 172.45109,111.86508 C 172.45109,129.05271 158.50171,143.00208 141.31409,143.00208 C 124.12646,143.00208 110.17709,129.05271 110.17709,111.86508 C 110.17709,94.677457 124.12646,80.728081 141.31409,80.728081 C 158.50171,80.728081 172.45109,94.677457 172.45109,111.86508 z" id="path2330"/>
      <path transform="matrix(0.241608, -0.108363, 0.216138, 0.307471, 202.085, 201.275)" style="fill: rgb(179, 50, 131); fill-opacity: 1; fill-rule: evenodd; stroke: none; stroke-width: 2.5; stroke-linecap: round; stroke-linejoin: round; stroke-miterlimit: 4; stroke-opacity: 1;" d="M 172.45109,111.86508 C 172.45109,129.05271 158.50171,143.00208 141.31409,143.00208 C 124.12646,143.00208 110.17709,129.05271 110.17709,111.86508 C 110.17709,94.677457 124.12646,80.728081 141.31409,80.728081 C 158.50171,80.728081 172.45109,94.677457 172.45109,111.86508 z" id="path2325"/>
      <path transform="matrix(0.259886, -0.0507568, 0.140791, 0.348471, 202.681, 147.849)" style="fill: rgb(179, 50, 131); fill-opacity: 1; fill-rule: evenodd; stroke: none; stroke-width: 2.5; stroke-linecap: round; stroke-linejoin: round; stroke-miterlimit: 4; stroke-opacity: 1;" d="M 172.45109,111.86508 C 172.45109,129.05271 158.50171,143.00208 141.31409,143.00208 C 124.12646,143.00208 110.17709,129.05271 110.17709,111.86508 C 110.17709,94.677457 124.12646,80.728081 141.31409,80.728081 C 158.50171,80.728081 172.45109,94.677457 172.45109,111.86508 z" id="path2324"/>
      <path transform="matrix(0.189081, -0.185379, 0.309301, 0.213511, 139.018, 160.296)" style="fill: rgb(179, 50, 131); fill-opacity: 1; fill-rule: evenodd; stroke: none; stroke-width: 2.5; stroke-linecap: round; stroke-linejoin: round; stroke-miterlimit: 4; stroke-opacity: 1;" d="M 172.45109,111.86508 C 172.45109,129.05271 158.50171,143.00208 141.31409,143.00208 C 124.12646,143.00208 110.17709,129.05271 110.17709,111.86508 C 110.17709,94.677457 124.12646,80.728081 141.31409,80.728081 C 158.50171,80.728081 172.45109,94.677457 172.45109,111.86508 z" id="path2321"/>
      <path transform="matrix(0.189081, -0.185379, 0.309301, 0.213511, 153.929, 109.714)" style="fill: rgb(179, 50, 131); fill-opacity: 1; fill-rule: evenodd; stroke: none; stroke-width: 2.5; stroke-linecap: round; stroke-linejoin: round; stroke-miterlimit: 4; stroke-opacity: 1;" d="M 172.45109,111.86508 C 172.45109,129.05271 158.50171,143.00208 141.31409,143.00208 C 124.12646,143.00208 110.17709,129.05271 110.17709,111.86508 C 110.17709,94.677457 124.12646,80.728081 141.31409,80.728081 C 158.50171,80.728081 172.45109,94.677457 172.45109,111.86508 z" id="path1077"/>
      <path transform="matrix(0.223863, -0.14143, 0.257434, 0.273828, 194.35, 118.876)" style="fill: rgb(179, 50, 131); fill-opacity: 1; fill-rule: evenodd; stroke: none; stroke-width: 2.5; stroke-linecap: round; stroke-linejoin: round; stroke-miterlimit: 4; stroke-opacity: 1;" d="M 172.45109,111.86508 C 172.45109,129.05271 158.50171,143.00208 141.31409,143.00208 C 124.12646,143.00208 110.17709,129.05271 110.17709,111.86508 C 110.17709,94.677457 124.12646,80.728081 141.31409,80.728081 C 158.50171,80.728081 172.45109,94.677457 172.45109,111.86508 z" id="path2320"/>
      <path transform="matrix(0.226516, -0.0845553, 0.24015, 0.260993, 227.912, 149.221)" style="fill: rgb(179, 50, 131); fill-opacity: 1; fill-rule: evenodd; stroke: none; stroke-width: 2.5; stroke-linecap: round; stroke-linejoin: round; stroke-miterlimit: 4; stroke-opacity: 1;" d="M 172.45109,111.86508 C 172.45109,129.05271 158.50171,143.00208 141.31409,143.00208 C 124.12646,143.00208 110.17709,129.05271 110.17709,111.86508 C 110.17709,94.677457 124.12646,80.728081 141.31409,80.728081 C 158.50171,80.728081 172.45109,94.677457 172.45109,111.86508 z" id="path2322"/>
      <path transform="matrix(0.189081, -0.185379, 0.309301, 0.213511, 98.3928, 125.245)" style="fill: rgb(179, 50, 131); fill-opacity: 1; fill-rule: evenodd; stroke: none; stroke-width: 2.5; stroke-linecap: round; stroke-linejoin: round; stroke-miterlimit: 4; stroke-opacity: 1;" d="M 172.45109,111.86508 C 172.45109,129.05271 158.50171,143.00208 141.31409,143.00208 C 124.12646,143.00208 110.17709,129.05271 110.17709,111.86508 C 110.17709,94.677457 124.12646,80.728081 141.31409,80.728081 C 158.50171,80.728081 172.45109,94.677457 172.45109,111.86508 z" id="path2323"/>
      <path transform="matrix(0.244902, -0.100699, 0.206345, 0.314127, 238.732, 191.669)" style="fill: rgb(179, 50, 131); fill-opacity: 1; fill-rule: evenodd; stroke: none; stroke-width: 2.5; stroke-linecap: round; stroke-linejoin: round; stroke-miterlimit: 4; stroke-opacity: 1;" d="M 172.45109,111.86508 C 172.45109,129.05271 158.50171,143.00208 141.31409,143.00208 C 124.12646,143.00208 110.17709,129.05271 110.17709,111.86508 C 110.17709,94.677457 124.12646,80.728081 141.31409,80.728081 C 158.50171,80.728081 172.45109,94.677457 172.45109,111.86508 z" id="path2326"/>
      <path transform="matrix(0.220662, -0.146375, 0.263461, 0.268034, 219.072, 252.004)" style="fill: rgb(179, 50, 131); fill-opacity: 1; fill-rule: evenodd; stroke: none; stroke-width: 2.5; stroke-linecap: round; stroke-linejoin: round; stroke-miterlimit: 4; stroke-opacity: 1;" d="M 172.45109,111.86508 C 172.45109,129.05271 158.50171,143.00208 141.31409,143.00208 C 124.12646,143.00208 110.17709,129.05271 110.17709,111.86508 C 110.17709,94.677457 124.12646,80.728081 141.31409,80.728081 C 158.50171,80.728081 172.45109,94.677457 172.45109,111.86508 z" id="path2327"/>
      <path transform="matrix(0.246513, -0.0966879, 0.201191, 0.317453, 252.036, 236.63)" style="fill: rgb(179, 50, 131); fill-opacity: 1; fill-rule: evenodd; stroke: none; stroke-width: 2.5; stroke-linecap: round; stroke-linejoin: round; stroke-miterlimit: 4; stroke-opacity: 1;" d="M 172.45109,111.86508 C 172.45109,129.05271 158.50171,143.00208 141.31409,143.00208 C 124.12646,143.00208 110.17709,129.05271 110.17709,111.86508 C 110.17709,94.677457 124.12646,80.728081 141.31409,80.728081 C 158.50171,80.728081 172.45109,94.677457 172.45109,111.86508 z" id="path2328"/>
      <path transform="matrix(0.220662, -0.146375, 0.263461, 0.268034, 142.828, 194.115)" style="fill: rgb(179, 50, 131); fill-opacity: 1; fill-rule: evenodd; stroke: none; stroke-width: 2.5; stroke-linecap: round; stroke-linejoin: round; stroke-miterlimit: 4; stroke-opacity: 1;" d="M 172.45109,111.86508 C 172.45109,129.05271 158.50171,143.00208 141.31409,143.00208 C 124.12646,143.00208 110.17709,129.05271 110.17709,111.86508 C 110.17709,94.677457 124.12646,80.728081 141.31409,80.728081 C 158.50171,80.728081 172.45109,94.677457 172.45109,111.86508 z" id="path2329"/>
      <path transform="matrix(0.241711, -0.108134, 0.215847, 0.307675, 258.134, 284.524)" style="fill: rgb(179, 50, 131); fill-opacity: 1; fill-rule: evenodd; stroke: none; stroke-width: 2.5; stroke-linecap: round; stroke-linejoin: round; stroke-miterlimit: 4; stroke-opacity: 1;" d="M 172.45109,111.86508 C 172.45109,129.05271 158.50171,143.00208 141.31409,143.00208 C 124.12646,143.00208 110.17709,129.05271 110.17709,111.86508 C 110.17709,94.677457 124.12646,80.728081 141.31409,80.728081 C 158.50171,80.728081 172.45109,94.677457 172.45109,111.86508 z" id="path2331"/>
      <path transform="matrix(0.189081, -0.185379, 0.309301, 0.213511, 84.7441, 177.958)" style="fill: rgb(179, 50, 131); fill-opacity: 1; fill-rule: evenodd; stroke: none; stroke-width: 2.5; stroke-linecap: round; stroke-linejoin: round; stroke-miterlimit: 4; stroke-opacity: 1;" d="M 172.45109,111.86508 C 172.45109,129.05271 158.50171,143.00208 141.31409,143.00208 C 124.12646,143.00208 110.17709,129.05271 110.17709,111.86508 C 110.17709,94.677457 124.12646,80.728081 141.31409,80.728081 C 158.50171,80.728081 172.45109,94.677457 172.45109,111.86508 z" id="path2332"/>
      <path transform="matrix(0.220662, -0.146375, 0.263461, 0.268034, 219.048, 300.951)" style="fill: rgb(179, 50, 131); fill-opacity: 1; fill-rule: evenodd; stroke: none; stroke-width: 2.5; stroke-linecap: round; stroke-linejoin: round; stroke-miterlimit: 4; stroke-opacity: 1;" d="M 172.45109,111.86508 C 172.45109,129.05271 158.50171,143.00208 141.31409,143.00208 C 124.12646,143.00208 110.17709,129.05271 110.17709,111.86508 C 110.17709,94.677457 124.12646,80.728081 141.31409,80.728081 C 158.50171,80.728081 172.45109,94.677457 172.45109,111.86508 z" id="path2333"/>
      <path transform="matrix(0.249534, -0.0886009, 0.190736, 0.323842, 262.167, 326.573)" style="fill: rgb(179, 50, 131); fill-opacity: 1; fill-rule: evenodd; stroke: none; stroke-width: 2.5; stroke-linecap: round; stroke-linejoin: round; stroke-miterlimit: 4; stroke-opacity: 1;" d="M 172.45109,111.86508 C 172.45109,129.05271 158.50171,143.00208 141.31409,143.00208 C 124.12646,143.00208 110.17709,129.05271 110.17709,111.86508 C 110.17709,94.677457 124.12646,80.728081 141.31409,80.728081 C 158.50171,80.728081 172.45109,94.677457 172.45109,111.86508 z" id="path2334"/>
      <path transform="matrix(0.189081, -0.185379, 0.309301, 0.213511, 44.0717, 153.326)" style="fill: rgb(179, 50, 131); fill-opacity: 1; fill-rule: evenodd; stroke: none; stroke-width: 2.5; stroke-linecap: round; stroke-linejoin: round; stroke-miterlimit: 4; stroke-opacity: 1;" d="M 172.45109,111.86508 C 172.45109,129.05271 158.50171,143.00208 141.31409,143.00208 C 124.12646,143.00208 110.17709,129.05271 110.17709,111.86508 C 110.17709,94.677457 124.12646,80.728081 141.31409,80.728081 C 158.50171,80.728081 172.45109,94.677457 172.45109,111.86508 z" id="path2335"/>
      <path transform="matrix(0.220662, -0.146375, 0.263461, 0.268034, 171.68, 283.343)" style="fill: rgb(179, 50, 131); fill-opacity: 1; fill-rule: evenodd; stroke: none; stroke-width: 2.5; stroke-linecap: round; stroke-linejoin: round; stroke-miterlimit: 4; stroke-opacity: 1;" d="M 172.45109,111.86508 C 172.45109,129.05271 158.50171,143.00208 141.31409,143.00208 C 124.12646,143.00208 110.17709,129.05271 110.17709,111.86508 C 110.17709,94.677457 124.12646,80.728081 141.31409,80.728081 C 158.50171,80.728081 172.45109,94.677457 172.45109,111.86508 z" id="path2337"/>
      <path transform="matrix(0.220662, -0.146375, 0.263461, 0.268034, 105.519, 217.287)" style="fill: rgb(179, 50, 131); fill-opacity: 1; fill-rule: evenodd; stroke: none; stroke-width: 2.5; stroke-linecap: round; stroke-linejoin: round; stroke-miterlimit: 4; stroke-opacity: 1;" d="M 172.45109,111.86508 C 172.45109,129.05271 158.50171,143.00208 141.31409,143.00208 C 124.12646,143.00208 110.17709,129.05271 110.17709,111.86508 C 110.17709,94.677457 124.12646,80.728081 141.31409,80.728081 C 158.50171,80.728081 172.45109,94.677457 172.45109,111.86508 z" id="path2338"/>
    </g>
  </g>
</svg>