<?xml version="1.0" encoding="UTF-8" standalone="no"?>
<!-- Created with Inkscape (http://www.inkscape.org/) -->

<svg
   xmlns:dc="http://purl.org/dc/elements/1.1/"
   xmlns:cc="http://creativecommons.org/ns#"
   xmlns:rdf="http://www.w3.org/1999/02/22-rdf-syntax-ns#"
   xmlns:svg="http://www.w3.org/2000/svg"
   xmlns="http://www.w3.org/2000/svg"
   xmlns:xlink="http://www.w3.org/1999/xlink"
   xmlns:sodipodi="http://sodipodi.sourceforge.net/DTD/sodipodi-0.dtd"
   xmlns:inkscape="http://www.inkscape.org/namespaces/inkscape"
   id="svg2"
   sodipodi:version="0.32"
   inkscape:version="0.47 r22583"
   width="90"
   height="90"
   sodipodi:docname="valessiobrito_Bug_Buddy_Vector.svg"
   inkscape:output_extension="org.inkscape.output.svg.inkscape"
   version="1.0"
   inkscape:export-filename="/home/valessio/Desktop/bug-buddy.png"
   inkscape:export-xdpi="150"
   inkscape:export-ydpi="150"
   sodipodi:modified="TRUE">
  <metadata
     id="metadata7">
    <rdf:RDF>
      <cc:Work
         rdf:about="">
        <dc:format>image/svg+xml</dc:format>
        <dc:type
           rdf:resource="http://purl.org/dc/dcmitype/StillImage" />
        <dc:title></dc:title>
      </cc:Work>
    </rdf:RDF>
  </metadata>
  <defs
     id="defs5">
    <inkscape:perspective
       sodipodi:type="inkscape:persp3d"
       inkscape:vp_x="0 : 45 : 1"
       inkscape:vp_y="0 : 1000 : 0"
       inkscape:vp_z="90 : 45 : 1"
       inkscape:persp3d-origin="45 : 30 : 1"
       id="perspective81" />
    <linearGradient
       id="linearGradient14570">
      <stop
         id="stop14572"
         offset="0"
         style="stop-color:#d7d7a5;stop-opacity:1;" />
      <stop
         style="stop-color:#7eac53;stop-opacity:1;"
         offset="0.5"
         id="stop14574" />
      <stop
         id="stop14576"
         offset="1"
         style="stop-color:#302a00;stop-opacity:1;" />
    </linearGradient>
    <linearGradient
       id="linearGradient9207">
      <stop
         style="stop-color:#ffffff;stop-opacity:0.3125;"
         offset="0"
         id="stop9209" />
      <stop
         style="stop-color:#000000;stop-opacity:1;"
         offset="1"
         id="stop9211" />
    </linearGradient>
    <linearGradient
       id="linearGradient6258">
      <stop
         style="stop-color:#7f8767;stop-opacity:1;"
         offset="0"
         id="stop6260" />
      <stop
         id="stop7251"
         offset="0.5"
         style="stop-color:#322e00;stop-opacity:1;" />
      <stop
         style="stop-color:#000000;stop-opacity:1;"
         offset="1"
         id="stop6262" />
    </linearGradient>
    <linearGradient
       id="linearGradient4253">
      <stop
         style="stop-color:#d7d7a5;stop-opacity:1;"
         offset="0"
         id="stop4255" />
      <stop
         id="stop4263"
         offset="0.5"
         style="stop-color:#a6ac53;stop-opacity:1;" />
      <stop
         style="stop-color:#4d6b29;stop-opacity:1;"
         offset="0.75"
         id="stop15547" />
      <stop
         style="stop-color:#302a00;stop-opacity:1;"
         offset="1"
         id="stop4257" />
    </linearGradient>
    <filter
       inkscape:collect="always"
       id="filter4231">
      <feGaussianBlur
         inkscape:collect="always"
         stdDeviation="0.41373736"
         id="feGaussianBlur4233" />
    </filter>
    <radialGradient
       inkscape:collect="always"
       xlink:href="#linearGradient9207"
       id="radialGradient4259"
       cx="276.14157"
       cy="377.27689"
       fx="276.14157"
       fy="377.27689"
       r="17.943863"
       gradientTransform="matrix(0.7820307,1.3510426,-1.2576851,0.7279918,298.15546,-612.03253)"
       gradientUnits="userSpaceOnUse" />
    <radialGradient
       inkscape:collect="always"
       xlink:href="#linearGradient5987"
       id="radialGradient5239"
       cx="284.92865"
       cy="358.60562"
       fx="284.92865"
       fy="358.60562"
       r="10.06257"
       gradientTransform="matrix(1.7870399,0.5069016,-0.1767663,0.6553333,-396.8531,-360.12431)"
       gradientUnits="userSpaceOnUse" />
    <radialGradient
       inkscape:collect="always"
       xlink:href="#linearGradient6258"
       id="radialGradient6264"
       cx="264.2775"
       cy="388.30884"
       fx="264.2775"
       fy="388.30884"
       r="14.625"
       gradientTransform="matrix(0.7030909,0.050608,-0.4032585,2.5425971,238.99746,-622.07527)"
       gradientUnits="userSpaceOnUse" />
    <filter
       inkscape:collect="always"
       id="filter9203">
      <feGaussianBlur
         inkscape:collect="always"
         stdDeviation="0.51616105"
         id="feGaussianBlur9205" />
    </filter>
    <radialGradient
       inkscape:collect="always"
       xlink:href="#linearGradient9207"
       id="radialGradient9213"
       cx="276.03513"
       cy="398.47885"
       fx="276.03513"
       fy="398.47885"
       r="7.9274831"
       gradientTransform="matrix(1.111648,-2.3848099,0.6486,0.3023363,-522.66003,601.30579)"
       gradientUnits="userSpaceOnUse" />
    <radialGradient
       inkscape:collect="always"
       xlink:href="#linearGradient6258"
       id="radialGradient9247"
       cx="277.88022"
       cy="376.63364"
       fx="277.88022"
       fy="376.63364"
       r="19.872511"
       gradientTransform="matrix(-1.7776885,0.1765536,-0.1811767,-1.1739415,796.64528,747.5219)"
       gradientUnits="userSpaceOnUse" />
    <radialGradient
       inkscape:collect="always"
       xlink:href="#linearGradient6258"
       id="radialGradient9255"
       cx="221.22629"
       cy="359.26276"
       fx="221.22629"
       fy="359.26276"
       r="19.872511"
       gradientTransform="matrix(1.9155598,-1.0437184,1.1043829,1.304345,-603.94043,114.51493)"
       gradientUnits="userSpaceOnUse" />
    <radialGradient
       inkscape:collect="always"
       xlink:href="#linearGradient6258"
       id="radialGradient9263"
       cx="190.13794"
       cy="332.07556"
       fx="190.13794"
       fy="332.07556"
       r="19.872511"
       gradientTransform="matrix(2.235496,0.4159046,-0.1130544,0.6076648,-160.03038,71.259284)"
       gradientUnits="userSpaceOnUse" />
    <radialGradient
       inkscape:collect="always"
       xlink:href="#linearGradient4253"
       id="radialGradient10236"
       gradientUnits="userSpaceOnUse"
       gradientTransform="matrix(-1.5761011,-0.1101748,-0.1215745,-0.7890727,1063.77,689.88559)"
       cx="498.82675"
       cy="357.88477"
       fx="498.82675"
       fy="357.88477"
       r="19.872511" />
    <radialGradient
       inkscape:collect="always"
       xlink:href="#linearGradient4253"
       id="radialGradient10240"
       gradientUnits="userSpaceOnUse"
       gradientTransform="matrix(1.4399227,0.055563,-0.04298567,0.7168789,-83.402813,84.977829)"
       cx="221.89896"
       cy="355.28787"
       fx="221.89896"
       fy="355.28787"
       r="19.872511" />
    <linearGradient
       id="linearGradient5070">
      <stop
         id="stop5072"
         offset="0"
         style="stop-color:#ff7251;stop-opacity:1;" />
      <stop
         style="stop-color:#70130a;stop-opacity:1;"
         offset="0.40000001"
         id="stop5080" />
      <stop
         id="stop5074"
         offset="1"
         style="stop-color:#420b06;stop-opacity:1;" />
    </linearGradient>
    <linearGradient
       id="linearGradient5987">
      <stop
         id="stop5989"
         offset="0"
         style="stop-color:#cb9090;stop-opacity:1;" />
      <stop
         style="stop-color:#4c2a2a;stop-opacity:1;"
         offset="0.2"
         id="stop5995" />
      <stop
         id="stop5991"
         offset="1"
         style="stop-color:#140000;stop-opacity:1;" />
    </linearGradient>
    <linearGradient
       id="linearGradient5094">
      <stop
         style="stop-color:#ff7251;stop-opacity:1;"
         offset="0"
         id="stop5096" />
      <stop
         id="stop5098"
         offset="0.40000001"
         style="stop-color:#70130a;stop-opacity:1;" />
      <stop
         style="stop-color:#420b06;stop-opacity:0;"
         offset="1"
         id="stop5100" />
    </linearGradient>
    <filter
       inkscape:collect="always"
       id="filter13597">
      <feGaussianBlur
         inkscape:collect="always"
         stdDeviation="1.4711815"
         id="feGaussianBlur13599" />
    </filter>
    <filter
       inkscape:collect="always"
       id="filter16558">
      <feGaussianBlur
         inkscape:collect="always"
         stdDeviation="0.80484375"
         id="feGaussianBlur16560" />
    </filter>
    <filter
       inkscape:collect="always"
       id="filter3693"
       x="-0.36341989"
       width="1.7268398"
       y="-0.39021623"
       height="1.7804325"
       inkscape:label="Fuzzy Glow"
       inkscape:menu="Shadows and Glows"
       inkscape:menu-tooltip="Overlays a semi-transparent shifted copy to a blurred one"
       color-interpolation-filters="sRGB">
      <feGaussianBlur
         inkscape:collect="always"
         stdDeviation="2.744936"
         id="feGaussianBlur3695"
         result="fbSourceGraphic" />
      <feColorMatrix
         result="fbSourceGraphicAlpha"
         in="fbSourceGraphic"
         values="0 0 0 -1 0 0 0 0 -1 0 0 0 0 -1 0 0 0 0 1 0"
         id="feColorMatrix3697" />
      <feOffset
         id="feOffset3699"
         dx="4"
         dy="4"
         result="result11"
         in="fbSourceGraphic" />
      <feGaussianBlur
         id="feGaussianBlur3701"
         stdDeviation="4"
         result="result8" />
      <feComposite
         id="feComposite3703"
         in2="result8"
         result="result9"
         in="fbSourceGraphic"
         operator="in" />
      <feBlend
         id="feBlend3705"
         in2="result8"
         in="result9"
         mode="darken" />
    </filter>
  </defs>
  <sodipodi:namedview
     inkscape:window-height="837"
     inkscape:window-width="1568"
     inkscape:pageshadow="2"
     inkscape:pageopacity="0.0"
     guidetolerance="10.0"
     gridtolerance="10.0"
     objecttolerance="10.0"
     borderopacity="1.0"
     bordercolor="#666666"
     pagecolor="#ffffff"
     id="base"
     inkscape:zoom="9.1456918"
     inkscape:cx="81.195706"
     inkscape:cy="33.420793"
     inkscape:window-x="2014"
     inkscape:window-y="91"
     inkscape:current-layer="g16562"
     showguides="true"
     inkscape:guide-bbox="true"
     width="90px"
     height="90px"
     showgrid="false"
     inkscape:window-maximized="0" />
  <g
     inkscape:groupmode="layer"
     id="layer2"
     inkscape:label="Foto" />
  <g
     inkscape:groupmode="layer"
     id="layer1"
     inkscape:label="Desenho">
    <g
       id="g16562"
       transform="translate(1.214489,-1.214489)">
      <path
         transform="matrix(1.1708165,0,0,1.1708165,-7.2984449,-12.061454)"
         sodipodi:nodetypes="cccsscsccccccssccccccccscsccsccccccccccccccccccccssccscscsscsccscscccccccsssscc"
         id="path11588"
         d="m 40.041198,13.309784 c 0.07556,3.24895 0.55825,5.47163 1,6.71875 -1.17634,4.55473 -3.60661,7.99368 -1.8125,12.625 -2.20673,1.72235 -4.11581,3.99433 -5.71875,6.5 -0.0077,0.01205 -0.02356,0.01919 -0.03125,0.03125 -0.18946,0.14741 -0.3261,0.32896 -0.375,0.5625 -0.25562,0.42115 -0.48328,0.84769 -0.71875,1.28125 -0.0068,0.0126 -0.02442,0.01864 -0.03125,0.03125 -3.13074,2.42767 -5.29582,2.45264 -6.8125,4.40625 -3.68538,1.65937 -5.2617,5.89297 -8.07124,7.15252 -1.31006,0.86035 0.60588,2.5033 1.625,1.5 2.38693,-0.91449 4.99155,-5.74813 7.10249,-7.96502 1.52205,-0.64361 3.1054,-1.2367 4.625,-1.875 -0.10521,0.26222 -0.21497,0.51732 -0.3125,0.78125 -0.44499,1.2042 -0.8298,2.40822 -1.15625,3.5625 -0.06388,0.22589 -0.12827,0.43214 -0.1875,0.65625 -0.86044,0.08588 -1.54249,1.02061 -2.28125,1.4375 -1.88813,3.88379 -5.86571,6.3604 -6.375,8.65625 -2.81905,1.97892 -4.81887,5.03796 -5.84375,9.53125 0.69515,0.91075 1.71477,-0.12772 1.84375,-0.9375 0.89659,-2.29686 3.21974,-4.61533 4.375,-7.5625 1.85705,-1.60069 5.12401,-4.99196 7.65625,-8.28125 -1.18192,6.61089 -0.12036,12.49768 3.6875,18.3125 0.31491,-1.03576 0.64991,-2.04103 1,-3.0625 0.06542,-0.19092 0.15213,-0.37206 0.21875,-0.5625 1.91709,2.79539 4.6863,4.46875 8.0625,4.46875 1.83872,0 3.69826,-0.50491 5.5,-1.40625 -0.29558,1.26117 -0.59084,2.53522 -0.90625,3.78125 0.53838,-0.27987 1.06628,-0.57575 1.59375,-0.875 4.00583,-2.27261 7.64869,-5.11517 10.46875,-8.59375 -0.22528,3.67042 -1.80076,7.02286 -1.1875,8.96875 -1.45193,3.1233 -1.67157,6.78376 -0.3125,11.1875 1.05738,0.44114 1.41819,-0.95297 1.125,-1.71875 -0.37195,-2.43744 0.50434,-5.62005 0.03125,-8.75 0.95129,-2.72561 2.35701,-8.56065 2.71875,-13.125 1.28196,-2.21443 2.23432,-4.65074 2.78125,-7.3125 1.55767,2.84148 2.50213,4.93109 3.78125,6.46875 0.64169,2.96617 1.04648,4.33391 1.53125,6.59375 0.44632,1.12445 2.11667,0.24249 1.5,-0.71875 -0.28632,-1.87963 -0.95449,-4.12924 -2.34375,-6.15625 -0.51856,-2.72138 -2.26023,-6.34407 -3.625,-8.46875 -0.16022,-0.0024 -0.3088,-0.02328 -0.46875,-0.03125 0.45508,-3.69329 0.35758,-7.28036 -0.5,-10.46875 0.15527,-0.08893 0.30014,-0.19399 0.40625,-0.3125 2.11883,-1.34433 4.19059,-3.72009 3.75,-6.40625 1.43246,-2.01376 3.02997,-6.01526 6.125,-9.625 0.2329,-0.53483 -0.27754,-1.13978 -0.84375,-1.03125 -2.89467,4.67275 -5.47679,6.73398 -7.65625,11.4375 -0.66893,1.39717 -1.65192,2.63066 -2.46875,3.9375 -0.03685,-0.09269 -0.05538,-0.18946 -0.09375,-0.28125 -0.05725,-0.13694 -0.12684,-0.27137 -0.1875,-0.40625 -0.99635,-2.21532 -2.43105,-4.16509 -4.4375,-5.6875 2.05989,1.54193 3.6695,3.51094 4.4375,5.6875 0.0043,-0.74385 -0.10311,-1.50967 -0.3125,-2.3125 -0.57075,-2.18825 -1.86624,-4.18549 -3.59375,-5.78125 1.94035,0.59627 3.78207,0.24312 4.34375,-0.96875 0.49042,-1.05813 -0.1342,-2.4665 -1.4375,-3.53125 -0.2701,-0.61607 -1.00665,-1.22342 -2.0625,-1.5625 -1.38572,-0.44501 -2.83272,-0.28901 -3.5,0.3125 -0.0222,0.0092 -0.04075,0.02154 -0.0625,0.03125 -0.56743,-0.22056 -1.18129,-0.40416 -1.84375,-0.53125 -0.23126,-0.04436 -0.46107,-0.06473 -0.6875,-0.09375 -0.48814,-0.9487 -1.77768,-1.63493 -3.375,-1.78125 -0.49025,-0.21349 -1.08995,-0.34879 -1.75,-0.3125 -1.28674,0.07074 -2.31746,0.71131 -2.59375,1.46875 -0.64536,0.52492 -1.03811,1.15064 -1,1.84375 0.05134,0.93384 0.84053,1.71221 2,2.15625 -1.74673,0.7163 -3.03189,2.00901 -3.71875,3.65625 -0.62638,0.30012 -1.24612,0.61938 -1.84375,1 -0.86956,-4.05903 1.4523,-8.08334 1.28125,-11.65625 0.70433,-1.93039 -0.1227,-3.4505 -1.09375,-5.8125 -0.10976,-0.44304 -0.39241,-0.87558 -0.9375,-0.78125 z m 7.46875,15.75 c 0.04106,-0.0027 0.0837,0.0023 0.125,0 -0.25186,0.05579 -0.49883,0.11485 -0.75,0.1875 -0.13368,0.01896 -0.27335,0.03954 -0.40625,0.0625 -0.28581,0.04937 -0.56171,0.08887 -0.84375,0.15625 -0.95078,0.22714 -1.87998,0.58453 -2.78125,1 1.25897,-0.78289 2.83754,-1.28744 4.65625,-1.40625 z"
         style="fill:#000000;fill-opacity:1;fill-rule:evenodd;stroke:none;filter:url(#filter13597)" />
      <g
         transform="matrix(1.1708165,0,0,1.1708165,-283.70001,-403.49844)"
         style="fill:#333333;fill-opacity:1"
         id="g11520">
        <path
           style="fill:#333333;fill-opacity:1;fill-rule:evenodd;stroke:none"
           d="m 266.913,372.38594 c -2.61074,0.10273 -5.34731,1.66772 -6.31944,4.15672 -2.06114,0.10219 -4.04441,1.24008 -4.80093,3.22107 -2.16423,0.22961 -2.11696,2.89416 -1.7946,4.4865 0.12252,1.18743 0.55346,2.69007 -0.45249,3.52784 -0.32133,1.15443 1.32069,1.4075 1.77926,0.46015 1.7843,-1.89222 0.53299,-4.68903 1.14272,-6.9023 1.22899,-1.42858 3.00374,-2.0593 4.59386,-2.97566 2.55375,-2.11674 5.68385,-4.06148 9.12638,-3.39746 1.17228,-0.0358 0.88494,-1.73078 -0.14572,-1.75625 -0.92351,-0.5956 -2.0368,-0.86305 -3.12904,-0.82061 z"
           id="path6958" />
        <path
           style="fill:#333333;fill-opacity:1;fill-rule:evenodd;stroke:none"
           d="m 275.89366,348.12819 c -1.15063,0.28258 -0.10075,1.68147 -0.92798,2.31611 -1.0267,1.27155 -3.31825,2.56342 -2.36212,4.5095 0.44591,1.88051 1.41109,3.74644 2.65355,5.2074 -2.02872,2.3763 -1.18437,6.04781 0.33745,8.45148 0.9847,0.68667 1.58557,-0.82259 1.22211,-1.60265 -0.16002,-2.43084 0.0725,-4.88893 0.20436,-7.27831 -0.11725,-2.02476 -1.47305,-3.71243 -2.76092,-5.09236 0.70433,-1.93039 3.55558,-3.35924 2.58453,-5.72124 -0.10976,-0.44304 -0.40589,-0.88426 -0.95098,-0.78993 z"
           id="path6956" />
        <path
           style="fill:#333333;fill-opacity:1;fill-rule:evenodd;stroke:none"
           d="m 264.87298,384.28857 c -2.1786,1.98582 -3.94087,4.44642 -6.29295,6.26982 -2.34785,1.72286 -2.83035,4.96791 -2.7874,7.62681 -2.00647,1.39351 -3.73141,3.22392 -5.3838,4.97733 -0.32896,1.04934 1.20903,1.45444 1.67956,0.55985 2.51636,-1.85065 5.42958,-3.71559 6.36546,-6.91764 0.57051,-1.34221 0.58799,-3.08868 0.8973,-4.32544 3.19279,-0.25501 5.30535,-3.39265 6.23507,-6.18906 0.37504,-0.78152 0.69527,-2.21784 -0.71324,-2.00167 z"
           id="path11500" />
        <path
           style="fill:#333333;fill-opacity:1;fill-rule:evenodd;stroke:none"
           d="m 295.63424,394.76473 c -1.00638,0.34302 -1.11758,1.71909 -1.61054,2.55385 -0.87257,2.4283 -1.19545,5.69217 0.73624,7.67689 -2.62403,2.76003 -4.12295,6.71946 -3.12064,10.50371 0.47736,1.15981 -0.0679,2.79808 0.8889,3.68435 1.05739,0.44115 1.42057,-0.96746 1.12738,-1.73324 -0.0213,-2.02009 -0.10982,-4.20386 -0.34512,-6.12004 2.25457,-1.98435 3.88888,-5.02343 3.18273,-8.06802 -0.31123,-2.68382 0.16521,-5.42967 -0.0537,-8.08336 -0.15734,-0.28183 -0.48555,-0.45088 -0.80526,-0.41414 z"
           id="path11502" />
        <path
           style="fill:#333333;fill-opacity:1;fill-rule:evenodd;stroke:none"
           d="m 308.50319,358.11352 c -1.85307,0.6745 -1.89207,3.01135 -1.48016,4.63988 0.065,0.80669 0.50499,2.29563 -0.81294,2.17039 -2.44444,0.51599 -4.55972,2.2453 -5.35311,4.63988 -0.91884,1.91913 -2.43213,3.52916 -3.2901,5.44514 0.10022,1.09699 1.39546,0.743 1.90964,0.16873 2.11884,-1.34432 4.1985,-3.73298 3.75791,-6.41914 2.26629,-0.60653 4.2855,-2.02559 5.81327,-3.73491 0.98246,-1.87307 -1.44199,-4.29068 0.2991,-5.87463 0.2329,-0.53482 -0.2774,-1.14387 -0.84361,-1.03534 z"
           id="path11504" />
        <path
           style="fill:#333333;fill-opacity:1;fill-rule:evenodd;stroke:none"
           d="m 298.26478,385.94512 c -1.00195,0.30445 -0.47828,1.62036 0.47549,1.51851 2.77325,0.75673 4.53019,3.17964 5.82861,5.58319 0.87579,0.93369 2.04728,2.00009 2.17806,3.28243 -0.93711,1.47175 -3.25438,2.99038 -2.23941,5.00033 0.44632,1.12446 2.11216,0.23267 1.49549,-0.72857 0.77645,-1.55227 3.2514,-2.40899 2.96799,-4.42514 -0.28392,-0.68041 -1.08435,-0.89566 -0.8206,-1.75625 -0.0183,-1.49885 -1.64284,-2.25479 -2.50017,-3.02935 0.19241,-2.98477 -2.91058,-5.11708 -5.6062,-5.4068 -0.59748,-0.009 -1.19487,-0.0802 -1.77926,-0.0384 z"
           id="path11506" />
      </g>
      <g
         style="fill:#808080;filter:url(#filter16558)"
         transform="matrix(0.4548966,0,0,0.4548966,24.052688,25.057723)"
         id="g15581">
        <path
           style="fill:#808080;fill-opacity:1;fill-rule:evenodd;stroke:none"
           d="m 11.0625,18.9375 c -6.8618435,-0.05142 -12.3901314,4.92031 -15.59375,10.5 -5.1569587,-0.02543 -9.518203,3.341518 -11.769562,7.669822 -5.536016,1.17291 -4.089976,8.042508 -3.386688,12.173928 1.124634,2.191754 -0.776743,6.573533 -0.8125,7.34375 5.937074,-5.879831 -1.85563,-17.168813 6.96875,-21.4375 9.8765486,-4.488991 17.8822545,-14.352319 29.625,-14.03125 1.912936,0.220161 4.774905,0.376938 1.28125,-0.71875 -1.857926,-1.118882 -4.119942,-1.57368 -6.3125,-1.5 z"
           id="path15551" />
        <path
           style="fill:#808080;fill-opacity:1;fill-rule:evenodd;stroke:none"
           d="m 34.375,-41.40625 c 0.305525,5.907409 -10.217695,7.92742 -6.75,14.28125 0.993159,5.067962 4.490542,8.788529 6.5625,13.21875 -4.638794,5.3170249 -3.342463,14.44130987 0.1875,19.0625 -1.370142,-7.7322911 1.323987,-16.014336 -0.34375,-23.5625 -0.961143,-5.003237 -9.420234,-8.733198 -4.46875,-13.75 1.932178,-2.995205 6.471206,-5.984694 4.78125,-10.0625 l 0.03125,0.8125 z"
           id="path15553" />
        <path
           style="fill:#808080;fill-opacity:1;fill-rule:evenodd;stroke:none"
           d="m 6.09375,49.6875 c -5.73384646,6.352321 -11.9215793,12.210784 -18.03125,18.09375 -3.719136,4.724811 -2.583238,11.201741 -4.28125,16.5 -4.503162,3.171454 -9.709356,8.162885 -12.4375,11.65625 7.554213,-5.694891 16.830083,-12.236791 17.46875,-22.71875 -0.08068,-3.951428 1.2930797,-7.84157 5.78125,-7.78125 6.4590587,-2.705773 10.094054,-9.651146 11.75,-16 l -0.25,0.25 z"
           id="path15555" />
        <path
           style="fill:#808080;fill-opacity:1;fill-rule:evenodd;stroke:none"
           d="m 84.15625,76.21875 c -4.073971,6.978344 -5.931567,17.169728 -0.25,23.90625 -6.483871,7.61781 -11.153017,18.10295 -7.5,28.21875 0.295684,1.91707 -0.07795,4.0379 0.75,5.8125 0.475278,-6.39371 -1.372784,-13.21523 -0.34375,-19.46875 6.392237,-5.15694 9.33413,-13.68802 7.28125,-21.59375 -0.335101,-5.587991 0.575278,-11.475181 0.0625,-16.875 z"
           id="path15557" />
        <path
           style="fill:#808080;fill-opacity:1;fill-rule:evenodd;stroke:none"
           d="m 116.53125,-16.96875 c -5.27838,4.401201 2.61035,13.1429964 -3.625,16.6875 -7.69796,0.44149258 -12.72683,7.0573425 -15.21875,13.71875 -1.827268,3.261216 -5.012235,6.888328 -6.0625,9.8125 6.048883,-3.431531 10.89415,-9.656284 10.34375,-16.875 5.40551,-2.3178995 12.305,-4.8669971 14.9375,-10.53125 -0.096,-4.1303241 -3.05609,-9.154698 -0.375,-12.8125 z"
           id="path15559" />
        <path
           style="fill:#808080;fill-opacity:1;fill-rule:evenodd;stroke:none"
           d="m 93.25,53.59375 c 9.86728,2.970165 13.68166,13.397061 19.9375,20.46875 5.07166,6.153879 -7.73839,10.108638 -4.4375,15.875 -1.05679,-5.372429 8.18995,-7.094567 7.125,-12.1875 -3.14519,-2.191827 -0.50134,-6.879092 -4.53125,-8.53125 -5.17428,-2.167506 -2.68637,-9.067994 -7.46875,-11.875 -2.86106,-2.569156 -7.595072,-4.119781 -10.625,-3.75 z"
           id="path15561" />
      </g>
      <path
         transform="matrix(0.3232269,0.06200924,-0.06200924,0.3232269,4.3563756,-109.86559)"
         d="m 244.29483,356.82434 c 0,5.48764 -8.89723,9.93626 -19.87251,9.93626 -10.97529,0 -19.87251,-4.44862 -19.87251,-9.93626 0,-5.48764 8.89722,-9.93625 19.87251,-9.93625 10.97528,0 19.87251,4.44861 19.87251,9.93625 z"
         sodipodi:ry="9.9362555"
         sodipodi:rx="19.872511"
         sodipodi:cy="356.82434"
         sodipodi:cx="224.42232"
         id="path9235"
         style="fill:url(#radialGradient9263);fill-opacity:1;stroke:none"
         sodipodi:type="arc" />
      <path
         sodipodi:type="arc"
         style="fill:url(#radialGradient6264);fill-opacity:1;stroke:none"
         id="path6248"
         sodipodi:cx="270.375"
         sodipodi:cy="378.61218"
         sodipodi:rx="14.625"
         sodipodi:ry="20"
         d="m 285,378.61218 c 0,11.0457 -6.54784,20 -14.625,20 -8.07716,0 -14.625,-8.9543 -14.625,-20 0,-11.04569 6.54784,-20 14.625,-20 8.07716,0 14.625,8.95431 14.625,20 z"
         transform="matrix(1.1708165,0,-0.2487985,1.2439925,-176.33018,-423.88616)" />
      <path
         id="path4265"
         d="m 50.648995,19.312674 c -4.058799,0 -7.076064,2.030618 -8.313207,5.085734 1.736473,-1.173497 4.042045,-1.865988 6.74333,-1.865988 7.035975,-1.2e-5 14.178646,4.639371 16.233944,10.464172 0.0051,-0.870924 -0.111626,-1.767547 -0.356783,-2.707513 C 63.375957,24.230103 56.97028,19.312663 50.648995,19.312674 z"
         style="fill:url(#radialGradient5239);fill-opacity:1.0;stroke:none" />
      <path
         transform="matrix(1.1708165,0,0,1.1708165,-7.2984449,-12.061454)"
         sodipodi:nodetypes="ccczzzc"
         id="path2169"
         d="m 32.020918,70.955314 c 4.00948,-13.1873 10.93258,-25.19015 19.1913,-36.67672 0.41818,11.7991 -1.91233,26.37028 -5.33091,39.87527 8.6141,-4.47797 15.97507,-11.41276 17.48541,-21.53691 1.47921,-9.91551 -0.92494,-19.29064 -10.87508,-22.38986 -9.75558,-3.03862 -18.59178,5.65194 -22.17661,15.35305 -3.55989,9.63361 -3.40386,17.57228 1.70589,25.37517 z"
         style="fill:#000000;fill-opacity:1;fill-rule:evenodd;stroke:none;filter:url(#filter4231)" />
      <path
         transform="matrix(1.1708165,0,0,1.1708165,-7.2984449,-12.061454)"
         sodipodi:nodetypes="cssscsscsscscccssc"
         id="path8224"
         d="m 36.077448,66.095984 c 1.37659,-0.29134 1.63681,1.26989 3.51449,2.19656 2.36369,1.16653 5.3856,0.21455 5.49139,-0.87862 0.16474,-1.70233 -11.28952,-6.39124 -9.75193,-8.31322 1.30176,-1.6272 10.63055,6.33632 10.63055,6.33632 0,0 1.09828,-0.87862 1.09828,-3.73415 0,-2.85552 -10.38113,-5.90445 -10.16147,-7.16747 0.60335,-3.46927 10.38113,5.41023 10.38113,5.41023 0,0 1.31793,-4.39312 0.65896,-5.71105 -0.65896,-1.31793 -8.70221,-2.44312 -7.4941,-4.36511 1.25899,-2.00293 8.37273,3.48649 8.37273,3.48649 0,0 1.9769,-3.29484 0.21965,-4.83243 -1.75724,-1.53759 -5.00351,-3.55168 -5.00351,-3.55168 0.87189,-1.21597 5.41459,2.10186 6.5411,3.11237 l -3.07518,21.3066 c 0,0 -5.05208,2.19656 -7.46829,1.75724 -2.41621,-0.43931 -5.71105,-2.41621 -5.27174,-3.29483 0.43932,-0.87862 0.21966,-1.81216 1.31794,-1.75725 z"
         style="fill:url(#radialGradient9213);fill-opacity:1;fill-rule:evenodd;stroke:none;filter:url(#filter9203)" />
      <path
         sodipodi:type="arc"
         style="fill:#ffff00;filter:url(#filter3693)"
         id="path2899"
         sodipodi:cx="45.543339"
         sodipodi:cy="64.293312"
         sodipodi:rx="9.5134974"
         sodipodi:ry="7.4893494"
         d="m 55.056836,64.293312 a 9.5134974,7.4893494 0 1 1 -19.026995,0 9.5134974,7.4893494 0 1 1 19.026995,0 z"
         transform="matrix(0.56652187,0.73334124,-0.79161485,1.2380762,66.589286,-51.944144)">
        <title
           id="title2919">Glow</title>
      </path>
      <path
         style="fill:url(#radialGradient4259);fill-opacity:1;fill-rule:evenodd;stroke:none"
         d="M 30.192173,71.014198 C 33.136706,61.32952 37.423405,52.190454 42.596307,43.403945 45.670356,38.182466 51.437704,27.892031 52.661664,28.072489 53.638289,28.30773 52.45484,41.095434 51.558041,48.1796 50.452134,56.915611 48.630367,66.027678 46.420146,74.759113 56.505677,69.516231 65.124022,61.396865 66.892353,49.543343 68.624236,37.934101 65.809418,26.957544 54.15963,23.328926 42.737636,19.77126 32.392068,29.94631 28.19489,41.30453 24.026911,52.58372 24.209594,61.878445 30.192173,71.014198 z"
         id="path4235"
         sodipodi:nodetypes="cscsczzzc" />
      <path
         transform="matrix(-0.2395426,-0.1110232,-0.1383987,0.2986078,164.20489,-61.480396)"
         d="m 244.29483,356.82434 c 0,5.48764 -8.89723,9.93626 -19.87251,9.93626 -10.97529,0 -19.87251,-4.44862 -19.87251,-9.93626 0,-5.48764 8.89722,-9.93625 19.87251,-9.93625 10.97528,0 19.87251,4.44861 19.87251,9.93625 z"
         sodipodi:ry="9.9362555"
         sodipodi:rx="19.872511"
         sodipodi:cy="356.82434"
         sodipodi:cx="224.42232"
         id="path9239"
         style="fill:url(#radialGradient9247);fill-opacity:1;stroke:none"
         sodipodi:type="arc" />
      <path
         sodipodi:type="arc"
         style="fill:url(#radialGradient10236);fill-opacity:1;stroke:none"
         id="path10234"
         sodipodi:cx="224.42232"
         sodipodi:cy="356.82434"
         sodipodi:rx="19.872511"
         sodipodi:ry="9.9362555"
         d="m 244.29483,356.82434 c 0,5.48764 -8.89723,9.93626 -19.87251,9.93626 -10.97529,0 -19.87251,-4.44862 -19.87251,-9.93626 0,-5.48764 8.89722,-9.93625 19.87251,-9.93625 10.97528,0 19.87251,4.44861 19.87251,9.93625 z"
         transform="matrix(-0.1717234,-0.05514803,-0.09849696,0.1844483,134.42653,-35.187498)" />
      <path
         sodipodi:type="arc"
         style="fill:url(#radialGradient9255);fill-opacity:1;stroke:none"
         id="path9237"
         sodipodi:cx="224.42232"
         sodipodi:cy="356.82434"
         sodipodi:rx="19.872511"
         sodipodi:ry="9.9362555"
         d="m 244.29483,356.82434 c 0,5.48764 -8.89723,9.93626 -19.87251,9.93626 -10.97529,0 -19.87251,-4.44862 -19.87251,-9.93626 0,-5.48764 8.89722,-9.93625 19.87251,-9.93625 10.97528,0 19.87251,4.44861 19.87251,9.93625 z"
         transform="matrix(0.2636224,-0.01449388,0.01806775,0.328625,-15.988282,-96.781264)" />
      <path
         transform="matrix(0.1638505,-0.00900845,0.01122974,0.204252,7.9247194,-55.187831)"
         d="m 244.29483,356.82434 c 0,5.48764 -8.89723,9.93626 -19.87251,9.93626 -10.97529,0 -19.87251,-4.44862 -19.87251,-9.93626 0,-5.48764 8.89722,-9.93625 19.87251,-9.93625 10.97528,0 19.87251,4.44861 19.87251,9.93625 z"
         sodipodi:ry="9.9362555"
         sodipodi:rx="19.872511"
         sodipodi:cy="356.82434"
         sodipodi:cx="224.42232"
         id="path10238"
         style="fill:url(#radialGradient10240);fill-opacity:1;stroke:none"
         sodipodi:type="arc" />
    </g>
  </g>
</svg>
