<svg width="1850" height="1850" xmlns="http://www.w3.org/2000/svg">
 <metadata id="metadata3047">image/svg+xml</metadata>

 <g>
  <title>Layer 1</title>
  <rect id="svg_4" height="968" width="896" y="582" x="478" stroke-linecap="null" stroke-linejoin="null" stroke-dasharray="null" stroke-width="null" fill="#ffffff"/>
  <g transform="matrix(1 0 0 -1 37.9661 1297.86)" id="g3039">
   <path fill="#a61c2a" id="path3041" d="m1271.040039,148.859985l0,192q0,14 -9,23q-9,9 -23,9l-224.000061,0l0,224q0,14 -9,23q-9.003967,9 -23.003967,9l-192,0q-14,0 -23,-9q-9,-9 -9,-23l0,-224l-224,0q-14,0 -23,-9q-9,-9 -9,-23l0,-192q0,-14 9,-23q9,-9 23,-9l224,0l0,-224q0,-14 9,-23q9,-9 23,-9l192,0q14,0 23.003967,9q9,9 9,23l0,224l224.000061,0q14,0 23,9q9,9 9,23zm-640.004028,736l512.004028,0l0,128l-512.004028,0l0,-128zm-384.000015,0l0,-1280l-32,0q-91.999992,0 -158.000095,66q-66.00004,66 -66.00004,158l0,832q0,92 66.00004,158q66.000103,66 158.000095,66l32,0zm1184.004044,0l0,-1280l-1088.004028,0l0,1280l160,0l0,160q0,40 28,68q28,28 68,28l576.004028,0q40,0 68,-28q28,-28 28,-68l0,-160l160,0zm352,-224l0,-832q0,-92 -66,-158q-66,-66 -158,-66l-32,0l0,1280l32,0q92,0 158,-66q66,-66 66,-158z"/>
  </g>
 </g>
</svg>