<?xml version="1.0" encoding="UTF-8" standalone="no"?>
<!-- Created with Inkscape (http://www.inkscape.org/) -->
<svg xmlns:dc="http://purl.org/dc/elements/1.1/" xmlns:cc="http://creativecommons.org/ns#" xmlns:rdf="http://www.w3.org/1999/02/22-rdf-syntax-ns#" xmlns:svg="http://www.w3.org/2000/svg" xmlns="http://www.w3.org/2000/svg" xmlns:sodipodi="http://sodipodi.sourceforge.net/DTD/sodipodi-0.dtd" xmlns:inkscape="http://www.inkscape.org/namespaces/inkscape" width="380" height="420" id="svg2" version="1.1" inkscape:version="0.47 r22583" sodipodi:docname="x.svg">
  <defs id="defs4">
    <inkscape:perspective sodipodi:type="inkscape:persp3d" inkscape:vp_x="0 : 526.18109 : 1" inkscape:vp_y="0 : 1000 : 0" inkscape:vp_z="744.09448 : 526.18109 : 1" inkscape:persp3d-origin="372.04724 : 350.78739 : 1" id="perspective10"/>
    <inkscape:perspective id="perspective2824" inkscape:persp3d-origin="0.5 : 0.33333333 : 1" inkscape:vp_z="1 : 0.5 : 1" inkscape:vp_y="0 : 1000 : 0" inkscape:vp_x="0 : 0.5 : 1" sodipodi:type="inkscape:persp3d"/>
    <inkscape:perspective id="perspective3600" inkscape:persp3d-origin="0.5 : 0.33333333 : 1" inkscape:vp_z="1 : 0.5 : 1" inkscape:vp_y="0 : 1000 : 0" inkscape:vp_x="0 : 0.5 : 1" sodipodi:type="inkscape:persp3d"/>
  </defs>
  <sodipodi:namedview id="base" pagecolor="#ffffff" bordercolor="#666666" borderopacity="1.0" inkscape:pageopacity="0.0" inkscape:pageshadow="2" inkscape:zoom="0.81" inkscape:cx="517.42024" inkscape:cy="352.01946" inkscape:document-units="px" inkscape:current-layer="layer1" showgrid="false" inkscape:window-width="1306" inkscape:window-height="1001" inkscape:window-x="24" inkscape:window-y="56" inkscape:window-maximized="0"/>
  <g inkscape:label="Ebene 1" inkscape:groupmode="layer" id="layer1" transform="translate(0,-632.36218)">
    <path style="fill:#000000;stroke:#000000;stroke-width:1px;stroke-linecap:butt;stroke-linejoin:miter;stroke-opacity:1" d="m 117.45886,653.64888 c -12.27256,25.90834 -10.51943,106.55344 21.14286,118.28572 -8.54949,-31.94548 1.54135,-47.26532 16,-66.85715 17.65828,-21.25655 45.27549,-24.93418 66.85714,-5.71428 18.59967,14.73544 24.96515,35.68489 24,58.85714 -0.88663,5.10509 -8.89874,12.00715 -4.57143,14.85714 37.27294,-7.70401 29.21075,-80.39596 26.28572,-106.28571 -0.407,-2.83441 -1.76608,-5.96905 -0.57143,-8.57143 0.39733,-0.86554 1.3421,-1.84322 2.28571,-1.71428 3.09528,0.42294 4.29702,4.64451 5.71429,7.42857 8.70531,39.91486 20.38208,87.08776 -18.28572,113.14285 -4.01771,2.83219 -13.08918,7.99039 -14.9703,12.53183 24.20517,-0.29727 80.4354,-10.24896 99.54173,10.89675 0.53875,1.0775 -0.14691,2.75082 -1.14286,3.42857 -30.38469,1.12067 -92.57953,-17.43352 -114.28571,12.57143 -1.14504,2.01457 -2.19437,4.79221 -1.14286,6.85714 1.93272,3.79542 7.16997,5.78407 11.42857,5.71428 15.12626,-8.92928 45.96997,-10.48901 52.57143,-5.14285 20.36223,30.62199 61.50248,86.8227 77.14286,132.57143 1.41374,5.3534 4.45675,12.13569 1.14286,16.57142 -1.05104,1.40685 -3.58582,1.95498 -5.14286,1.14286 -14.57185,-48.10464 -69.38211,-111.86719 -76.67928,-128.63339 -0.55621,-6.02029 -0.0247,-7.91348 -5.03501,-11.36661 -6.66165,-3.97608 -37.93721,4.47874 -40,8.57143 -0.27027,4.84868 10.77428,0.82132 15.80243,6.81762 8.05162,14.06348 -10.28281,143.42198 -21.89198,172.02674 -2.17143,5.3079 0.31114,-2.706 -1.92462,5.5311 -0.22314,0.8221 -6.40011,7.8429 -6.80345,7.0926 2.33797,-56.88238 24.92856,-114.04268 24.53191,-170.89663 -3.08977,-7.67766 -23.89493,-4.72541 -32.57143,-5.14286 -2.73602,1.54359 -2.23249,6.0019 -2.28571,9.14286 -0.0462,2.72681 2.01545,5.28948 1.71428,8 -1.03153,6.85087 -6.60902,11.07001 -12.57143,13.71428 -12.92086,2.40162 -13.91939,-12.89573 -5.71428,-19.42807 1.2584,-1.01423 12.2477,-5.84509 11.13473,-8.56817 -1.59165,-3.8943 -6.70901,3.51071 -12.27759,6.27596 -2.26256,1.12354 -3.73231,-8.34801 -6.28571,-8.56493 -5.78457,-0.44374 -9.49535,5.47168 -13.73052,7.13798 -2.80898,-2.0911 -4.28095,-8.17706 -6.84091,-10.56655 -7.36512,-3.47436 -6.77997,6.77252 -4,10.85714 6.02688,4.52861 11.65101,9.46996 10.88636,17.99189 -2.92803,7.00275 -11.9742,9.78837 -17.17208,3.7224 -4.04922,-6.84229 -2.62004,-15.19735 -2.85714,-22.85715 -0.85096,-5.64198 8.76591,-13.06525 2.28572,-13.14285 -13.42373,10.01195 -20.68645,-7.56521 -33.71429,-9.14286 -2.09356,0.74246 -2.96979,3.54087 -3.42857,5.71429 -7.58863,40.75198 -13.02231,125.2414 -4,189.14287 -1.16883,1.9735 -4.94232,-0.8255 -6.85714,-2.0882 -14.466143,-58.75501 -6.18521,-133.74457 -1.14286,-193.91182 0.84001,-14.05286 19.14398,-4.93856 23.19095,-13.56153 -43.427138,-11.5763 -44.079948,22.9649 -60.673468,51.21388 -26.11629,37.85847 -32.94485,51.10661 -49.27738,85.30512 -1.76927,0.90792 -11.06102,9.02555 -12.09725,7.32827 -2.7254002,-4.4641 1.12017,-10.49512 2.85714,-15.42857 17.2636,-29.21189 30.27229,-59.8739 47.58662,-89.14286 6.60504,-10.75764 11.28552,-23.4176 17.55624,-34.28572 14.321785,-18.18361 35.755988,-17.5406 62.285718,-8 3.93362,0.58756 9.35058,-0.0373 11.42857,-3.42857 1.11264,-1.81581 -0.002,-4.48731 -1.14286,-6.28571 -25.11429,-20.85604 -57.794873,-21.98358 -87.428578,-12 -3.19428,0.92861 -6.66383,3.61254 -9.71428,2.28571 -1.40822,-0.61253 -2.75055,-2.53637 -2.28572,-4 33.54967,-16.15489 58.042808,-27.00381 89.024318,-3.42857 3.08264,2.05958 15.37003,3.31884 16.76636,-1.06648 -0.41646,-2.6132 -4.12742,-2.08774 -6.3621,-3.50495 -3.12325,-1.98073 -6.10826,-4.17166 -9.14285,-6.28571 -3.25218,-2.26563 -6.39359,-4.69318 -9.71429,-6.85714 -43.485058,-24.41735 -39.400793,-85.19075 -24,-125.71429 1.00032,-1.16518 2.47874,-2.07585 4,-2.28571 1.55597,-0.21465 3.85205,-0.25343 4.57143,1.14285 l 0,-5e-4 0,-2e-5 z" id="path2830" sodipodi:nodetypes="cccccccssccccccscccsccccccscccscccssccccccccccccccccsccccsccscccssccsscc"/>
    <path style="fill:#918a6f;stroke:#000000;stroke-width:1px;stroke-linecap:butt;stroke-linejoin:miter;stroke-opacity:1" d="m 179.99634,688.15243 c -4.23337,2.16135 -12.33951,2.54765 -12.87129,8.41584 0.0261,2.45301 3.38987,4.65443 2.47525,6.9307 -4.40335,5.07497 -14.39724,3.93306 -16.83168,11.38613 -0.23811,3.39356 6.73189,4.53182 6.43564,7.9208 -3.61007,5.43737 -10.90731,7.44181 -13.86139,13.86138 -2.58139,8.22195 5.6486,8.68351 9.40595,13.36634 -2.73769,15.3076 -8.08041,18.80483 8.91089,29.70297 8.92919,3.52634 17.25621,-11.67687 25.24752,-3.9604 1.49489,5.0243 -2.99673,10.36436 0,15.34654 0.9459,3.81695 4.71134,3.41701 6.43564,1.9802 0.66745,-5.22607 -2.35784,-10.05775 0.9901,-15.34654 15.82626,-8.91821 11.25278,7.80265 34.15842,-5.94059 4.89008,-6.94331 -2.57625,-13.6148 -1.48515,-21.28713 3.56737,-3.88072 7.70937,-5.44788 7.42574,-11.38614 -0.47862,-7.58768 -10.00592,-8.08973 -12.37623,-14.35644 3.93837,-5.47155 9.89145,-4.67686 6.5831,-12.11818 -2.30207,-2.7084 -13.73212,-4.56401 -12.02865,-7.6838 0.84728,-1.55175 1.97012,-5.43173 1.48515,-7.08488 -3.79403,-4.85179 -7.7885,-4.62665 -12.7171,-8.52715 -7.59239,-3.47073 -19.54934,-3.53753 -27.38191,-1.21965 z" id="path3627" sodipodi:nodetypes="cccccccccccccccccsccc"/>
    <path style="fill:#918a6f;stroke:none" d="m 103.78564,992.4397 3.57183,27.4614 8.92959,-0.5906 -1.78592,-27.46137 -10.7155,0.59057 z" id="path2816"/>
    <path style="fill:#918a6f;stroke:none" d="m 104.16017,913.55618 -1.59418,37.12973 11.58668,0.60983 0.60983,-37.80918 -10.60233,0.0696 z" id="path3614" sodipodi:nodetypes="ccccc"/>
    <path style="fill:#918a6f;stroke:none" d="m 243.74059,916.23077 -7.31791,39.33375 11.8916,2.4393 5.79334,-40.5534 -10.36703,-1.21965 z" id="path3618" sodipodi:nodetypes="ccccc"/>
    <path style="fill:#918a6f;stroke:none" d="m 228.79986,992.76387 -3.04913,25.00283 9.75721,0.9147 6.09826,-24.69788 -12.80634,-1.21965 z" id="path3622" sodipodi:nodetypes="ccccc"/>
    <path style="fill:#918a6f;stroke:none" d="m 30.879072,923.62501 -10.84337,21.28514 10.44176,4.41767 11.64659,-20.88353 -11.24498,-4.81928 z" id="path3624" sodipodi:nodetypes="ccccc"/>
    <path style="fill:#918a6f;stroke:none" d="m 65.015622,859.76959 -15.26105,28.11245 13.25301,5.22088 16.86748,-26.50603 -14.85944,-6.8273 z" id="path3626" sodipodi:nodetypes="ccccc"/>
    <path style="fill:#918a6f;stroke:none" d="m 339.31282,928.04268 14.85943,27.30924 9.26403,-5.67664 -12.07527,-26.85349 -12.04819,5.22089 z" id="path3628" sodipodi:nodetypes="ccccc"/>
    <path style="fill:#918a6f;stroke:none" d="m 295.93932,864.58887 21.68675,29.71887 13.25301,-7.63052 -20.08032,-29.71888 -14.85944,7.63053 z" id="path3630" sodipodi:nodetypes="ccccc"/>
    <path style="fill:#918a6f;stroke:none" d="m 61.595122,796.51201 10.22727,-4.26136 3.40909,8.52273 -11.64773,3.125 -1.98863,-7.38637 z" id="path3632"/>
    <path style="fill:#918a6f;stroke:none" d="m 89.151932,786.00065 10.511375,-1.70455 8.522733,0 -0.85228,13.92046 -10.227273,-0.56818 -7.670455,0.28409 -0.2841,-11.93182 z" id="path3634"/>
    <path style="fill:#918a6f;stroke:none" d="m 334.89058,794.80747 -9.65909,-4.26137 -2.84091,13.35228 10.51137,0.28409 1.98863,-9.375 z" id="path3636" sodipodi:nodetypes="ccccc"/>
    <path style="fill:#918a6f;stroke:none" d="m 307.04967,787.13701 -19.60227,-0.56818 -1.13636,13.63637 19.31818,1.70454 1.42045,-14.77273 z" id="path3638" sodipodi:nodetypes="ccccc"/>
    <path style="fill:#918a6f;stroke:none" d="m 105.34513,663.27338 -2.84091,10.79545 9.65909,1.42046 2.27273,-11.36364 -9.09091,-0.85227 z" id="path3640"/>
    <path style="fill:#918a6f;stroke:none" d="m 98.526937,696.22792 -0.85227,13.35228 0.56818,13.63636 14.204553,-0.85227 -1.13636,-13.92046 -0.2841,-12.21591 -12.500003,0 z" id="path3642" sodipodi:nodetypes="ccccccc"/>
    <path style="fill:#918a6f;stroke:none" d="m 266.70876,668.10292 1.42046,10.51137 9.94318,-1.70455 -2.55682,-10.79545 -8.80682,1.98863 z" id="path3644" sodipodi:nodetypes="ccccc"/>
    <path style="fill:#918a6f;stroke:none" d="m 269.26558,696.22792 0.56818,13.63637 -0.56818,13.63636 14.48864,0.28409 0.28409,-11.36364 -1.13637,-9.375 -1.42045,-8.80681 -12.21591,1.98863 z" id="path3648" sodipodi:nodetypes="cccccccc"/>
  </g>
  <metadata>
    <rdf:RDF>
      <cc:Work>
        <dc:format>image/svg+xml</dc:format>
        <dc:type rdf:resource="http://purl.org/dc/dcmitype/StillImage"/>
        <cc:license rdf:resource="http://creativecommons.org/licenses/publicdomain/"/>
        <dc:publisher>
          <cc:Agent rdf:about="http://openclipart.org/">
            <dc:title>Open Clip Art Library</dc:title>
          </cc:Agent>
        </dc:publisher>
        <dc:title>spider</dc:title>
        <dc:date>2010-07-15T16:53:33</dc:date>
        <dc:description>spider</dc:description>
        <dc:source>http://openclipart.org/detail/73135/spider-by-redccshirt</dc:source>
        <dc:creator>
          <cc:Agent>
            <dc:title>redccshirt</dc:title>
          </cc:Agent>
        </dc:creator>
        <dc:subject>
          <rdf:Bag>
            <rdf:li>animal</rdf:li>
            <rdf:li>clip art</rdf:li>
            <rdf:li>clipart</rdf:li>
            <rdf:li>nature</rdf:li>
            <rdf:li>spider</rdf:li>
          </rdf:Bag>
        </dc:subject>
      </cc:Work>
      <cc:License rdf:about="http://creativecommons.org/licenses/publicdomain/">
        <cc:permits rdf:resource="http://creativecommons.org/ns#Reproduction"/>
        <cc:permits rdf:resource="http://creativecommons.org/ns#Distribution"/>
        <cc:permits rdf:resource="http://creativecommons.org/ns#DerivativeWorks"/>
      </cc:License>
    </rdf:RDF>
  </metadata>
</svg>
