<svg width="4186.982" height="4022.277" xmlns="http://www.w3.org/2000/svg" xmlns:xlink="http://www.w3.org/1999/xlink">
 <defs>
  <linearGradient id="linearGradient3813">
   <stop stop-color="#033783" offset="0" id="stop3815"/>
   <stop stop-color="#033783" stop-opacity="0" offset="1" id="stop3817"/>
  </linearGradient>
  <linearGradient id="linearGradient3360">
   <stop stop-color="#024cb0" offset="0" id="stop3362"/>
   <stop stop-color="#3799dc" offset="1" id="stop3364"/>
  </linearGradient>
  <linearGradient id="linearGradient3352">
   <stop stop-color="#024cb0" offset="0" id="stop3354"/>
   <stop stop-color="#3799dc" offset="1" id="stop3356"/>
  </linearGradient>
  <linearGradient id="linearGradient3344">
   <stop stop-color="#85b1de" offset="0" id="stop3346"/>
   <stop stop-color="#ffffff" offset="1" id="stop3348"/>
  </linearGradient>
  <linearGradient id="linearGradient3336">
   <stop stop-color="#7fa3c8" offset="0" id="stop3338"/>
   <stop stop-color="#ffffff" offset="1" id="stop3340"/>
  </linearGradient>
  <linearGradient xlink:href="#linearGradient3336" id="linearGradient3342" y2="0.335391" x2="1" y1="0.724231" x1="0.254665"/>
  <linearGradient xlink:href="#linearGradient3344" id="linearGradient3350" y2="0.074437" x2="2.20964" y1="0.634747" x1="0.314304"/>
  <linearGradient xlink:href="#linearGradient3352" id="linearGradient3358" y2="0.484488" x2="1" y1="0.484488" x1="-0.043822"/>
  <linearGradient xlink:href="#linearGradient3352" id="linearGradient3366" y2="0.476937" x2="1.00071" y1="0.476937" x1="-0.051385"/>
  <linearGradient xlink:href="#linearGradient3813" id="linearGradient3819" y2="0.1342" x2="0.965397" y1="0.930353" x1="0"/>
  <filter id="filter3877" x="-0.073587" width="1.147173" y="-0.160156" height="1.320312">
   <feGaussianBlur stdDeviation="54.822929" id="feGaussianBlur3879"/>
  </filter>
 </defs>
 <g>
  <title>Layer 1</title>
  <g id="g3881" transform="matrix(0.908206 0 0 0.905196 92.17 91.3069)">
   <g stroke-width="0" stroke-miterlimit="4" id="LINE">
    <line fill="none" stroke-width="0" stroke-miterlimit="4" id="line5" y2="2266.347819" x2="941.660923" y1="2366.648819" x1="1644.646903"/>
   </g>
   <g stroke-width="0" stroke-miterlimit="4" id="LINE_1_">
    <line fill="none" stroke-width="0" stroke-miterlimit="4" id="line8" y2="2485.537719" x2="1938.702803" y1="2568.277719" x1="2495.025803"/>
   </g>
   <g stroke-width="0" stroke-miterlimit="4" id="LINE_2_">
    <line fill="none" stroke-width="0" stroke-miterlimit="4" id="line11" y2="3324.130719" x2="463.542903" y1="3975.377819" x1="2858.149903"/>
   </g>
   <g stroke-width="0" stroke-miterlimit="4" id="LINE_3_">
    <line fill="none" stroke-width="0" stroke-miterlimit="4" id="line14" y2="3429.007919" x2="382.935913" y1="4131.685919" x1="2858.149903"/>
   </g>
   <g stroke-width="0" stroke-miterlimit="4" id="LINE_4_">
    <line fill="none" stroke-width="0" stroke-miterlimit="4" id="line17" y2="1774.243819" x2="463.542903" y1="3324.130719" x1="463.542903"/>
   </g>
   <g stroke-width="0" stroke-miterlimit="4" id="LINE_5_">
    <line fill="none" stroke-width="0" stroke-miterlimit="4" id="line20" y2="1782.978719" x2="382.935913" y1="3429.007919" x1="382.935913"/>
   </g>
   <g stroke-width="0" stroke-miterlimit="4" id="LINE_6_">
    <line fill="none" stroke-width="0" stroke-miterlimit="4" id="line23" y2="4131.685919" x2="2858.149903" y1="2177.474719" x1="2858.149903"/>
   </g>
   <g stroke-width="0" stroke-miterlimit="4" id="LINE_7_">
    <line fill="none" stroke-width="0" stroke-miterlimit="4" id="line26" y2="3076.465719" x2="3971.636903" y1="1773.477819" x1="3971.636903"/>
   </g>
   <g stroke-width="0" stroke-miterlimit="4" id="LINE_8_">
    <line fill="none" stroke-width="0" stroke-miterlimit="4" id="line29" y2="3076.465719" x2="3971.636903" y1="4131.685919" x1="2858.149903"/>
   </g>
   <g stroke-width="0" stroke-miterlimit="4" id="LINE_9_">
    <line fill="none" stroke-width="0" stroke-miterlimit="4" id="line32" y2="2918.642719" x2="3971.636903" y1="3975.377819" x1="2858.149903"/>
   </g>
   <g stroke-width="0" stroke-miterlimit="4" id="LINE_10_">
    <line fill="none" stroke-width="0" stroke-miterlimit="4" id="line35" y2="1558.680819" x2="4296.734803" y1="2384.565819" x1="3046.750003"/>
   </g>
   <g stroke-width="0" stroke-miterlimit="4" id="LINE_11_">
    <line fill="none" stroke-width="0" stroke-miterlimit="4" id="line38" y2="441.045809" x2="1705.103803" y1="189.419817" x1="2927.472903"/>
   </g>
   <g stroke-width="0" stroke-miterlimit="4" id="LINE_12_">
    <line fill="none" stroke-width="0" stroke-miterlimit="4" id="line41" y2="515.990819" x2="1341.029903" y1="515.296819" x1="1344.397903"/>
   </g>
   <g stroke-width="0" stroke-miterlimit="4" id="LINE_13_">
    <line fill="none" stroke-width="0" stroke-miterlimit="4" id="line44" y2="1856.662819" x2="146.590904" y1="1856.662819" x1="382.935913"/>
   </g>
   <g stroke-width="0" stroke-miterlimit="4" id="LINE_14_">
    <line fill="none" stroke-width="0" stroke-miterlimit="4" id="line47" y2="793.583799" x2="1033.329923" y1="1775.814819" x1="110.460903"/>
   </g>
   <g stroke-width="0" stroke-miterlimit="4" id="LINE_15_">
    <line fill="none" stroke-width="0" stroke-miterlimit="4" id="line50" y2="1824.491819" x2="132.214903" y1="814.076849" x1="1114.763903"/>
   </g>
   <g stroke-width="0" stroke-miterlimit="4" id="LINE_16_">
    <line fill="none" stroke-width="0" stroke-miterlimit="4" id="line53" y2="154.568819" x2="1033.329923" y1="793.583799" x1="1033.329923"/>
   </g>
   <g stroke-width="0" stroke-miterlimit="4" id="LINE_17_">
    <line fill="none" stroke-width="0" stroke-miterlimit="4" id="line56" y2="110.116819" x2="1114.763903" y1="814.076849" x1="1114.763903"/>
   </g>
   <g stroke-width="0" stroke-miterlimit="4" id="LINE_18_">
    <line fill="none" stroke-width="0" stroke-miterlimit="4" id="line59" y2="1558.680819" x2="4296.734803" y1="189.419817" x1="2927.472903"/>
   </g>
   <g stroke-width="0" stroke-miterlimit="4" id="LINE_19_">
    <line fill="none" stroke-width="0" stroke-miterlimit="4" id="line62" y2="708.787839" x2="1520.610903" y1="2384.565819" x1="3046.750003"/>
   </g>
   <g stroke-width="0" stroke-miterlimit="4" id="LINE_20_">
    <line fill="none" stroke-width="0" stroke-miterlimit="4" id="line65" y2="1774.243819" x2="463.542903" y1="708.787839" x1="1520.610903"/>
   </g>
   <g stroke-width="0" stroke-miterlimit="4" id="LINE_22_">
    <line fill="none" stroke-width="0" stroke-miterlimit="4" id="line71" y2="3168.812819" x2="2495.025803" y1="3069.802819" x1="1938.702803"/>
   </g>
   <g stroke-width="0" stroke-miterlimit="4" id="LINE_23_">
    <line fill="none" stroke-width="0" stroke-miterlimit="4" id="line74" y2="3069.802819" x2="1938.702803" y1="2485.537719" x1="1938.702803"/>
   </g>
   <g stroke-width="0" stroke-miterlimit="4" id="LINE_24_">
    <line fill="none" stroke-width="0" stroke-miterlimit="4" id="line77" y2="3168.812819" x2="2495.025803" y1="2568.277719" x1="2495.025803"/>
   </g>
   <g stroke-width="0" stroke-miterlimit="4" id="LINE_25_">
    <line fill="none" stroke-width="0" stroke-miterlimit="4" id="line80" y2="2366.648819" x2="1644.646903" y1="3645.348719" x1="1644.646903"/>
   </g>
   <g stroke-width="0" stroke-miterlimit="4" id="LINE_26_">
    <line fill="none" stroke-width="0" stroke-miterlimit="4" id="line83" y2="2266.347819" x2="941.660923" y1="3454.161719" x1="941.660923"/>
   </g>
   <g stroke-width="0" stroke-miterlimit="4" id="LINE_27_">
    <line fill="none" stroke-width="0" stroke-miterlimit="4" id="line86" y2="1856.662819" x2="146.590904" y1="1775.814819" x1="110.460903"/>
   </g>
   <g stroke-width="0" stroke-miterlimit="4" id="LINE_28_">
    <line fill="none" stroke-width="0" stroke-miterlimit="4" id="line89" y2="110.116819" x2="1705.103803" y1="110.116819" x1="1114.763903"/>
   </g>
   <g stroke-width="0" stroke-miterlimit="4" id="LINE_29_">
    <line fill="none" stroke-width="0" stroke-miterlimit="4" id="line92" y2="154.568819" x2="1114.763903" y1="154.568819" x1="1033.329923"/>
   </g>
   <g stroke-width="0" stroke-miterlimit="4" id="LINE_30_" transform="matrix(1.0925 0 0 1 24.0548 0)">
    <line fill="none" stroke-width="0" stroke-miterlimit="4" id="line95" y2="1782.978719" x2="136.539577" y1="1782.978719" x1="401.814576"/>
   </g>
   <g stroke-width="0" stroke-miterlimit="4" id="LINE_31_">
    <line fill="none" stroke-width="0" stroke-miterlimit="4" id="line98" y2="441.045809" x2="1705.103803" y1="110.116819" x1="1705.103803"/>
   </g>
   <path fill="#666666" stroke-width="0" stroke-miterlimit="4" id="path2546" d="m1037.106934,157.637741l0,634.343765l-924.687531,984.156189l22.84375,48.3125l250.34375,0l0,1603.40625l2475.499786,697.5c371.164063,-348.015381 737.768066,-700.558838 1108,-1049.5625l0,-153.875l-1108,1047.90625l-2393.093536,-646.375l0,-1549.78125l-283.34375,0l932.031281,-957.999939l0,-658.031265l-79.59375,0z"/>
   <path fill="url(#linearGradient3350)" stroke-width="0" stroke-miterlimit="4" id="path2556" d="m2861.106689,2175.654785l186.50708,204.368896l920.994629,-606.983887l0.498291,1149.680908l-1108,1047.119141l0,-1794.185059z"/>
   <path fill="url(#linearGradient3358)" stroke-width="0" stroke-miterlimit="4" id="path2558" d="m970.106934,3453.651855l0,-1147.612061l672.984985,58.813965l2.359985,1280.963135l-675.344971,-192.165039z"/>
   <path fill="url(#linearGradient3819)" stroke-width="0" stroke-miterlimit="4" filter="url(#filter3877)" id="path3391" d="m2468.152588,1958.927856l1788.029541,-312.057739l-1243.923828,821.541992l-544.105713,-509.484253z"/>
   <path fill="url(#linearGradient3342)" stroke-width="0" stroke-miterlimit="4" id="path2554" d="m1645.451904,3645.816895l-2.359985,-1280.963135l-702.580017,-100.378906l0,1189.177002l-472.490997,-130.199951l0,-1549.784058l1053.772308,-1065.297058l1339.313477,1467.283997l0,1794.185059l-1215.654785,-324.022949zm851.046875,-1079.173096l-557.907837,-82.791992l-0.77002,587.64209l557.923706,97.01001l0.75415,-601.860107z"/>
   <path fill="url(#linearGradient3366)" stroke-width="0" stroke-miterlimit="4" id="path2560" d="m1965.106934,3071.493896l0,-557.454102l531.014648,52.604004l0,601.860107l-531.014648,-97.01001z"/>
   <path fill="#033783" stroke-width="0" stroke-miterlimit="4" id="path3374" d="m940.511902,2264.474854l0.782532,1186.350342l704.157471,194.991699l-675.251282,-191.679199l-0.093689,-1148.0979l672.984985,58.813965l-702.580017,-100.378906z"/>
   <path fill="#b7400c" stroke-width="0" stroke-miterlimit="4" id="path2544" d="m1521.311523,709.539307l-1053.290619,1064.12854l-288.124084,0l936.748444,-958.83374l0,-684.89653l587.864136,0l1.595093,312.750992l1221.667725,-251.527527l1363.765381,1367.32077l-1243.923828,821.54187l-1526.302246,-1670.484375z"/>
   <g id="g3386">
    <path fill="#033783" stroke-width="0" stroke-miterlimit="4" id="path3379" d="m1938.590942,2483.851807l-0.77002,587.64209l558.300659,97.01001l-531.014648,-97.01001l0,-557.454102l531.014648,52.604004l-557.53064,-82.791992z"/>
   </g>
  </g>
  <g id="layer1">
   <path stroke="#000000" id="svg_2" fill="#000000" stroke-width="1px" d="m1559.448242,771.451904c-91.381836,167.031433 -78.327759,686.949219 157.428345,762.587524c-63.659668,-205.952148 11.476074,-304.718994 119.135132,-431.026978c131.481812,-137.041077 337.117676,-160.750793 497.814697,-36.840332c138.491699,94.998657 185.888184,230.05957 178.702393,379.45166c-6.602295,32.911743 -66.260986,77.4104 -34.039551,95.784058c277.532715,-49.668457 217.500977,-518.312927 195.72168,-685.223633c-3.030273,-18.273743 -13.150391,-38.481934 -4.253662,-55.260376c2.95752,-5.579712 9.992432,-11.88269 17.018555,-11.051758c23.046875,2.727051 31.996338,29.943359 42.548584,47.892029c64.819336,257.331116 151.76416,561.454163 -136.155762,729.43158c-29.914551,18.258179 -97.460449,51.513062 -111.467041,80.792236c180.229736,-1.916382 598.916748,-66.075562 741.182129,70.251831c4.011719,6.945923 -1.094727,17.733887 -8.51001,22.103027c-226.242432,7.224609 -689.341797,-112.393311 -850.964111,81.048706c-8.526855,12.987671 -16.340576,30.894775 -8.510742,44.207275c14.391846,24.469116 53.388428,37.290161 85.097412,36.840332c112.628662,-57.567627 342.289307,-67.623291 391.442627,-33.15625c151.616699,197.419312 457.943848,559.744507 574.402832,854.686401c10.525391,34.51416 33.183105,78.239502 8.509521,106.83667c-7.826172,9.069092 -26.701172,12.602539 -38.293213,7.367432c-108.502197,-310.129639 -516.616455,-721.206299 -570.950684,-829.297852c-4.140869,-38.813721 -0.183594,-51.018066 -37.489746,-73.280396c-49.601807,-25.633789 -282.478516,28.874634 -297.837158,55.259644c-2.012695,31.259521 80.223145,5.294922 117.662598,43.952148c59.952393,90.667236 -76.564697,924.641113 -163.005859,1109.055908c-16.16748,34.219482 2.316162,-17.445801 -14.330078,35.658203c-1.661377,5.30127 -47.655273,50.563721 -50.658447,45.725586c17.407959,-366.719971 185.616455,-735.230957 182.664063,-1101.768066c-23.006836,-49.497803 -177.921143,-30.464111 -242.525879,-33.155518c-20.372803,9.950439 -16.622314,38.693359 -17.018799,58.943604c-0.345215,17.57959 15.006836,34.101563 12.763184,51.575439c-7.68042,44.167725 -49.208984,71.36792 -93.604736,88.415771c-96.20874,15.483887 -103.643555,-83.137939 -42.549072,-125.25293c9.369385,-6.538086 91.196045,-37.682861 82.908691,-55.238525c-11.852539,-25.106201 -49.954834,22.634033 -91.417969,40.460693c-16.848145,7.244141 -27.79126,-53.818604 -46.80249,-55.217529c-43.072266,-2.860596 -70.701904,35.276367 -102.238281,46.018799c-20.914551,-13.480957 -31.874146,-52.718506 -50.936279,-68.122314c-54.839111,-22.399658 -50.483521,43.661865 -29.783569,69.996338c44.87561,29.194824 86.753174,61.05249 81.059937,115.992676c-21.803589,45.146973 -89.160278,63.105957 -127.862793,23.998047c-30.150757,-44.112061 -19.509155,-97.976318 -21.27417,-147.359863c-6.337036,-36.373535 65.27002,-84.231201 17.018799,-84.731445c-99.951294,64.547119 -154.028931,-48.772949 -251.033325,-58.943848c-15.589966,4.786377 -22.114258,22.828125 -25.530151,36.839844c-56.504272,262.727539 -96.962524,807.430176 -29.783691,1219.401367c-8.702026,12.724365 -36.800537,-5.321289 -51.058105,-13.461426c-107.713501,-378.792969 -46.053711,-862.250488 -8.509399,-1250.148438c6.255371,-90.597778 142.545532,-31.838135 172.678101,-87.43042c-323.354736,-74.631836 -328.21582,148.054688 -451.769897,330.175293c-194.461792,244.072998 -245.305115,329.484131 -366.916199,549.961426c-13.174194,5.853271 -82.359802,58.188232 -90.076782,47.245605c-20.292725,-28.780029 8.340454,-67.662598 21.274475,-99.468262c128.544312,-188.328857 225.405212,-386.006104 354.327515,-574.703369c49.180054,-69.354004 84.030518,-150.973145 130.722046,-221.040039c106.638916,-117.228516 266.237793,-113.083374 463.7771,-51.57605c29.289429,3.788574 69.622192,-0.23999 85.095703,-22.103882c8.283936,-11.705811 -0.014404,-28.928833 -8.509521,-40.52356c-186.999146,-134.458008 -430.33728,-141.728149 -650.988892,-77.36377c-23.783081,5.987549 -49.618286,23.289795 -72.330933,14.735474c-10.485229,-3.948242 -20.481567,-16.35144 -17.020386,-25.787598c249.809814,-104.150146 432.18457,-174.092773 662.870361,-22.103638c22.952515,13.278076 114.445068,21.396729 124.841431,-6.876099c-3.10144,-16.846558 -30.732666,-13.458862 -47.371582,-22.596558c-23.255859,-12.768799 -45.482666,-26.894409 -68.076782,-40.523315c-24.215698,-14.606445 -47.60791,-30.256592 -72.332642,-44.207397c-323.787598,-157.418701 -293.376343,-549.224365 -178.702515,-810.479309c7.447754,-7.511841 18.456787,-13.382874 29.783569,-14.735779c11.585327,-1.384155 28.682251,-1.63446 34.037598,7.366943l0,-0.003052l0,0l0.001831,0z"/>
   <path stroke="#000000" id="svg_3" fill="#918a6f" stroke-width="1px" d="m2025.097778,993.896057c-31.521606,13.934204 -91.879639,16.425049 -95.839233,54.257263c0.194702,15.814331 25.241089,30.006836 18.431152,44.682495c-32.786499,32.718018 -107.200684,25.355957 -125.328369,73.406128c-1.772461,21.878418 50.125488,29.216187 47.920532,51.065186c-26.880859,35.054688 -81.216431,47.977051 -103.212402,89.364136c-19.220459,53.007202 42.059692,55.982056 70.036621,86.172363c-20.383667,98.688232 -60.165527,121.235107 66.350098,191.495117c66.486206,22.734375 128.489258,-75.281006 187.991577,-25.533081c11.130615,32.391602 -22.313965,66.81897 0,98.939209c7.041992,24.607422 35.081055,22.029053 47.918701,12.766235c4.969971,-33.692261 -17.554932,-64.841797 7.373291,-98.938965c117.840576,-57.495605 83.787109,50.304077 254.341797,-38.298706c36.411621,-44.762939 -19.184082,-87.773926 -11.057861,-137.237793c26.560791,-25.019043 57.402344,-35.123047 55.290039,-73.406982c-3.563232,-48.91748 -74.50293,-52.153564 -92.152832,-92.555786c29.325684,-35.274292 73.652344,-30.150879 49.018311,-78.124878c-17.141846,-17.461792 -102.248779,-29.424683 -89.565674,-49.538452c6.309814,-10.003418 14.67041,-35.0177 11.060059,-45.675171c-28.251465,-31.280273 -57.993408,-29.828125 -94.692139,-54.974792c-56.531494,-22.376343 -145.563232,-22.806152 -203.883667,-7.863525z"/>
   <path id="svg_4" fill="#918a6f" d="m1457.637451,2955.634033l26.595337,177.044434l66.48999,-3.809326l-13.297852,-177.042969l-79.787476,3.807861z"/>
   <path id="svg_5" fill="#918a6f" d="m1460.426147,2447.072021l-11.870728,239.375488l86.273804,3.931885l4.541016,-243.755615l-78.944092,0.448242z"/>
   <path id="svg_6" fill="#918a6f" d="m2499.733154,2464.315918l-54.488525,253.584473l88.543945,15.725342l43.137695,-261.447021l-77.193115,-7.862793z"/>
   <path id="svg_7" fill="#918a6f" d="m2388.485596,2957.723145l-22.703125,161.193848l72.652832,5.897949l45.40625,-159.228271l-95.355957,-7.863525z"/>
   <path id="svg_8" fill="#918a6f" d="m914.780029,2511.986328l-80.740112,137.224609l77.749573,28.480469l86.71936,-134.635254l-83.728821,-31.069824z"/>
   <path id="svg_9" fill="#918a6f" d="m1168.958008,2100.311523l-113.63208,181.239502l98.680542,33.65918l125.593872,-170.883789l-110.642334,-44.014893l0,0z"/>
   <path id="svg_10" fill="#918a6f" d="m3211.358398,2540.467285l110.643799,176.061768l68.978516,-36.597412l-89.911133,-173.124023l-89.711182,33.659668z"/>
   <path id="svg_11" fill="#918a6f" d="m2888.403564,2131.380371l161.476563,191.597656l98.682373,-49.194092l-149.517334,-191.596924l-110.641602,49.193359z"/>
   <path id="svg_12" fill="#918a6f" d="m1143.490112,1692.490112l76.151611,-27.473511l25.382813,54.945801l-86.727905,20.147827l-14.806519,-47.620117z"/>
   <path id="svg_13" fill="#918a6f" d="m1348.675293,1624.7229l78.267578,-10.988647l63.459717,0l-6.346191,89.744751l-76.151855,-3.662598l-57.113281,1.831055l-2.115967,-76.924561z"/>
   <path id="svg_14" fill="#918a6f" d="m3178.431641,1681.500854l-71.921631,-27.472778l-21.152832,86.082153l78.266357,1.831055l14.808105,-60.44043z"/>
   <path id="svg_15" fill="#918a6f" d="m2971.128662,1632.049561l-145.955811,-3.663208l-8.461914,87.91333l143.841553,10.989624l10.576172,-95.239746z"/>
   <path id="svg_16" fill="#918a6f" d="m1469.25,833.501038l-21.154541,69.598755l71.921753,9.158081l16.922485,-73.261108l-67.689697,-5.495728z"/>
   <path id="svg_17" fill="#918a6f" d="m1418.481079,1045.959229l-6.346436,86.082031l4.232178,87.913452l105.766479,-5.494873l-8.462158,-89.744751l-2.115967,-78.755859l-93.074097,0z"/>
   <path id="svg_18" fill="#918a6f" d="m2670.753174,864.63739l10.576416,67.766663l74.037842,-10.988892l-19.038574,-69.598572l-65.575684,12.820801z"/>
   <path id="svg_19" fill="#918a6f" d="m2689.791504,1045.959229l4.230957,87.91333l-4.230957,87.913452l107.881104,1.832031l2.115723,-73.262085l-8.462402,-60.439819l-10.575928,-56.77771l-90.958496,12.820801z"/>
  </g>
 </g>
</svg>