<svg width="125" height="125" xmlns="http://www.w3.org/2000/svg">
 <metadata id="metadata3214">image/svg+xmlHeatherM</metadata>
 <g>
  <title>Layer 1</title>
  <g id="layer1">
   <path d="m119.5,9.772644c-0.177429,-2.621124 -1.578461,-3.772644 -4.05542,-3.554749l-99.182251,0l0,-0.050079l-9.262329,0l0,4.606139l0,5.707612l0,97.780396c0,4.473206 3.776001,5.794525 6.408539,3.054077c5.760895,-5.997101 10.150085,-10.658386 15.320435,-12.466644c4.976074,-1.740326 10.802521,-1.930878 18.374481,1.552063c3.05835,1.406799 4.857941,0.403534 6.008026,-2.553406c3.796997,-9.762421 6.664276,-14.184723 9.863129,-16.221619c3.224823,-2.053375 8.523041,-2.64093 18.624847,-2.553406c2.624756,0.022736 4.013519,-1.299652 4.305756,-3.755005c0.825562,-6.936646 2.120361,-13.354218 5.006653,-18.324432c2.855743,-4.917603 6.874054,-8.851563 13.668243,-10.764343c2.672333,-0.75235 3.559967,-2.529846 3.003998,-4.906555c-3.26712,-13.965881 -1.404724,-24.984314 10.313751,-34.495973c1.138062,-0.768524 1.596741,-1.877625 1.602142,-3.054077l0,0.000001zm-12.316437,3.654878c-6.879059,8.577605 -8.886078,18.756927 -7.45993,29.439239l-12.11615,-5.006683c-2.215668,-9.92642 -0.509186,-17.634857 7.409882,-24.432555l12.166199,0zm-11.965942,35.347106c-4.573334,2.747925 -8.107941,6.384644 -10.564087,10.614166c-2.553253,4.396729 -4.010223,9.333313 -4.906555,14.469269l-8.761688,-8.761658c0.554016,-5.03894 1.725342,-9.381653 3.755005,-12.817108c2.055908,-3.479828 4.978729,-6.11142 9.712952,-7.960602l10.764374,4.455933zm-9.913208,-35.347106c-4.482544,6.286803 -5.928772,13.658477 -5.156891,21.328429l-12.666901,-5.257019c-1.449005,-6.702423 -0.3508,-11.617676 4.706299,-16.07141l13.117493,0zm-9.362518,27.336425c-3.13504,2.157562 -5.616302,4.824707 -7.409851,7.860504c-1.858429,3.145569 -2.978363,6.646729 -3.704956,10.313751l-9.26236,-9.26236c0.393433,-3.576324 1.155914,-6.423096 2.503357,-8.611481c1.278534,-2.076477 3.063354,-3.766907 5.957947,-5.20694l11.915863,4.906525zm-2.152863,37.349823c-6.022491,0.254486 -10.772919,0.973419 -14.669556,3.45459c-4.01297,2.555267 -6.746613,6.865021 -9.562744,12.867157l-4.355804,-10.514008c2.92453,-6.827728 5.004669,-10.086517 7.409882,-11.615509c2.364044,-1.502808 6.218323,-2.077606 13.067413,-2.30307l8.110809,8.11084zm-10.664215,-64.686248c-2.292572,3.934661 -3.175476,8.393126 -2.953949,13.017333l-12.216278,-5.056732c-0.356384,-1.999786 -0.297638,-3.653959 0.050079,-4.906555c0.341278,-1.229369 0.892792,-2.191161 1.952606,-3.054046l13.167542,0zm-4.155548,49.866485c-3.990906,0.353882 -7.344666,1.080078 -10.213623,2.90387c-3.005554,1.910614 -5.147095,4.891083 -7.209595,8.861816l-4.756348,-11.51535c2.161957,-4.833588 3.552826,-6.782043 4.956604,-7.610168c1.317871,-0.777405 3.837128,-1.128052 8.311096,-1.552063l8.911865,8.911896zm-2.653534,-30.640869c-1.742462,1.355408 -3.214355,2.883698 -4.305725,4.656219c-1.187775,1.929047 -1.962372,4.068268 -2.503326,6.308411l-8.911896,-8.911896c0.07373,-1.69046 0.416412,-2.950226 0.951263,-3.855133c0.648102,-1.096527 1.748077,-1.960144 3.755005,-2.753662l11.014679,4.556061zm-12.66687,15.270355c-2.021606,0.344055 -3.87207,0.858276 -5.557404,1.852478c-1.975525,1.165375 -3.474274,2.949615 -4.856506,5.257019l-4.105471,-9.913208c1.024536,-1.992523 1.823059,-2.816467 2.553408,-3.254364c0.804474,-0.48233 2.387878,-0.77597 4.806427,-1.101471l7.159546,7.159546zm-0.550751,49.766357c-6.124573,-1.464447 -11.698547,-1.406525 -16.72229,0.350464c-4.481812,1.567474 -8.422302,4.274139 -12.16623,7.810425l0,-11.56543c3.95099,-4.611938 7.389039,-7.36554 10.964631,-8.561401c3.519623,-1.177155 7.560669,-1.010162 13.367828,0.951263l4.556061,11.014679zm-1.301727,-84.262328c-0.153076,0.389312 -0.2883,0.79724 -0.400543,1.201598c-0.346344,1.247681 -0.475128,2.532013 -0.450592,3.855133l-12.166229,-5.056731l13.017365,0zm-4.005341,11.565398c-0.806702,0.715607 -1.558105,1.481659 -2.102818,2.403198c-0.301418,0.51001 -0.540768,1.059204 -0.751003,1.602142l-8.961945,-8.911865l11.815765,4.906525zm-2.603489,53.571442c-4.465208,-0.888245 -8.590389,-0.895721 -12.316402,0.350464c-3.162508,1.057709 -5.983734,2.80188 -8.661561,5.106812l0,-12.767029c2.558534,-2.814514 4.911195,-4.56842 7.359834,-5.357147c2.344177,-0.755066 4.983276,-0.7724 8.461273,0.200287l5.156857,12.466614zm-4.556059,-43.658203c-0.835785,0.265289 -1.644928,0.616821 -2.453278,1.101471c-0.777161,0.465973 -1.456665,1.096436 -2.102814,1.802399l-5.20694,-12.666901l9.763031,9.763031zm-3.755005,23.6315c-2.617493,-0.269592 -5.124451,-0.151459 -7.459959,0.6008c-1.857943,0.59845 -3.5719,1.493713 -5.206942,2.603455l0,-10.463928c1.351624,-1.371735 2.600801,-2.157654 3.805084,-2.553406c1.303864,-0.428467 2.79361,-0.43515 4.856476,0.100128l4.005341,9.712952zm-6.95929,-16.822418c-1.406097,-0.028778 -2.761261,0.075378 -4.055388,0.500641c-0.573822,0.188599 -1.114839,0.441681 -1.652223,0.700958l0,-15.070099l5.707611,13.8685z" id="path3920" stroke-miterlimit="4" stroke-linejoin="round" stroke-linecap="round" stroke-width="4.275534" fill-rule="evenodd" fill="#e5e5e5"/>
  </g>
 </g>
</svg>