<svg width="800" height="800" xmlns="http://www.w3.org/2000/svg" xmlns:xlink="http://www.w3.org/1999/xlink">
 <metadata id="metadata7">image/svg+xml</metadata>
 <defs>
  <linearGradient id="linearGradient2780">
   <stop stop-color="#4b8247" id="stop2782" offset="0"/>
   <stop stop-color="#0f170f" stop-opacity="0" id="stop2784" offset="1"/>
  </linearGradient>
  <linearGradient id="linearGradient2044">
   <stop stop-color="#3f0b0b" id="stop2046" offset="0"/>
   <stop stop-color="#3f0b0b" stop-opacity="0" id="stop2048" offset="1"/>
  </linearGradient>
  <linearGradient gradientTransform="matrix(0.745827,0.000000,0.000000,1.000000,791.5946,155.6063)" gradientUnits="userSpaceOnUse" y2="615.7475" x2="-552.68896" y1="477.90662" x1="-552.68896" id="linearGradient2050" xlink:href="#linearGradient2044"/>
  <linearGradient gradientUnits="userSpaceOnUse" y2="373.35645" x2="303.45538" y1="595.82269" x1="632.578" id="linearGradient2786" xlink:href="#linearGradient2780"/>
 </defs>
 <g>
  <title>Layer 1</title>
  <path fill="#5b0d0d" fill-rule="nonzero" stroke="#230c0c" stroke-width="18.803326" stroke-linecap="round" stroke-linejoin="round" stroke-miterlimit="4" stroke-dashoffset="0" id="rect1305" d="m326.566986,437.103577l169.322113,0c0,0 -83.540802,231.616516 31.809448,300.86969c-136.474457,-42.079895 15.904724,71.571228 -108.518127,13.253906c2.486664,-15.904724 -23.734009,-41.417175 -129.724426,-2.650818c127.211517,-117.220398 37.110992,-311.472778 37.110992,-311.472778z"/>
  <path fill="#14920d" fill-rule="nonzero" stroke="#165822" stroke-width="18.803326" stroke-linecap="round" stroke-linejoin="round" stroke-miterlimit="4" stroke-dashoffset="0" id="path2035" d="m447.507996,22.172134c-73.280701,0 -137.996124,26.468384 -177.456024,66.898895c-115.24118,4.037369 -207.141373,73.200546 -207.141361,158.065048c0,49.472351 31.243046,93.643616 80.101887,122.705017c5.753693,84.391815 120.978165,151.820038 262.177536,151.820038c144.87204,0 262.434235,-70.978455 262.434174,-158.43576c0,-0.431488 -0.079834,-0.85257 -0.08551,-1.283234c41.550598,-18.814606 67.811401,-45.894836 67.811401,-76.109619c0,-31.545074 -28.508972,-59.756317 -73.286499,-78.619049c2.036682,-8.650513 3.136719,-17.524872 3.136719,-26.605591c0,-87.457291 -97.521973,-158.435745 -217.692322,-158.435745z"/>
 </g>
</svg>